<svg xmlns="http://www.w3.org/2000/svg">
<defs>
<font id="f39585f1b656e5f9297b79e526233403" horiz-adv-x='1024' >
  <font-face 
    font-family="PT Sans"
    font-weight="400"
    font-stretch="normal"
    units-per-em="2048"
    panose-1="2 11 5 3 2 2 3 2 2 4"
    ascent="1638"
    descent="-410"
    x-height="1024"
    cap-height="1434"
    bbox="-727 -502 2238 2034"
    underline-thickness="102"
    underline-position="-102"
    unicode-range="U+0020-FB02"
  />
<missing-glyph horiz-adv-x="1536" 
d="M102 1434h1332v-1434h-1332v1434zM1167 1270l-399 -445l-399 445l-103 -103l404 -450l-404 -451l103 -102l399 444l399 -444l103 102l-406 451l406 450zM289 80q33 0 33 24t-35 25h-23v-74h17v25h8zM289 117q16 0 16 -10.5t-5 -11.5t-13 -1h-6v23h8zM387 129h-63v-12h24
v-62h14v62h25v12zM471 78q0 18 -18.5 20t-18.5 13q0 6 11 6t20 -4l4 14q-12 4 -23 4q-29 0 -28 -22q0 -18 18.5 -23.5t18.5 -11.5t-14.5 -6t-18.5 4l-6 -15l26 -4q29 0 29 25zM479 72q0 -18 17 -19q12 0 18 10l4 -8h12q-2 4 -2 15v22q0 20 -20 21q-18 0 -27 -7l4 -10
q8 4 18.5 4t10.5 -8v-4l-10 2q-25 0 -25 -18zM502 66q-8 0 -8 8t10 8l10 -2v-6q-4 -8 -12 -8zM598 55v33q0 25 -16 25t-23 -11l-4 9h-10v-56h14v35q4 8 13 8t10 -12v-31h16zM629 53q23 0 22 19q0 10 -13 15t-13 9t7 4t15 -4l4 13q-9 3 -25 3t-16 -14t6.5 -17t13.5 -4t7 -6
t-8 -5t-17 4l-4 -13q8 -4 21 -4zM692 86q0 -43 41 -43t41 42t-41 42q-16 0 -28.5 -11.5t-12.5 -29.5zM705 86q0 31 28.5 31t28.5 -31t-28.5 -31t-28.5 31zM735 76q-6 0 -6 9t8 9h6l5 8q-8 4 -15 4q-18 0 -18 -22t18 -21q10 0 15 5l-3 10q-4 -2 -10 -2zM842 80q32 0 32 24
t-34 25h-23v-74h17v25h8zM842 117q16 0 16 -10.5t-5 -11.5t-13 -1h-6v23h8zM928 70v22q0 20 -21 21q-17 0 -26 -7l4 -10q8 4 18 4t10 -8v-4l-10 2q-27 0 -26 -20q0 -16 18 -17q12 0 18 10l5 -8h12q-2 4 -2 15zM901 66q-8 0 -8 8t10 8l10 -2v-6q-4 -8 -12 -8zM970 113
q-7 0 -12 -11h-2l-2 9h-12v-56h16v35q0 8 13 8h2q2 0 2 -1t2 -1l2 15q-2 2 -9 2zM981 72q0 -18 18 -19q14 0 19 10h2l2 -8h12q-2 4 -2 15v22q0 20 -20 21q-16 0 -25 -7l2 -10q13 4 21 4t8 -8v-4l-10 2q-27 0 -27 -18zM1005.5 66q-8.5 0 -8.5 8t11 8l10 -2v-6q-4 -8 -12.5 -8

<glyph glyph-name="fi" unicode="fi" horiz-adv-x="1105" 
d="M369 1024h577v-1024h-164v881h-413v-881h-164v881h-160v143h160v57q0 193 95 280t304 87t338 -80l-55 -131q-107 68 -271 68t-205.5 -64t-41.5 -217z" />
    <glyph glyph-name="fl" unicode="fl" horiz-adv-x="1193" 
d="M591 1315q-92 0 -131.5 -19.5t-65 -67t-25.5 -204.5h211v-143h-211v-881h-164v881h-160v143h160v57q0 193 83 285t277 92q125 0 232.5 -14t136.5 -23v-1169q0 -133 94 -133q68 0 129 22l17 -129q-40 -20 -105 -28.5t-86 -8.5q-92 0 -152.5 52.5t-60.5 177.5v1093
q-87 17 -179 17z" />
    <glyph glyph-name=".notdef" horiz-adv-x="1536" 
d="M102 1434h1332v-1434h-1332v1434zM1167 1270l-399 -445l-399 445l-103 -103l404 -450l-404 -451l103 -102l399 444l399 -444l103 102l-406 451l406 450zM289 80q33 0 33 24t-35 25h-23v-74h17v25h8zM289 117q16 0 16 -10.5t-5 -11.5t-13 -1h-6v23h8zM387 129h-63v-12h24
v-62h14v62h25v12zM471 78q0 18 -18.5 20t-18.5 13q0 6 11 6t20 -4l4 14q-12 4 -23 4q-29 0 -28 -22q0 -18 18.5 -23.5t18.5 -11.5t-14.5 -6t-18.5 4l-6 -15l26 -4q29 0 29 25zM479 72q0 -18 17 -19q12 0 18 10l4 -8h12q-2 4 -2 15v22q0 20 -20 21q-18 0 -27 -7l4 -10
q8 4 18.5 4t10.5 -8v-4l-10 2q-25 0 -25 -18zM502 66q-8 0 -8 8t10 8l10 -2v-6q-4 -8 -12 -8zM598 55v33q0 25 -16 25t-23 -11l-4 9h-10v-56h14v35q4 8 13 8t10 -12v-31h16zM629 53q23 0 22 19q0 10 -13 15t-13 9t7 4t15 -4l4 13q-9 3 -25 3t-16 -14t6.5 -17t13.5 -4t7 -6
t-8 -5t-17 4l-4 -13q8 -4 21 -4zM692 86q0 -43 41 -43t41 42t-41 42q-16 0 -28.5 -11.5t-12.5 -29.5zM705 86q0 31 28.5 31t28.5 -31t-28.5 -31t-28.5 31zM735 76q-6 0 -6 9t8 9h6l5 8q-8 4 -15 4q-18 0 -18 -22t18 -21q10 0 15 5l-3 10q-4 -2 -10 -2zM842 80q32 0 32 24
t-34 25h-23v-74h17v25h8zM842 117q16 0 16 -10.5t-5 -11.5t-13 -1h-6v23h8zM928 70v22q0 20 -21 21q-17 0 -26 -7l4 -10q8 4 18 4t10 -8v-4l-10 2q-27 0 -26 -20q0 -16 18 -17q12 0 18 10l5 -8h12q-2 4 -2 15zM901 66q-8 0 -8 8t10 8l10 -2v-6q-4 -8 -12 -8zM970 113
q-7 0 -12 -11h-2l-2 9h-12v-56h16v35q0 8 13 8h2q2 0 2 -1t2 -1l2 15q-2 2 -9 2zM981 72q0 -18 18 -19q14 0 19 10h2l2 -8h12q-2 4 -2 15v22q0 20 -20 21q-16 0 -25 -7l2 -10q13 4 21 4t8 -8v-4l-10 2q-27 0 -27 -18zM1005.5 66q-8.5 0 -8.5 8t11 8l10 -2v-6q-4 -8 -12.5 -8
zM1092 129h-64v-12h23v-62h16v62h25v12zM1112 33q8 0 18 26l21 52h-16l-11 -31v-10h-2l-2 10l-12 31h-16l24 -56q-2 -10 -10 -10l-2 2l-4 -12q4 -2 12 -2zM1157 33h17v24q2 -4 10 -4q28 0 28 30t-22 30q-10 0 -19 -9h-2l-2 7h-10v-78zM1174 90q0 10 11 10t11 -17t-14 -17
q-4 0 -8 4v20zM1274 90q0 23 -27 23t-27 -30t29 -30q11 0 23 6l-6 11q-4 -4 -16 -4t-15 12h39v12zM1249.5 100q12.5 0 10.5 -12h-23q0 12 12.5 12z" />
    <glyph glyph-name=".null" horiz-adv-x="0" 
 />
    <glyph glyph-name="nonmarkingreturn" horiz-adv-x="546" 
 />
    <glyph glyph-name="space" unicode=" " horiz-adv-x="546" 
 />
    <glyph glyph-name="exclam" unicode="!" horiz-adv-x="624" 
d="M260 1434h170v-711l-35 -361h-100l-35 361v711zM225 95q0 54 32 86t86 32t87 -31.5t33 -85.5t-33 -87.5t-87 -33.5t-86 33t-32 87z" />
    <glyph glyph-name="quotedbl" unicode="&#x22;" horiz-adv-x="686" 
d="M184 1434h160l-63 -396h-97v396zM424 1434h160l-64 -396h-96v396z" />
    <glyph glyph-name="numbersign" unicode="#" 
d="M573 461h-215l-79 -342h-142l80 342h-160l29 131h162l63 268h-151l28 131h154l78 324h141l-78 -324h215l78 324h142l-78 -324h157l-32 -131h-156l-64 -268h150l-33 -131h-147l-80 -342h-141zM389 592h215l64 268h-215z" />
    <glyph glyph-name="dollar" unicode="$" 
d="M496 1638h139v-180q173 -7 291 -59l-49 -144q-101 49 -242 56v-506q169 -88 260.5 -177t91.5 -249t-89 -263.5t-263 -131.5v-189h-139v180q-227 4 -340 66l55 149q104 -63 285 -67v553q-61 31 -197.5 108t-136.5 302q0 155 83 249.5t251 116.5v186zM817 377
q0 118 -85 171.5t-130 76.5v-498q94 14 154.5 73t60.5 177zM332 1097q0 -81 56 -136.5t140 -100.5v449q-109 -12 -152.5 -71.5t-43.5 -140.5z" />
    <glyph glyph-name="percent" unicode="%" horiz-adv-x="1583" 
d="M1305 1460l100 -78l-1051 -1407l-102 80zM1192 698q224 0 293 -185q25 -67 25 -163q-1 -268 -192 -330q-58 -18 -126 -18q-148 0 -233 84t-85 261t86 264t232 87zM1026 350q0 -229 166 -229q126 0 155 118q11 43 11 111q0 182 -96 218q-31 11 -70 12q-78 0 -122 -48
t-44 -182zM461 1458q223 0 293 -185q24 -67 24 -163q-1 -268 -191 -330q-58 -18 -126 -18q-147 0 -233 83q-85 83 -85 261q-1 178 85 264q86 88 233 88zM295 1110q0 -229 166 -229q127 0 154 117q11 44 12 112q0 184 -97 218q-31 11 -69 11q-78 0 -122 -48t-44 -181z" />
    <glyph glyph-name="ampersand" unicode="&#x26;" horiz-adv-x="1667" 
d="M469 1188q0 116 73.5 193t226.5 77t224.5 -71t71.5 -165q0 -198 -277 -360q62 -110 180 -257t193 -222q83 91 160 315l127 -59q-36 -106 -103 -215t-92 -139q128 -122 256 -195l-102 -115q-109 53 -248 191q-191 -191 -448 -191q-201 0 -335 109.5t-134 298.5
q0 225 140 345t208 161q-121 183 -121 299zM406 386q0 -124 98 -195.5t237 -71.5t219 60t103 89q-209 209 -397 516q-124 -93 -192 -183.5t-68 -214.5zM913 1182q0 147 -139 147q-76 0 -110.5 -37t-34.5 -97q0 -106 92 -241q192 123 192 228z" />
    <glyph glyph-name="quotesingle" unicode="'" horiz-adv-x="446" 
d="M184 1434h160l-63 -396h-97v396z" />
    <glyph glyph-name="parenleft" unicode="(" horiz-adv-x="573" 
d="M287 498q0 -361 103.5 -572t178.5 -301l-104 -76q-259 270 -300.5 552t-41.5 396q0 249 84 507.5t264 453.5l98 -72q-282 -358 -282 -888z" />
    <glyph glyph-name="parenright" unicode=")" horiz-adv-x="573" 
d="M287 510q0 350 -103.5 566t-179.5 306l105 76q259 -270 300.5 -551.5t41.5 -395.5q0 -251 -84.5 -509t-264.5 -453l-98 72q283 359 283 889z" />
    <glyph glyph-name="asterisk" unicode="*" horiz-adv-x="718" 
d="M635 1247v-114h-94l-131 24l94 -98l47 -80l-96 -57l-54 86l-47 125l-39 -119l-51 -86l-102 57l55 86l86 86l-119 -24h-102v114h102l127 -24l-92 90l-53 94l100 57l51 -86l37 -114l43 116l49 82l99 -53l-53 -88l-95 -98l140 24h98z" />
    <glyph glyph-name="plus" unicode="+" horiz-adv-x="1034" 
d="M82 766h360v371h148v-371h360v-148h-360v-368h-148v368h-360v148z" />
    <glyph glyph-name="comma" unicode="," horiz-adv-x="460" 
d="M100 86q0 51 33 82t90 31t97 -45t40 -125q0 -141 -67.5 -224t-155.5 -110l-51 80q74 29 109.5 89t35.5 122q-19 -6 -47 -6t-56 27.5t-28 78.5z" />
    <glyph glyph-name="hyphen" unicode="-" horiz-adv-x="737" 
d="M121 666h495v-152h-495v152z" />
    <glyph glyph-name="period" unicode="." horiz-adv-x="438" 
d="M100 95q0 54 32 86t86 32t87 -31.5t33 -85.5t-33 -87.5t-87 -33.5t-86 33t-32 87z" />
    <glyph glyph-name="slash" unicode="/" horiz-adv-x="724" 
d="M672 1458l129 -57l-748 -1688l-129 58z" />
    <glyph glyph-name="zero" unicode="0" 
d="M88 716q0 742 478 742q238 0 350 -183t112 -555t-120 -558.5t-351 -186.5q-469 -1 -469 741zM258 717q0 -424 110.5 -511t188.5 -87q156 0 228.5 144.5t72.5 453.5q0 436 -108.5 517t-192.5 81q-154 0 -226.5 -145.5t-72.5 -452.5z" />
    <glyph glyph-name="one" unicode="1" 
d="M221 152h287v991l20 121l-82 -97l-225 -161l-78 104l451 348h74v-1306h280v-152h-727v152z" />
    <glyph glyph-name="two" unicode="2" 
d="M547 1458q172 0 269 -97t97 -253q0 -280 -184 -532t-264 -351l-100 -88v-8l131 23h446v-152h-815v59q463 483 539.5 709.5t76.5 319.5t-57 160t-186 67t-267 -105l-67 117q155 131 381 131z" />
    <glyph glyph-name="three" unicode="3" 
d="M803 422q0 137 -85 206.5t-235 69.5h-151v60l295 454l94 91l-133 -21h-406v152h731v-60l-325 -489l-72 -60v-4l70 15q168 -4 274.5 -112.5t106.5 -304.5t-140.5 -320t-351.5 -124q-168 0 -295 52l43 145q109 -53 255 -53t235.5 83t89.5 220z" />
    <glyph glyph-name="four" unicode="4" 
d="M1073 440h-242v-440h-159v440h-631v68l680 948h110v-872h242v-144zM672 584v446l20 168h-6l-72 -139l-288 -391l-99 -101l144 17h301z" />
    <glyph glyph-name="five" unicode="5" 
d="M762 436q0 152 -91 225.5t-251 73.5l-172 -10v709h639v-152h-486v-408l88 5q203 -2 320 -113t117 -326t-140 -340t-354 -125q-161 0 -274 41l43 140q97 -37 237 -37t232 82.5t92 234.5z" />
    <glyph glyph-name="six" unicode="6" 
d="M123 461q0 223 52 394t144.5 298t218.5 206t273 99l35 -131q-221 -39 -369 -213.5t-182 -408.5q33 55 110.5 101t190.5 46q193 0 302.5 -110.5t109.5 -307.5t-115 -328t-321 -131t-327.5 131.5t-121.5 354.5zM838 416q0 293 -277 293q-100 0 -173 -49.5t-101 -110.5
q-4 -29 -4 -33v-55q0 -225 108.5 -283.5t174.5 -58.5q123 0 197.5 83t74.5 214z" />
    <glyph glyph-name="seven" unicode="7" 
d="M125 1282v152h856v-56l-590 -1378h-166l514 1200l90 100l-120 -18h-584z" />
    <glyph glyph-name="eight" unicode="8" 
d="M172 1100q0 162 109.5 260t284.5 98t276.5 -91t101.5 -221t-53 -219t-176 -175q191 -112 226.5 -210t35.5 -178q0 -172 -116 -280.5t-309 -108.5t-303 103.5t-110 247.5t67.5 240t211.5 173q-117 71 -181.5 152.5t-64.5 208.5zM299 376q0 -120 68.5 -188.5t182.5 -68.5
t190.5 62.5t76.5 175t-74 183t-213 142.5q-125 -70 -178 -156t-53 -150zM784 1108q0 94 -65 150.5t-137 56.5t-115 -18.5t-89 -61t-46 -139.5t75 -165t197 -128q92 72 136 141.5t44 163.5z" />
    <glyph glyph-name="nine" unicode="9" 
d="M548 1458q212 0 328.5 -135t116.5 -373q0 -450 -187 -692.5t-501 -282.5l-37 131q235 36 375.5 196t173.5 396q-55 -66 -122 -91t-163 -25t-170.5 27.5t-165 111t-90.5 281.5t115 327t327 129zM276 1014q0 -143 77 -216t189 -73t184.5 33t102.5 86q5 34 5 99
q0 148 -73 260t-209 112t-206 -79t-70 -222z" />
    <glyph glyph-name="colon" unicode=":" horiz-adv-x="448" 
d="M186 921q0 54 32 85.5t86 31.5t87 -31.5t33 -85.5t-33 -87t-87 -33t-86 33t-32 87zM186 95q0 54 32 86t86 32t87 -31.5t33 -85.5t-33 -87.5t-87 -33.5t-86 33t-32 87z" />
    <glyph glyph-name="semicolon" unicode=";" horiz-adv-x="524" 
d="M182 86q0 51 33 82t90 31t97 -45t40 -125q0 -141 -67.5 -224t-155.5 -110l-51 80q74 29 109.5 89t35.5 122q-19 -6 -47 -6t-56 27.5t-28 78.5zM197 921q0 54 31.5 85.5t85.5 31.5t87 -31.5t33 -85.5t-33 -87t-87 -33t-85.5 33t-31.5 87z" />
    <glyph glyph-name="less" unicode="&#x3c;" horiz-adv-x="1034" 
d="M86 625v59l774 473l78 -127l-485 -297l-187 -78l185 -65l497 -295l-78 -123z" />
    <glyph glyph-name="equal" unicode="=" horiz-adv-x="1034" 
d="M82 936h868v-148h-868v148zM82 596h868v-147h-868v147z" />
    <glyph glyph-name="greater" unicode="&#x3e;" horiz-adv-x="1034" 
d="M948 705v-60l-774 -473l-78 125l486 297l186 78l-184 65l-498 295l78 125z" />
    <glyph glyph-name="question" unicode="?" horiz-adv-x="892" 
d="M436 1458q192 0 286.5 -92.5t94.5 -244.5t-69.5 -245.5t-117.5 -142.5t-118 -140t-70 -231h-135q-2 10 -2 13v33q0 189 138 336.5t171 217.5t33 152t-54 141.5t-190 59.5t-272 -86l-55 127q168 102 360 102zM266 95q0 54 32 86t86 32t87 -31.5t33 -85.5t-33 -87.5
t-87 -33.5t-86 33t-32 87z" />
    <glyph glyph-name="at" unicode="@" horiz-adv-x="2179" 
d="M1249 182q0 38 8 86h-8q-106 -172 -208.5 -216t-156.5 -44q-111 0 -180 87t-69 220t43 260t115.5 225.5t170 159t189.5 60.5t137 -22.5t88 -55.5l70 64h70l-105 -588q-20 -106 -20 -164t17.5 -81t73.5 -23t124.5 36.5t155.5 146.5t87 335q0 308 -199.5 479.5
t-525.5 171.5q-166 0 -312 -61.5t-253.5 -170t-170 -260t-62.5 -331.5q0 -361 214.5 -563.5t575.5 -202.5q159 0 273 57l41 -131q-156 -66 -342 -66t-353.5 57.5t-291 170t-195.5 279.5t-72 388t77 401.5t208 307.5t305 195.5t364 68.5q381 0 625 -213.5t244 -576.5
q0 -131 -45 -251t-122 -210t-179.5 -144.5t-202.5 -54.5t-151.5 37t-51.5 137zM1160 877q-66 0 -136 -48.5t-149.5 -170t-79.5 -314.5q0 -80 32.5 -136t118.5 -56q117 0 205 130t119 189l61 334q-35 41 -70 56.5t-101 15.5z" />
    <glyph glyph-name="A" unicode="A" horiz-adv-x="1198" 
d="M856 397h-528l-144 -397h-168l543 1456h78l545 -1456h-178zM383 545h422l-160 436l-51 217h-2l-51 -221z" />
    <glyph glyph-name="B" unicode="B" horiz-adv-x="1196" 
d="M503 1450q146 0 229 -13.5t194.5 -75.5t111.5 -255q0 -113 -68.5 -208.5t-201.5 -129.5v-8q212 -35 262.5 -151.5t50.5 -214.5t-46 -178.5t-156.5 -156t-331.5 -75.5h-136q-136 0 -237 26v1411q183 29 329 29zM901 395q0 264 -379 264h-178v-514q49 -14 167 -14
t179.5 15.5t136 68.5t74.5 180zM508 1303q-102 0 -164 -13v-487h107q101 0 165 8q242 79 242 269q0 115 -87.5 169t-262.5 54z" />
    <glyph glyph-name="C" unicode="C" horiz-adv-x="1169" 
d="M723 -25q-260 0 -434 187.5t-174 557.5t184 554t438 184q217 0 334 -49l-41 -149q-98 47 -284 47t-318.5 -142.5t-132.5 -437.5t134 -447.5t345 -152.5q170 0 277 66l41 -134q-109 -84 -369 -84z" />
    <glyph glyph-name="D" unicode="D" horiz-adv-x="1339" 
d="M557 1450q332 0 500 -195t168 -521t-169 -539t-519 -213q-101 0 -174.5 4t-120.5 6t-68 6v1436q104 16 383 16zM534 133q277 0 393.5 167t116.5 427q0 381 -171 476t-312 95h-73q-74 0 -144 -10v-1147q40 -8 190 -8z" />
    <glyph glyph-name="E" unicode="E" horiz-adv-x="1097" 
d="M174 1434h780v-152h-610v-469h559v-151h-559v-510h621v-152h-791v1434z" />
    <glyph glyph-name="F" unicode="F" horiz-adv-x="1058" 
d="M174 1434h780v-152h-610v-489h569v-152h-569v-641h-170v1434z" />
    <glyph glyph-name="G" unicode="G" horiz-adv-x="1253" 
d="M657 715h482v-631q-101 -77 -221.5 -93t-174.5 -16q-285 0 -456.5 186.5t-171.5 556.5t192 555t451 185q219 0 338 -49l-43 -149q-98 47 -281 47q-315 0 -396 -212t-81 -371q0 -298 128 -447.5t347 -149.5q131 0 223 51v400l-336 40v97z" />
    <glyph glyph-name="H" unicode="H" horiz-adv-x="1376" 
d="M1032 657h-688v-657h-170v1434h170v-625h688v625h170v-1434h-170v657z" />
    <glyph glyph-name="I" unicode="I" horiz-adv-x="595" 
d="M213 1434h170v-1434h-170v1434z" />
    <glyph glyph-name="J" unicode="J" horiz-adv-x="595" 
d="M399 315q0 -335 -293 -335q-116 0 -176 32l33 146q57 -27 134 -27t104.5 60.5t27.5 164.5v1078h170v-1119z" />
    <glyph glyph-name="K" unicode="K" horiz-adv-x="1249" 
d="M344 664v-664h-170v1434h170v-668l92 29l482 639h196l-479 -617l-86 -67l104 -82l525 -668h-215l-523 664h-96z" />
    <glyph glyph-name="L" unicode="L" horiz-adv-x="1058" 
d="M1022 0h-848v1434h170v-1282h678v-152z" />
    <glyph glyph-name="M" unicode="M" horiz-adv-x="1619" 
d="M334 0h-160v1434h127l449 -734l67 -159h4l64 164l428 729h133v-1434h-170v963l20 215h-10l-78 -197l-372 -647h-52l-395 649l-74 195h-10l29 -213v-965z" />
    <glyph glyph-name="N" unicode="N" horiz-adv-x="1378" 
d="M334 0h-160v1456h90l686 -956l107 -197h10l-23 197v934h160v-1457h-90l-682 961l-110 207h-9l21 -207v-938z" />
    <glyph glyph-name="O" unicode="O" horiz-adv-x="1400" 
d="M705 1458q287 0 434 -196.5t147 -549.5t-152.5 -545t-437.5 -192t-433 196.5t-148 550.5t151.5 545t438.5 191zM693 127q195 0 304 144.5t109 445.5q0 399 -150.5 494.5t-257.5 95.5q-188 0 -295.5 -144.5t-107.5 -422.5t101.5 -445.5t296.5 -167.5z" />
    <glyph glyph-name="P" unicode="P" horiz-adv-x="1144" 
d="M461 1450q153 0 250.5 -18.5t227.5 -98t130 -323.5t-159 -358.5t-398 -114.5h-64q-64 0 -104 8v-545h-170v1419q134 31 287 31zM504 688q385 0 385 322q0 154 -106 223.5t-249 69.5t-190 -13v-594q20 -8 36 -8h124z" />
    <glyph glyph-name="Q" unicode="Q" horiz-adv-x="1400" 
d="M1252 -375q-103 0 -200.5 21.5t-188.5 47t-175 47t-146 21.5t-108 -12v150q68 14 132 14t149.5 -21.5t173.5 -47t180.5 -47t188.5 -21.5t184 20v-147q-87 -25 -190 -25zM705 1458q287 0 434 -196.5t147 -549.5t-152.5 -545t-437.5 -192t-433 196.5t-148 550.5t151.5 545
t438.5 191zM693 127q195 0 304 144.5t109 445.5q0 399 -150.5 494.5t-257.5 95.5q-188 0 -295.5 -144.5t-107.5 -422.5t101.5 -445.5t296.5 -167.5z" />
    <glyph glyph-name="R" unicode="R" horiz-adv-x="1218" 
d="M490 1450q143 0 228 -20.5t188.5 -96t103.5 -261.5t-92.5 -290t-233.5 -139l98 -76l357 -567h-199l-395 618l-201 31v-649h-170v1419q173 31 316 31zM543 1303h-77q-77 0 -122 -13v-528h160q141 0 233 69.5t92 217.5q0 111 -75.5 182.5t-210.5 71.5z" />
    <glyph glyph-name="S" unicode="S" horiz-adv-x="1087" 
d="M559 1307q-125 0 -192.5 -60.5t-67.5 -141.5t51 -134t128 -95t167 -83t218 -131.5t128 -279.5q0 -188 -130.5 -297.5t-372.5 -109.5t-394 76l58 154q47 -27 138.5 -52.5t183.5 -25.5t151 13.5t102 43t68.5 75t25.5 119.5t-51 127.5t-128 95.5t-167 79t-218 123.5
t-128 290.5q0 168 116.5 266t350.5 98t369 -65l-52 -150q-131 64 -354 64z" />
    <glyph glyph-name="T" unicode="T" horiz-adv-x="1136" 
d="M1100 1282h-447v-1282h-170v1282h-446v152h1063v-152z" />
    <glyph glyph-name="U" unicode="U" horiz-adv-x="1335" 
d="M686 -18q-512 0 -512 462v990h170v-910q0 -309 129 -350t215 -41q166 0 237.5 91t71.5 300v910h164v-957q0 -376 -184 -435.5t-291 -59.5z" />
    <glyph glyph-name="V" unicode="V" horiz-adv-x="1163" 
d="M547 449l49 -218h2l53 222l346 981h170l-542 -1457h-76l-553 1457h186z" />
    <glyph glyph-name="W" unicode="W" horiz-adv-x="1695" 
d="M455 473l32 -237h2l35 241l295 957h82l297 -961l35 -237h2l37 241l241 957h166l-399 -1457h-94l-291 961l-37 217h-10l-37 -219l-291 -959h-94l-410 1457h181z" />
    <glyph glyph-name="X" unicode="X" horiz-adv-x="1265" 
d="M530 729l-436 705h205l291 -486l51 -117l49 117l307 486h189l-451 -691l471 -743h-198l-324 514l-55 123l-54 -123l-331 -514h-191z" />
    <glyph glyph-name="Y" unicode="Y" horiz-adv-x="1142" 
d="M659 0h-170v569l-473 865h199l336 -627l35 -125h2l37 129l321 623h182l-469 -863v-571z" />
    <glyph glyph-name="Z" unicode="Z" 
d="M78 1282v152h962v-154l-727 -1053l-86 -75h813v-152h-962v154l723 1046l86 82h-809z" />
    <glyph glyph-name="bracketleft" unicode="[" horiz-adv-x="622" 
d="M174 1434h371v-144h-211v-1618h211v-143h-371v1905z" />
    <glyph glyph-name="backslash" unicode="\" horiz-adv-x="778" 
d="M817 -227l-135 -60l-758 1688l137 57z" />
    <glyph glyph-name="bracketright" unicode="]" horiz-adv-x="622" 
d="M451 -471h-373v143h213v1618h-213v144h373v-1905z" />
    <glyph glyph-name="asciicircum" unicode="^" horiz-adv-x="1024" 
d="M479 1456h60l346 -565h-168l-164 276l-47 142l-64 -144l-188 -274h-156z" />
    <glyph glyph-name="underscore" unicode="_" horiz-adv-x="835" 
d="M0 -276h836v-144h-836v144z" />
    <glyph glyph-name="grave" unicode="`" horiz-adv-x="573" 
d="M123 1475h194l134 -306h-93l-235 263v43z" />
    <glyph glyph-name="a" unicode="a" horiz-adv-x="1015" 
d="M539 1040q193 0 259 -89.5t66 -225.5l-12 -461q0 -171 29 -268h-121l-43 143h-10q-64 -103 -159 -129t-194.5 -26t-186.5 79.5t-87 210.5q0 248 196.5 281t267.5 33h63q63 0 91 -4q6 61 7 110q0 113 -45.5 158t-161.5 45t-196.5 -27.5t-108.5 -44.5l-52 123
q153 92 398 92zM582 463q-332 0 -332 -172q0 -72 51 -118t119 -46q117 0 186 50t92 112v170q-58 4 -116 4z" />
    <glyph glyph-name="b" unicode="b" horiz-adv-x="1105" 
d="M618 1049q388 0 388 -521q0 -268 -131.5 -407t-368.5 -139q-115 0 -208 24.5t-140 52.5v1375h164v-510h8q99 125 288 125zM836 530q0 263 -93 319t-163 56q-200 0 -258 -219v-516q76 -45 212 -45t219 98.5t83 306.5z" />
    <glyph glyph-name="c" unicode="c" horiz-adv-x="923" 
d="M100 512q0 260 115 398.5t330 138.5q175 0 291 -60l-48 -141q-99 57 -227 57q-291 0 -291 -393q0 -270 109.5 -331.5t195.5 -61.5q134 0 228 74l53 -125q-126 -93 -321 -93q-435 0 -435 537z" />
    <glyph glyph-name="d" unicode="d" horiz-adv-x="1101" 
d="M565 1042q119 0 215 -34v426h164v-1082q0 -104 2 -189t19 -167h-111l-41 145h-8q-41 -72 -119 -119t-182 -47q-205 0 -304.5 129.5t-99.5 397.5t124 404t341 136zM270 508q0 -389 260 -389q207 0 250 219v508q-68 53 -209 53t-221 -93t-80 -298z" />
    <glyph glyph-name="e" unicode="e" horiz-adv-x="1040" 
d="M100 518q0 256 117 393.5t334 137.5q169 0 279 -86t110 -318q0 -68 -12 -149h-658q0 -279 120 -328t200 -49t149.5 24.5t104.5 57.5l61 -119q-133 -107 -357 -107t-336 143.5t-112 399.5zM547 905q-115 0 -187.5 -63.5t-87.5 -216.5h508q0 156 -59 218t-174 62z" />
    <glyph glyph-name="f" unicode="f" horiz-adv-x="653" 
d="M533 1303q-72 0 -102 -16.5t-46 -56t-16 -177.5v-29h272v-143h-272v-881h-164v881h-160v143h160v57q0 194 66.5 279.5t210.5 85.5t237 -39l-37 -137q-77 33 -149 33z" />
    <glyph glyph-name="g" unicode="g" horiz-adv-x="1099" 
d="M393.5 -23q-293.5 0 -293.5 396.5t125 532.5t369 136q189 0 348 -61v-1028q0 -199 -105.5 -293t-310.5 -94t-327 55l43 139q47 -18 103.5 -34.5t146.5 -16.5q169 0 228.5 64.5t59.5 228.5v98h-8q-85 -123 -378.5 -123zM270 510q0 -389 260 -389q104 0 164 52t84 163v524
q-82 39 -215 39t-213 -94t-80 -295z" />
    <glyph glyph-name="h" unicode="h" horiz-adv-x="1120" 
d="M636 1049q188 0 265.5 -92t77.5 -339v-618h-164v584q0 171 -45.5 246t-157.5 75t-190 -62.5t-100 -160.5v-682h-164v1434h164v-525h8q118 140 306 140z" />
    <glyph glyph-name="i" unicode="i" horiz-adv-x="548" 
d="M193 1024h163v-1024h-163v1024zM158 1335q0 47 31.5 81t80.5 34t84 -34t35 -81t-35 -77.5t-84 -30.5t-80.5 30.5t-31.5 77.5z" />
    <glyph glyph-name="j" unicode="j" horiz-adv-x="546" 
d="M80 -434q-28 0 -62 4v139q108 0 140 64.5t32 232.5v1018h164v-1079q0 -190 -65.5 -284.5t-208.5 -94.5zM156 1335q0 47 31.5 81t80.5 34t84 -34t35 -81t-35 -77.5t-84 -30.5t-80.5 30.5t-31.5 77.5z" />
    <glyph glyph-name="k" unicode="k" horiz-adv-x="980" 
d="M322 461v-461h-164v1434h164v-873l84 29l317 434h190l-313 -412l-84 -67l102 -82l343 -463h-203l-342 461h-94z" />
    <glyph glyph-name="l" unicode="l" horiz-adv-x="598" 
d="M434 119q66 0 127 22l19 -129q-33 -16 -91.5 -26.5t-101.5 -10.5q-92 0 -151.5 52.5t-59.5 177.5v1229h164v-1182q0 -133 94 -133z" />
    <glyph glyph-name="m" unicode="m" horiz-adv-x="1662" 
d="M922 0h-164v580q0 172 -28 228t-65.5 76.5t-115.5 20.5t-140.5 -57t-86.5 -143v-705h-164v1024h114l31 -125h8q55 66 128 108t181 42t170 -38t97 -132q47 80 130 125t178 45t154.5 -19.5t116 -91t56.5 -324.5v-614h-164v616q0 158 -39.5 223.5t-155.5 65.5
q-191 0 -241 -221v-684z" />
    <glyph glyph-name="n" unicode="n" horiz-adv-x="1120" 
d="M815 0v584q0 160 -46 240.5t-162 80.5t-186.5 -58.5t-98.5 -146.5v-700h-164v1024h114l31 -125h8q49 66 132 108t183 42t226.5 -39t126.5 -392v-618h-164z" />
    <glyph glyph-name="o" unicode="o" horiz-adv-x="1097" 
d="M100 512q0 260 116 398.5t338 138.5t332.5 -142.5t110.5 -398.5t-115.5 -394.5t-332.5 -138.5q-336 0 -392.5 208t-56.5 329zM270 512q0 -269 101.5 -331t177.5 -62q279 -2 278 393q0 273 -101 333t-177 60q-279 2 -279 -393z" />
    <glyph glyph-name="p" unicode="p" horiz-adv-x="1107" 
d="M530 -25q-113 0 -208 41v-426h-164v1434h112l31 -123h8q97 148 297 148t301 -121t101 -386t-129 -416t-349 -151zM838 535q0 370 -267 370q-202 0 -249 -219v-508q75 -59 212 -59t220.5 105.5t83.5 310.5z" />
    <glyph glyph-name="q" unicode="q" horiz-adv-x="1099" 
d="M100 508q0 264 127 399t371 135q109 0 204 -20.5t140 -42.5v-1389h-164v512h-8q-85 -127 -279 -127q-391 0 -391 533zM270 510q0 -391 260 -391q104 0 164 53t84 164v524q-76 39 -213 39t-216 -95t-79 -294z" />
    <glyph glyph-name="r" unicode="r" horiz-adv-x="696" 
d="M530 1044q72 0 146 -20l-35 -158q-61 20 -133 20t-123 -47.5t-63 -121.5v-717h-164v1024h114l31 -125h8q81 145 219 145z" />
    <glyph glyph-name="s" unicode="s" horiz-adv-x="862" 
d="M411 119q197 0 197 160q0 61 -36.5 96t-91 58.5t-119 45t-155.5 77.5t-91 205q0 288 317 288q179 0 316 -66l-39 -135q-116 57 -231 57t-157 -30.5t-42 -94.5t36.5 -94.5t91 -54t119 -46t155.5 -85t91 -215.5q0 -214 -133 -262t-237 -48q-188 0 -322 76l49 139
q124 -71 282 -71z" />
    <glyph glyph-name="t" unicode="t" horiz-adv-x="694" 
d="M182 283v598h-159v143h159v203l164 47v-250h279v-143h-279v-568q0 -106 26.5 -150t95.5 -44t167 41l37 -125q-122 -60 -254 -60t-184 71t-52 237z" />
    <glyph glyph-name="u" unicode="u" horiz-adv-x="1103" 
d="M141 406v618h164v-584q0 -166 43.5 -243.5t157.5 -77.5q148 0 204 88t72 133v684h164v-733q0 -187 23 -291h-113l-41 162h-10q-110 -187 -330 -187q-174 0 -254 94.5t-80 336.5z" />
    <glyph glyph-name="v" unicode="v" horiz-adv-x="987" 
d="M453 424l57 -195h2l51 199l230 596h176l-437 -1047h-69l-445 1047h189z" />
    <glyph glyph-name="w" unicode="w" horiz-adv-x="1505" 
d="M821 1024l236 -598l51 -197h4l39 201l182 594h156l-344 -1047h-80l-268 676l-39 168h-6l-41 -170l-258 -674h-80l-357 1047h179l202 -596l35 -199h2l49 203l219 592h119z" />
    <glyph glyph-name="x" unicode="x" horiz-adv-x="1054" 
d="M426 524l-344 500h201l194 -283l58 -116l59 116l199 283h184l-346 -492l366 -532h-194l-217 311l-62 123l-63 -123l-221 -311h-183z" />
    <glyph glyph-name="y" unicode="y" horiz-adv-x="954" 
d="M276 -420q-70 0 -118 21l28 141q27 -10 52 -10q57 0 110 60.5t88 207.5l-411 1024h188l246 -664l57 -196h10l45 198l199 662h166l-303 -920q-35 -100 -69 -194t-74.5 -168t-92 -118t-121.5 -44z" />
    <glyph glyph-name="z" unicode="z" horiz-adv-x="915" 
d="M86 881v143h729v-143l-477 -658l-84 -80h561v-143h-729v143l473 652l86 86h-559z" />
    <glyph glyph-name="braceleft" unicode="{" horiz-adv-x="708" 
d="M117 553q164 0 164 172v496q0 96 48 155.5t146 59.5h174v-144h-102q-55 0 -81 -27.5t-26 -93.5v-485q0 -90 -43 -137t-100 -57v-13q55 -8 99 -62.5t44 -140.5v-483q0 -63 24.5 -92t84.5 -29h100v-143h-174q-92 0 -143 54.5t-51 158.5v487q0 104 -43 142.5t-121 38.5v143z
" />
    <glyph glyph-name="bar" unicode="|" horiz-adv-x="487" 
d="M174 1434h139v-1700h-139v1700z" />
    <glyph glyph-name="braceright" unicode="}" horiz-adv-x="708" 
d="M645 412q-164 0 -164 -172v-496q0 -96 -48 -155.5t-146 -59.5h-174v143h102q55 0 81 28t26 93v486q0 90 42 137t99 57v12q-55 8 -98 62.5t-43 140.5v483q0 63 -25 92t-82 29h-102v144h176q90 0 141 -54.5t51 -158.5v-488q0 -104 43 -142t121 -38v-143z" />
    <glyph glyph-name="asciitilde" unicode="~" horiz-adv-x="1034" 
d="M354 860q83 0 164.5 -39t124.5 -56t90 -17q84 0 168 73l70 -125q-141 -96 -237 -96t-172.5 39t-118.5 56.5t-91 17.5q-100 0 -219 -97l-70 123q157 121 291 121z" />
    <glyph glyph-name="uni00A0" unicode="&#xa0;" horiz-adv-x="546" 
 />
    <glyph glyph-name="exclamdown" unicode="&#xa1;" horiz-adv-x="622" 
d="M360 -410h-170v711l35 361h101l34 -361v-711zM158 929q0 54 31.5 86t85.5 32t87 -32t33 -86t-32.5 -87t-86.5 -33t-86 33t-32 87z" />
    <glyph glyph-name="cent" unicode="&#xa2;" 
d="M698 -205h-145v185q-375 37 -375 532q0 236 97.5 372t277.5 158v187h145v-182q128 -7 228 -58l-47 -139q-93 45 -195 53v-784q121 7 207 74l53 -125q-97 -69 -246 -86v-187zM348 512q0 -232 81 -301.5t144 -83.5v772q-225 -43 -225 -387z" />
    <glyph glyph-name="sterling" unicode="&#xa3;" 
d="M102 641v143h136q-58 123 -58 267q0 201 115 304t330 103t352 -65l-53 -146q-123 60 -318 60q-123 0 -189.5 -66.5t-66.5 -189.5t70 -267h330v-143h-269q37 -109 37 -234.5t-74 -207.5l-79 -68v-8l127 29h524v-152h-914v147q120 0 183 80t63 192t-47 222h-199z" />
    <glyph glyph-name="currency" unicode="&#xa4;" 
d="M207 699q0 115 63 219l-69 43l-158 159l100 101l160 -158l43 -72q86 68 209 68t213 -68l45 72l160 158l100 -101l-158 -159l-71 -46q66 -87 66 -209t-66 -210l71 -43l158 -160l-100 -98l-160 157l-43 68q-88 -64 -214 -64t-210 64l-43 -68l-160 -157l-100 98l158 160
l69 45q-63 86 -63 201zM348 706.5q0 -92.5 58.5 -153.5t150.5 -61t151.5 61t59.5 153.5t-59.5 155t-151.5 62.5t-150.5 -62.5t-58.5 -155z" />
    <glyph glyph-name="yen" unicode="&#xa5;" 
d="M227 672h193l-416 762h199l336 -627l34 -125h2l37 129l322 623h182l-416 -762h197v-123h-250v-146h250v-122h-250v-281h-170v281h-250v122h250v146h-250v123z" />
    <glyph glyph-name="brokenbar" unicode="&#xa6;" horiz-adv-x="487" 
d="M174 422h139v-688h-139v688zM313 745h-139v689h139v-689z" />
    <glyph glyph-name="section" unicode="&#xa7;" horiz-adv-x="1017" 
d="M662 234q0 60 -40 90t-101.5 52.5t-131.5 45t-171 82t-101 219.5q0 128 116 231l84 29q-53 33 -88.5 83t-35.5 150t84.5 171t216.5 71q205 0 340 -63l-39 -138q-124 58 -237 58q-202 0 -202 -121q0 -53 40 -83t101.5 -52.5t131 -45t171 -81t101.5 -221.5
q0 -130 -115 -230l-92 -28q131 -79 131 -211t-90.5 -199.5t-218.5 -67.5t-202 19.5t-132 48.5l41 133q116 -57 230 -57t161.5 27.5t47.5 87.5zM737 716q0 42 -26.5 74.5t-70.5 56t-99.5 41t-110.5 38.5q-59 -27 -104 -76.5t-45 -111.5t26.5 -95t68.5 -56.5t96 -40t110 -36.5
q59 24 94 64t48 70t13 72z" />
    <glyph glyph-name="dieresis" unicode="&#xa8;" horiz-adv-x="841" 
d="M123 1339q0 45 27.5 74t72.5 29t73 -29t28 -74t-28 -73.5t-73 -28.5t-72.5 28.5t-27.5 73.5zM516 1339q0 45 27.5 74t73.5 29t74 -29t28 -74t-27.5 -73.5t-73.5 -28.5t-74 28.5t-28 73.5z" />
    <glyph glyph-name="copyright" unicode="&#xa9;" horiz-adv-x="1650" 
d="M825.5 1315q305.5 0 513 -195t207.5 -526t-207.5 -526t-525.5 -195t-513.5 192t-195.5 525.5t208 529t513.5 195.5zM248 594q0 -141 45 -251t123 -183.5t183.5 -112.5t226 -39t226 39t183.5 112.5t123 183.5t45 251t-45 250.5t-123 183.5t-183.5 113t-226 39t-226 -39
t-183.5 -113t-123 -183.5t-45 -250.5zM481 597q0 183 93.5 284.5t246.5 101.5q97 0 147 -21.5t81 -33.5l-54 -125q-77 39 -159 39t-136.5 -53.5t-54.5 -183.5q0 -257 211 -261q96 0 164 37l43 -121q-96 -55 -252 -55t-243 104.5t-87 287.5z" />
    <glyph glyph-name="ordfeminine" unicode="&#xaa;" horiz-adv-x="790" 
d="M461 1450q127 0 174 -53.5t47 -153.5l-6 -287q0 -116 16 -178h-112l-27 94h-8q-79 -102 -199 -102t-184 52t-64 129t59 159t330 82l56 -2q2 12 2 15v30q0 55 -24.5 77.5t-94.5 22.5q-161 0 -256 -51l-31 102q121 64 322 64zM354 885q139 0 189 112v86q-23 2 -28 2h-58
q-156 0 -185.5 -37.5t-29.5 -75.5t29.5 -62.5t82.5 -24.5z" />
    <glyph glyph-name="guillemotleft" unicode="&#xab;" horiz-adv-x="978" 
d="M455 530l323 467l109 -86l-199 -295l-98 -84l98 -73l211 -289l-106 -88zM80 530l328 471l110 -88l-201 -297l-98 -84l98 -73l213 -291l-110 -90z" />
    <glyph glyph-name="logicalnot" unicode="&#xac;" horiz-adv-x="1034" 
d="M84 803h868v-393h-147v245h-721v148z" />
    <glyph glyph-name="uni00AD" unicode="&#xad;" horiz-adv-x="737" 
d="M119 666h499v-152h-499v152z" />
    <glyph glyph-name="registered" unicode="&#xae;" horiz-adv-x="1433" 
d="M720 1466q232 0 386 -143.5t154 -398.5t-157.5 -399t-388.5 -144t-385.5 143.5t-154.5 398.5t157 399t389 144zM720 502q182 0 296 107t114 313t-119 315t-299 109t-294.5 -108.5t-114.5 -313t117.5 -313.5t299.5 -109zM684 1210q236 0 236 -148q0 -77 -42 -112t-104 -39
l57 -28l152 -224h-125l-147 213l-99 31v-244h-106v531q65 20 178 20zM688 1118q-59 0 -76 -8v-145h70q59 0 92 18t33 64q0 71 -119 71z" />
    <glyph glyph-name="macron" unicode="&#xaf;" horiz-adv-x="851" 
d="M123 1317h606v-127h-606v127z" />
    <glyph glyph-name="degree" unicode="&#xb0;" horiz-adv-x="870" 
d="M174 1166q0 66 22.5 119.5t61.5 91.5t92 59.5t112.5 21.5t113 -19.5t92.5 -57.5t61.5 -91t22.5 -120.5t-22.5 -121t-61.5 -91t-92.5 -57t-113 -19.5t-112.5 19.5t-92 57t-61.5 90t-22.5 118.5zM303 1169.5q0 -77.5 48 -121.5t111.5 -44t112 44t48.5 121.5t-48.5 121.5
t-112 44t-111.5 -44t-48 -121.5z" />
    <glyph glyph-name="plusminus" unicode="&#xb1;" horiz-adv-x="1034" 
d="M82 1010h360v370h148v-370h360v-148h-360v-246h-148v246h-360v148zM82 512h868v-147h-868v147z" />
    <glyph glyph-name="twosuperior" unicode="&#xb2;" horiz-adv-x="806" 
d="M510 1392q0 130 -161 130q-79 0 -179 -64l-45 117q109 75 253 77t210 -62t65 -177q0 -162 -164 -353q-49 -56 -104 -114l-94 -65v-4l117 30h286v-129h-596v68q256 213 366 401q46 79 46 145z" />
    <glyph glyph-name="threesuperior" unicode="&#xb3;" horiz-adv-x="806" 
d="M346 887q203 0 203 153q0 66 -47 107t-152 41h-112v47l198 238l70 55l-100 -12h-267v122h525v-67l-211 -252l-52 -37v-4l48 6q113 -2 179 -68t65 -183t-92 -193t-224 -76t-240 39l31 123q85 -39 178 -39z" />
    <glyph glyph-name="acute" unicode="&#xb4;" horiz-adv-x="548" 
d="M426 1475v-43l-207 -263h-96l121 306h182z" />
    <glyph glyph-name="mu" unicode="&#xb5;" horiz-adv-x="1130" 
d="M991 334q0 -216 31 -334h-113l-57 152h-8q-41 -72 -126.5 -124.5t-195.5 -52.5t-162.5 29t-89.5 74h-10l43 -215v-273h-164v1434h164v-580q0 -162 50 -243.5t169 -81.5t197 66.5t108 174.5v664h164v-690z" />
    <glyph glyph-name="mu" unicode="&#x3bc;" horiz-adv-x="1130" 
d="M991 334q0 -216 31 -334h-113l-57 152h-8q-41 -72 -126.5 -124.5t-195.5 -52.5t-162.5 29t-89.5 74h-10l43 -215v-273h-164v1434h164v-580q0 -162 50 -243.5t169 -81.5t197 66.5t108 174.5v664h164v-690z" />
    <glyph glyph-name="paragraph" unicode="&#xb6;" horiz-adv-x="1011" 
d="M698 1434h140v-1700h-140v1700zM379 635q-129 0 -216 123t-87 281t96 276.5t254 118.5h92v-1700h-139v901z" />
    <glyph glyph-name="periodcentered" unicode="&#xb7;" horiz-adv-x="546" 
d="M156 607q0 54 31 86q32 32 86 32t87 -32t33 -86t-33 -87t-87 -33t-86 33q-31 33 -31 87z" />
    <glyph glyph-name="cedilla" unicode="&#xb8;" horiz-adv-x="587" 
d="M465 -250q0 -72 -65.5 -124t-184.5 -52q-44 0 -92 8l18 80q12 -2 15 -2h28q115 0 122 34t7 46q0 57 -176 76l99 184h116l-49 -88q86 -16 124 -53t38 -109z" />
    <glyph glyph-name="onesuperior" unicode="&#xb9;" horiz-adv-x="806" 
d="M147 903h218v520l14 74l-55 -57l-160 -97l-55 101l315 209h84v-750h194v-125h-555v125z" />
    <glyph glyph-name="ordmasculine" unicode="&#xba;" horiz-adv-x="815" 
d="M90 1108q0 94 24.5 159.5t66.5 108.5t100.5 62.5t126 19.5t126 -18.5t100.5 -59.5t66.5 -107.5t24.5 -162.5t-24.5 -162.5t-66.5 -107.5t-100.5 -59.5t-126 -18.5t-126 18.5t-100.5 59.5t-66.5 107.5t-24.5 160.5zM573 1190.5q0 148.5 -163 148.5q-80 0 -124 -48
t-44 -181q0 -229 166 -229q125 0 145 80.5t20 229z" />
    <glyph glyph-name="guillemotright" unicode="&#xbb;" horiz-adv-x="978" 
d="M526 549l-327 -467l-107 86l197 295l100 84l-100 74l-209 288l106 88zM899 549l-328 -471l-110 88l201 297l98 84l-98 74l-213 290l108 90z" />
    <glyph glyph-name="onequarter" unicode="&#xbc;" horiz-adv-x="1714" 
d="M510 1448v-875h-143v646l14 73l-57 -57l-160 -96l-55 100l315 209h86zM1632 197h-170v-197h-137v197h-418v75l463 619h92v-574h170v-120zM1325 317v263l12 100h-4l-45 -94l-160 -215l-67 -64l102 10h162zM1286 1460l107 -71l-998 -1414l-106 74z" />
    <glyph glyph-name="onehalf" unicode="&#xbd;" horiz-adv-x="1740" 
d="M510 1448v-875h-143v646l14 73l-57 -57l-160 -96l-55 100l315 209h86zM1344 874q274 0 274 -239q0 -109 -79 -240q-52 -83 -189 -227l-95 -66v-4l117 31h287v-129h-596v68q261 217 365 401q46 79 46 145t-40 98q-41 32 -101 31q-100 0 -198 -63l-45 117q111 77 254 77z
M1286 1460l107 -71l-998 -1414l-106 74z" />
    <glyph glyph-name="threequarters" unicode="&#xbe;" horiz-adv-x="1794" 
d="M365 682q202 0 202 154q0 66 -47 106t-151 41h-113v47l199 238l69 55l-100 -12h-266v123h524v-68l-211 -252l-51 -37v-4l47 6q113 -1 179 -67t66 -184t-92 -194q-91 -76 -224 -75.5t-240 39.5l30 123q85 -39 179 -39zM1712 197h-170v-197h-137v197h-418v75l463 619h92
v-574h170v-120zM1405 317v263l12 100h-4l-45 -94l-160 -215l-67 -64l102 10h162zM1366 1460l107 -71l-998 -1414l-106 74z" />
    <glyph glyph-name="questiondown" unicode="&#xbf;" horiz-adv-x="892" 
d="M456 -434q-192 0 -286 92.5t-94 244.5t69.5 245.5t117.5 142.5t118 140t70 231h135q2 -10 2 -13v-33q0 -189 -138 -336.5t-171 -217.5t-33 -152t54 -141.5t190 -59.5t272 86l55 -127q-169 -102 -361 -102zM391 931q0 54 32 86t86 32t87 -32t33 -86t-33 -87t-87 -33
t-86 33t-32 87z" />
    <glyph glyph-name="Agrave" unicode="&#xc0;" horiz-adv-x="1198" 
d="M276 1782h234l242 -242h-152l-324 199v43zM856 397h-528l-144 -397h-168l543 1456h78l545 -1456h-178zM383 545h422l-160 436l-51 217h-2l-51 -221z" />
    <glyph glyph-name="Aacute" unicode="&#xc1;" horiz-adv-x="1198" 
d="M911 1782v-43l-333 -199h-142l242 242h233zM856 397h-528l-144 -397h-168l543 1456h78l545 -1456h-178zM383 545h422l-160 436l-51 217h-2l-51 -221z" />
    <glyph glyph-name="Acircumflex" unicode="&#xc2;" horiz-adv-x="1198" 
d="M926 1530h-166l-123 100l-35 72l-39 -70l-131 -102h-162v45l273 207h123l260 -209v-43zM856 397h-528l-144 -397h-168l543 1456h78l545 -1456h-178zM383 545h422l-160 436l-51 217h-2l-51 -221z" />
    <glyph glyph-name="Atilde" unicode="&#xc3;" horiz-adv-x="1198" 
d="M731 1518q-58 0 -144 34t-144 34t-117 -62l-50 84q109 114 222 112q60 0 148 -34t134 -34q47 0 97 44l51 -88q-97 -90 -197 -90zM856 397h-528l-144 -397h-168l543 1456h78l545 -1456h-178zM383 545h422l-160 436l-51 217h-2l-51 -221z" />
    <glyph glyph-name="Adieresis" unicode="&#xc4;" horiz-adv-x="1198" 
d="M512 1627q0 -43 -30 -69t-78 -26t-78 26t-31 68q0 42 31 70q30 26 78 26t78 -26t30 -69zM796 1532q-48 0 -78 26t-30 68t30 70q30 26 78 26t78 -26t30 -69t-30 -69t-78 -26zM856 397h-528l-144 -397h-168l543 1456h78l545 -1456h-178zM383 545h422l-160 436l-51 217h-2
l-51 -221z" />
    <glyph glyph-name="Aring" unicode="&#xc5;" horiz-adv-x="1198" 
d="M385 1578q0 71 50.5 120t158.5 49q222 0 223 -174q0 -66 -41 -110t-121 -56l527 -1407h-178l-148 397h-528l-144 -397h-168l525 1407q-156 24 -156 171zM383 545h422l-160 436l-51 217h-2l-51 -221zM510 1575q0 -37 21.5 -60.5t67.5 -23.5t69.5 22.5t23.5 60.5
t-22.5 61.5t-68.5 23.5t-68.5 -23.5t-22.5 -60.5z" />
    <glyph glyph-name="AE" unicode="&#xc6;" horiz-adv-x="1732" 
d="M809 549v680h-8l-70 -211l-272 -469h350zM809 406h-438l-230 -406h-186l850 1434h784v-152h-610v-469h559v-151h-559v-510h620v-152h-790v406z" />
    <glyph glyph-name="Ccedilla" unicode="&#xc7;" horiz-adv-x="1169" 
d="M918 -250q0 -72 -66 -124t-184 -52q-43 0 -93 8l19 80q12 -2 14 -2h29q115 0 122 34t7 46q0 57 -176 76l86 164q-251 17 -406 201.5t-155 546.5t184 546t438 184q217 0 334 -49l-41 -149q-98 47 -284 47t-318.5 -142.5t-132.5 -437.5t134 -447.5t345 -152.5q170 0 277 66
l41 -134q-91 -71 -301 -82l-35 -65q86 -16 124 -53t38 -109z" />
    <glyph glyph-name="Egrave" unicode="&#xc8;" horiz-adv-x="1097" 
d="M193 1782h233l242 -242h-152l-323 199v43zM174 1434h780v-152h-610v-469h559v-151h-559v-510h621v-152h-791v1434z" />
    <glyph glyph-name="Eacute" unicode="&#xc9;" horiz-adv-x="1097" 
d="M909 1782v-43l-334 -199h-141l242 242h233zM174 1434h780v-152h-610v-469h559v-151h-559v-510h621v-152h-791v1434z" />
    <glyph glyph-name="Ecircumflex" unicode="&#xca;" horiz-adv-x="1097" 
d="M879 1530h-166l-123 100l-35 72l-39 -70l-131 -102h-162v45l273 207h122l261 -209v-43zM174 1434h780v-152h-610v-469h559v-151h-559v-510h621v-152h-791v1434z" />
    <glyph glyph-name="Edieresis" unicode="&#xcb;" horiz-adv-x="1097" 
d="M463 1627q0 -43 -30.5 -69t-78.5 -26t-78 26t-30 68t30 70q31 26 79 26t78 -26t30 -69zM856 1627q0 -43 -31 -69t-79 -26t-78 26t-30 68t30 70q30 26 78 26t79 -26t31 -69zM174 1434h780v-152h-610v-469h559v-151h-559v-510h621v-152h-791v1434z" />
    <glyph glyph-name="Igrave" unicode="&#xcc;" horiz-adv-x="595" 
d="M2 1782h234l241 -242h-151l-324 199v43zM213 1434h170v-1434h-170v1434z" />
    <glyph glyph-name="Iacute" unicode="&#xcd;" horiz-adv-x="595" 
d="M602 1782v-43l-334 -199h-141l242 242h233zM213 1434h170v-1434h-170v1434z" />
    <glyph glyph-name="Icircumflex" unicode="&#xce;" horiz-adv-x="595" 
d="M625 1530h-166l-123 100l-35 72l-39 -70l-131 -102h-162v45l273 207h123l260 -209v-43zM213 1434h170v-1434h-170v1434z" />
    <glyph glyph-name="Idieresis" unicode="&#xcf;" horiz-adv-x="595" 
d="M213.5 1627q-0.5 -43 -31 -69t-78.5 -26t-78 26t-30 68t31 70q31 26 79 26t78 -26t29.5 -69zM606 1627q0 -43 -31 -69t-79 -26t-78 26t-29 68q0 42 30 70q31 26 79 26t78 -26t30 -69zM213 1434h170v-1434h-170v1434z" />
    <glyph glyph-name="Eth" unicode="&#xd0;" horiz-adv-x="1347" 
d="M565 1450q332 0 500 -195t168 -521t-169 -539t-519 -213q-100 0 -174 4t-121 6t-68 6v682h-184v123h184v631q104 16 383 16zM542 133q276 0 393.5 167t117.5 427q0 380 -171.5 475.5t-312.5 95.5h-71q-71 0 -146 -10v-485h301v-123h-301v-539q40 -8 190 -8z" />
    <glyph glyph-name="Ntilde" unicode="&#xd1;" horiz-adv-x="1378" 
d="M821 1518q-55 0 -143 34t-145 34t-117 -62l-49 84q109 114 221 112q62 0 148 -34t133 -34q48 0 98 44l51 -88q-97 -90 -197 -90zM334 0h-160v1456h90l686 -956l107 -197h10l-23 197v934h160v-1457h-90l-682 961l-110 207h-9l21 -207v-938z" />
    <glyph glyph-name="Ograve" unicode="&#xd2;" horiz-adv-x="1400" 
d="M365 1782h233l242 -242h-152l-323 199v43zM706 1458q288 0 438 -204q142 -189 142 -542t-152 -545q-153 -191 -439 -191t-433 196t-147 550t151 545q152 191 440 191zM693 127.5q195 -0.5 304 143.5t109 422t-103 445.5t-298 167.5t-303 -144t-108 -421t102 -445
t297 -168.5z" />
    <glyph glyph-name="Oacute" unicode="&#xd3;" horiz-adv-x="1400" 
d="M1083 1782v-43l-333 -199h-142l242 242h233zM706 1458q288 0 438 -204q142 -189 142 -542t-152 -545q-153 -191 -439 -191t-433 196t-147 550t151 545q152 191 440 191zM693 127.5q195 -0.5 304 143.5t109 422t-103 445.5t-298 167.5t-303 -144t-108 -421t102 -445
t297 -168.5z" />
    <glyph glyph-name="Ocircumflex" unicode="&#xd4;" horiz-adv-x="1400" 
d="M1022 1530h-166l-123 100l-35 72l-39 -70l-131 -102h-161v45l272 207h123l260 -209v-43zM706 1458q288 0 438 -204q142 -189 142 -542t-152 -545q-153 -191 -439 -191t-433 196t-147 550t151 545q152 191 440 191zM693 127.5q195 -0.5 304 143.5t109 422t-103 445.5
t-298 167.5t-303 -144t-108 -421t102 -445t297 -168.5z" />
    <glyph glyph-name="Otilde" unicode="&#xd5;" horiz-adv-x="1400" 
d="M827 1518q-55 0 -143 34t-145 34t-117 -62l-49 84q109 114 221 112q62 0 148 -34t133 -34q48 0 98 44l51 -88q-97 -90 -197 -90zM706 1458q288 0 438 -204q142 -189 142 -542t-152 -545q-153 -191 -439 -191t-433 196t-147 550t151 545q152 191 440 191zM693 127.5
q195 -0.5 304 143.5t109 422t-103 445.5t-298 167.5t-303 -144t-108 -421t102 -445t297 -168.5z" />
    <glyph glyph-name="Odieresis" unicode="&#xd6;" horiz-adv-x="1400" 
d="M498 1532q-48 0 -78.5 26t-30.5 68t31 70q31 26 78.5 26t77.5 -26t30 -69t-30 -69t-78 -26zM890 1532q-48 0 -78 26t-30 68t30 70q30 26 78 26t79 -26t31 -69t-31 -69t-79 -26zM706 1458q288 0 438 -204q142 -189 142 -542t-152 -545q-153 -191 -439 -191t-433 196
t-147 550t151 545q152 191 440 191zM693 127.5q195 -0.5 304 143.5t109 422t-103 445.5t-298 167.5t-303 -144t-108 -421t102 -445t297 -168.5z" />
    <glyph glyph-name="multiply" unicode="&#xd7;" horiz-adv-x="1034" 
d="M260 1059l258 -260l260 260l105 -109l-258 -258l258 -260l-105 -106l-260 262l-260 -262l-106 104l262 264l-258 256z" />
    <glyph glyph-name="Oslash" unicode="&#xd8;" horiz-adv-x="1400" 
d="M115 725q0 350 151.5 541.5t431.5 191.5q226 0 367 -121l86 123l106 -71l-104 -148q133 -192 133 -537t-152.5 -537t-435.5 -192q-219 0 -358 115l-80 -115l-106 74l96 137q-135 189 -135 539zM685 1307q-175 0 -282.5 -144.5t-107.5 -445.5q0 -215 72 -367l594 842
q-101 115 -276 115zM1106 717q0 206 -70 358l-594 -842q98 -106 256 -106q190 0 299 144.5t109 445.5z" />
    <glyph glyph-name="Ugrave" unicode="&#xd9;" horiz-adv-x="1335" 
d="M358 1782h234l242 -242h-152l-324 199v43zM174 444v990h170v-910q0 -310 194 -370q65 -20 150 -21q166 0 238 91t71 300v910h164v-957q0 -375 -280 -467q-88 -29 -195 -28q-512 0 -512 462z" />
    <glyph glyph-name="Uacute" unicode="&#xda;" horiz-adv-x="1335" 
d="M1032 1782v-43l-334 -199h-141l242 242h233zM174 444v990h170v-910q0 -310 194 -370q65 -20 150 -21q166 0 238 91t71 300v910h164v-957q0 -375 -280 -467q-88 -29 -195 -28q-512 0 -512 462z" />
    <glyph glyph-name="Ucircumflex" unicode="&#xdb;" horiz-adv-x="1335" 
d="M999 1530h-165l-123 100l-35 72l-39 -70l-131 -102h-162v45l272 207h123l260 -209v-43zM174 444v990h170v-910q0 -310 194 -370q65 -20 150 -21q166 0 238 91t71 300v910h164v-957q0 -375 -280 -467q-88 -29 -195 -28q-512 0 -512 462z" />
    <glyph glyph-name="Udieresis" unicode="&#xdc;" horiz-adv-x="1335" 
d="M582 1627q0 -43 -30 -69t-78 -26t-78 26t-30 68t29 70q31 26 79 26t78 -26t30 -69zM975 1627q0 -43 -30.5 -69t-78.5 -26t-78 26t-30 68t29 70q30 26 78 26t79 -26t31 -69zM174 444v990h170v-910q0 -310 194 -370q65 -20 150 -21q166 0 238 91t71 300v910h164v-957
q0 -375 -280 -467q-88 -29 -195 -28q-512 0 -512 462z" />
    <glyph glyph-name="Yacute" unicode="&#xdd;" horiz-adv-x="1142" 
d="M961 1782v-43l-334 -199h-142l242 242h234zM659 0h-170v569l-473 865h199l336 -627l35 -125h2l37 129l321 623h182l-469 -863v-571z" />
    <glyph glyph-name="Thorn" unicode="&#xde;" horiz-adv-x="1144" 
d="M512 371h-64q-64 0 -104 8v-379h-170v1434h170v-154q86 6 178 6q227 0 387 -98t160 -342t-160 -359.5t-397 -115.5zM384 522h120q264 0 324.5 113t60.5 204q0 161 -105.5 230.5t-251.5 69.5t-188 -13v-594q25 -10 40 -10z" />
    <glyph glyph-name="germandbls" unicode="&#xdf;" horiz-adv-x="1212" 
d="M786 1136q0 78 -67.5 122.5t-132.5 44.5q-125 0 -171 -62.5t-46 -220.5v-1020h-164v881h-160v143h160v47q0 199 97 287t268 88t275.5 -83.5t104.5 -215.5q0 -78 -39 -125t-85 -84t-85 -72t-39 -83t31 -74.5t78 -47t178 -73t131 -262.5q0 -139 -99.5 -245t-268.5 -106
t-258 58l47 133q25 -12 58.5 -31.5t129.5 -19.5t161.5 56.5t65.5 132.5t-30.5 112.5t-77.5 61t-100.5 44t-131 68t-77.5 180.5q0 80 38.5 128t85 86t85 73t38.5 79z" />
    <glyph glyph-name="agrave" unicode="&#xe0;" horiz-adv-x="1015" 
d="M297 1475h195l133 -306h-93l-235 263v43zM387 -16q-66 0 -122 20q-113 40 -162 150q-23 54 -23 132q2 302 495 302q95 0 123 -4q6 61 7 110q1 113 -45 158t-166 45t-235 -42q-38 -13 -66 -30l-52 123q157 94 375 93t292 -104q56 -76 56 -212l-12 -461q0 -171 29 -268
h-121l-43 143h-10q-64 -103 -203 -141q-51 -14 -117 -14zM582 463q-332 0 -332 -172q0 -72 51 -118t119 -46q163 0 247 106q22 29 31 56v170q-58 4 -116 4z" />
    <glyph glyph-name="aacute" unicode="&#xe1;" horiz-adv-x="1015" 
d="M670 1475v-43l-207 -263h-96l120 306h183zM387 -16q-66 0 -122 20q-113 40 -162 150q-23 54 -23 132q2 302 495 302q95 0 123 -4q6 61 7 110q1 113 -45 158t-166 45t-235 -42q-38 -13 -66 -30l-52 123q157 94 375 93t292 -104q56 -76 56 -212l-12 -461q0 -171 29 -268
h-121l-43 143h-10q-64 -103 -203 -141q-51 -14 -117 -14zM582 463q-332 0 -332 -172q0 -72 51 -118t119 -46q163 0 247 106q22 29 31 56v170q-58 4 -116 4z" />
    <glyph glyph-name="acircumflex" unicode="&#xe2;" horiz-adv-x="1015" 
d="M489 1499h66l227 -373h-147l-80 136l-43 118l-45 -118l-92 -136h-137zM387 -16q-66 0 -122 20q-113 40 -162 150q-23 54 -23 132q2 302 495 302q95 0 123 -4q6 61 7 110q1 113 -45 158t-166 45t-235 -42q-38 -13 -66 -30l-52 123q157 94 375 93t292 -104q56 -76 56 -212
l-12 -461q0 -171 29 -268h-121l-43 143h-10q-64 -103 -203 -141q-51 -14 -117 -14zM582 463q-332 0 -332 -172q0 -72 51 -118t119 -46q163 0 247 106q22 29 31 56v170q-58 4 -116 4z" />
    <glyph glyph-name="atilde" unicode="&#xe3;" horiz-adv-x="1015" 
d="M660 1380q36 0 85 50l50 -89q-92 -102 -179 -102q-50 -1 -98 27t-75.5 42t-55.5 13q-55 0 -117 -64l-47 86q105 121 199 119q50 0 100 -28t76 -41t62 -13zM387 -16q-66 0 -122 20q-113 40 -162 150q-23 54 -23 132q2 302 495 302q95 0 123 -4q6 61 7 110q1 113 -45 158
t-166 45t-235 -42q-38 -13 -66 -30l-52 123q157 94 375 93t292 -104q56 -76 56 -212l-12 -461q0 -171 29 -268h-121l-43 143h-10q-64 -103 -203 -141q-51 -14 -117 -14zM582 463q-332 0 -332 -172q0 -72 51 -118t119 -46q163 0 247 106q22 29 31 56v170q-58 4 -116 4z" />
    <glyph glyph-name="adieresis" unicode="&#xe4;" horiz-adv-x="1015" 
d="M316 1442q44 0 72 -29t28 -74t-28 -73t-73 -28t-73 28t-27 73q0 45 28 74q29 29 73 29zM710 1442q46 0 74 -29t28 -74t-28 -73t-74 -28t-74 28t-28 73t28 74t74 29zM387 -16q-66 0 -122 20q-113 40 -162 150q-23 54 -23 132q2 302 495 302q95 0 123 -4q6 61 7 110
q1 113 -45 158t-166 45t-235 -42q-38 -13 -66 -30l-52 123q157 94 375 93t292 -104q56 -76 56 -212l-12 -461q0 -171 29 -268h-121l-43 143h-10q-64 -103 -203 -141q-51 -14 -117 -14zM582 463q-332 0 -332 -172q0 -72 51 -118t119 -46q163 0 247 106q22 29 31 56v170
q-58 4 -116 4z" />
    <glyph glyph-name="aring" unicode="&#xe5;" horiz-adv-x="1015" 
d="M510 1133q-86 0 -142 48t-57 135q1 87 55 137t142 50t145 -45t57 -133t-57 -140t-143 -52zM600 1317q0 45 -28 67t-62 21t-61 -21t-27 -64t27 -67t61 -22q90 0 90 86zM387 -16q-66 0 -122 20q-113 40 -162 150q-23 54 -23 132q2 302 495 302q95 0 123 -4q6 61 7 110
q1 113 -45 158t-166 45t-235 -42q-38 -13 -66 -30l-52 123q157 94 375 93t292 -104q56 -76 56 -212l-12 -461q0 -171 29 -268h-121l-43 143h-10q-64 -103 -203 -141q-51 -14 -117 -14zM582 463q-332 0 -332 -172q0 -72 51 -118t119 -46q163 0 247 106q22 29 31 56v170
q-58 4 -116 4z" />
    <glyph glyph-name="ae" unicode="&#xe6;" horiz-adv-x="1630" 
d="M582 463q-332 0 -332 -172q0 -72 51 -118t119 -46q117 0 186 50t92 112v170q-58 4 -116 4zM1132 -25q-114 0 -215.5 51.5t-150.5 145.5h-14q-137 -188 -365 -188q-133 0 -220 79.5t-87 210.5q0 248 196.5 281t267.5 33h63q63 0 91 -4q7 108 7 110q0 113 -45.5 159
t-161.5 45t-196.5 -28.5t-108.5 -44.5l-52 123q153 92 383 92t293 -133q53 74 143.5 108t170.5 34q180 0 289.5 -87.5t109.5 -320.5q0 -42 -10 -145h-662q0 -178 75 -277.5t255 -99.5q72 0 140.5 25.5t105.5 56.5l61 -119q-133 -107 -363 -107zM1134 905q-112 0 -186 -63.5
t-86 -216.5h508v24q0 139 -62 197.5t-174 58.5z" />
    <glyph glyph-name="ccedilla" unicode="&#xe7;" horiz-adv-x="923" 
d="M100 520q0 252 115 390.5t330 138.5q175 0 291 -60l-48 -141q-99 57 -227 57q-291 0 -291 -393q0 -272 109.5 -331.5t195.5 -59.5q136 0 228 72l53 -125q-100 -72 -248 -88l-37 -68q86 -16 124 -53t38 -109t-65.5 -124t-184.5 -52q-42 0 -92 8l19 80q12 -2 14 -2h29
q113 0 121 34t8 46q0 57 -176 76l86 161q-392 22 -392 543z" />
    <glyph glyph-name="egrave" unicode="&#xe8;" horiz-adv-x="1040" 
d="M348 1475h195l133 -306h-92l-236 263v43zM100 518q0 256 117 393t334 138q169 0 264 -74q125 -98 125 -330q0 -68 -12 -149h-658q0 -278 177 -352q63 -26 143 -26t150 25t104 58l61 -119q-133 -107 -357 -107q-224 -1 -336 143t-112 400zM547 905q-115 0 -188 -63
t-87 -217h508q0 156 -59 218t-174 62z" />
    <glyph glyph-name="eacute" unicode="&#xe9;" horiz-adv-x="1040" 
d="M778 1475v-43l-207 -263h-96l121 306h182zM100 518q0 256 117 393t334 138q169 0 264 -74q125 -98 125 -330q0 -68 -12 -149h-658q0 -278 177 -352q63 -26 143 -26t150 25t104 58l61 -119q-133 -107 -357 -107q-224 -1 -336 143t-112 400zM547 905q-115 0 -188 -63
t-87 -217h508q0 156 -59 218t-174 62z" />
    <glyph glyph-name="ecircumflex" unicode="&#xea;" horiz-adv-x="1040" 
d="M502 1499h65l228 -373h-148l-80 136l-43 118l-45 -118l-92 -136h-137zM100 518q0 256 117 393t334 138q169 0 264 -74q125 -98 125 -330q0 -68 -12 -149h-658q0 -278 177 -352q63 -26 143 -26t150 25t104 58l61 -119q-133 -107 -357 -107q-224 -1 -336 143t-112 400z
M547 905q-115 0 -188 -63t-87 -217h508q0 156 -59 218t-174 62z" />
    <glyph glyph-name="edieresis" unicode="&#xeb;" horiz-adv-x="1040" 
d="M244 1339q0 45 27 74q28 29 72.5 29t72.5 -29t28 -74t-28 -73t-72 -28t-72 28t-28 73zM840 1339q0 -45 -28 -73t-74 -28t-74 28t-27 73q-1 45 27 74t74 29t74 -29t28 -74zM100 518q0 256 117 393t334 138q169 0 264 -74q125 -98 125 -330q0 -68 -12 -149h-658
q0 -278 177 -352q63 -26 143 -26t150 25t104 58l61 -119q-133 -107 -357 -107q-224 -1 -336 143t-112 400zM547 905q-115 0 -188 -63t-87 -217h508q0 156 -59 218t-174 62z" />
    <glyph glyph-name="igrave" unicode="&#xec;" horiz-adv-x="548" 
d="M25 1475h194l133 -306h-92l-235 263v43zM193 1024h163v-1024h-163v1024z" />
    <glyph glyph-name="iacute" unicode="&#xed;" horiz-adv-x="548" 
d="M498 1475v-43l-207 -263h-96l120 306h183zM193 1024h163v-1024h-163v1024z" />
    <glyph glyph-name="icircumflex" unicode="&#xee;" horiz-adv-x="548" 
d="M248 1499h65l228 -373h-148l-80 136l-43 118l-45 -118l-92 -136h-137zM193 1024h163v-1024h-163v1024z" />
    <glyph glyph-name="idieresis" unicode="&#xef;" horiz-adv-x="548" 
d="M76 1442q44 0 72 -29t28 -74t-28 -73t-72 -28t-73 28q-28 28 -28 73t28.5 74t72.5 29zM470 1442q46 0 74 -29t28 -74t-28 -73t-74 -28t-74 28t-27 73q0 45 27 74q28 29 74 29zM193 1024h163v-1024h-163v1024z" />
    <glyph glyph-name="eth" unicode="&#xf0;" horiz-adv-x="1148" 
d="M1036 604q0 -313 -128 -471t-330 -158q-238 0 -350.5 151.5t-112.5 382.5t122.5 383t335.5 152q92 0 162 -28.5t99 -65.5q-46 150 -172 264l-156 -84l-55 91l116 63q-78 47 -155 66l71 110q135 -51 213 -106l140 76l53 -93l-103 -55q250 -240 250 -678zM586 119
q199 0 242.5 173.5t43.5 247.5q0 183 -14 240q-30 54 -107 87.5t-159 33.5q-156 0 -231.5 -107t-75.5 -295t84 -284t217 -96z" />
    <glyph glyph-name="ntilde" unicode="&#xf1;" horiz-adv-x="1120" 
d="M668 1239q-50 -1 -98 27t-76 42t-56 13q-56 0 -116 -64l-48 86q105 121 199 119q51 0 123 -40t112 -41t89 49l49 -89q-92 -102 -178 -102zM815 0v584q0 160 -46.5 240t-162.5 80t-186 -57.5t-98 -146.5v-700h-164v1024h114l31 -125h8q49 66 132 108.5t183 42.5t162 -20
q129 -40 169 -202q22 -83 22 -210v-618h-164z" />
    <glyph glyph-name="ograve" unicode="&#xf2;" horiz-adv-x="1097" 
d="M322 1475h194l133 -306h-92l-235 263v43zM100 512q0 260 116 398t333 139q336 0 422 -317q27 -99 26 -220q1 -260 -115 -398t-333 -139q-336 0 -422 317q-27 99 -27 220zM270 512q0 -267 150 -360q53 -33 129 -33q279 -2 278 393q0 271 -149 361q-53 32 -129 32
q-279 2 -279 -393z" />
    <glyph glyph-name="oacute" unicode="&#xf3;" horiz-adv-x="1097" 
d="M768 1475v-43l-207 -263h-96l121 306h182zM100 512q0 260 116 398t333 139q336 0 422 -317q27 -99 26 -220q1 -260 -115 -398t-333 -139q-336 0 -422 317q-27 99 -27 220zM270 512q0 -267 150 -360q53 -33 129 -33q279 -2 278 393q0 271 -149 361q-53 32 -129 32
q-279 2 -279 -393z" />
    <glyph glyph-name="ocircumflex" unicode="&#xf4;" horiz-adv-x="1097" 
d="M528 1499h66l227 -373h-147l-80 136l-43 118l-45 -118l-92 -136h-138zM100 512q0 260 116 398t333 139q336 0 422 -317q27 -99 26 -220q1 -260 -115 -398t-333 -139q-336 0 -422 317q-27 99 -27 220zM270 512q0 -267 150 -360q53 -33 129 -33q279 -2 278 393
q0 271 -149 361q-53 32 -129 32q-279 2 -279 -393z" />
    <glyph glyph-name="otilde" unicode="&#xf5;" horiz-adv-x="1097" 
d="M700 1380q36 0 86 50l50 -89q-92 -102 -179 -102q-49 -1 -97 27t-76 42t-56 13q-55 0 -117 -64l-47 86q105 121 199 119q49 0 99 -28t76 -41t62 -13zM100 512q0 260 116 398t333 139q336 0 422 -317q27 -99 26 -220q1 -260 -115 -398t-333 -139q-336 0 -422 317
q-27 99 -27 220zM270 512q0 -267 150 -360q53 -33 129 -33q279 -2 278 393q0 271 -149 361q-53 32 -129 32q-279 2 -279 -393z" />
    <glyph glyph-name="odieresis" unicode="&#xf6;" horiz-adv-x="1097" 
d="M254 1339q0 45 28 74t72 29t72 -29t28.5 -74t-28 -73t-72.5 -28t-72 28t-28 73zM748 1442q46 0 74 -29t28 -74t-28 -73t-74 -28t-74 28t-27.5 73t28 74t73.5 29zM100 512q0 260 116 398t333 139q336 0 422 -317q27 -99 26 -220q1 -260 -115 -398t-333 -139
q-336 0 -422 317q-27 99 -27 220zM270 512q0 -267 150 -360q53 -33 129 -33q279 -2 278 393q0 271 -149 361q-53 32 -129 32q-279 2 -279 -393z" />
    <glyph glyph-name="divide" unicode="&#xf7;" horiz-adv-x="1034" 
d="M82 766h868v-148h-868v148zM397 1076q0 54 32 86t86 32t87 -32t33 -86t-33 -87t-87 -33t-86 33t-32 87zM397 308q0 54 32 86t86 32t87 -32t33 -86t-33 -87t-87 -33t-86 33t-32 87z" />
    <glyph glyph-name="oslash" unicode="&#xf8;" horiz-adv-x="1097" 
d="M100 527q0 245 116 383.5t333 138.5q150 0 250 -66l53 72l102 -76l-59 -86q102 -135 102 -388t-115.5 -391.5t-332.5 -138.5q-160 0 -262 72l-56 -76l-106 78l68 94q-93 139 -93 384zM827 512q0 143 -43 236l-407 -568q75 -61 172 -61q278 -2 278 393zM270 512
q0 -126 37 -223l404 561q-68 55 -162 55q-279 2 -279 -393z" />
    <glyph glyph-name="ugrave" unicode="&#xf9;" horiz-adv-x="1103" 
d="M303 1475h195l133 -306h-92l-236 263v43zM141 406v618h164v-584q0 -169 44 -245t157 -76q149 0 234 136q26 40 42 85v684h164v-733q0 -187 23 -291h-113l-41 162h-10q-109 -185 -330 -187q-172 -1 -253 93t-81 338z" />
    <glyph glyph-name="uacute" unicode="&#xfa;" horiz-adv-x="1103" 
d="M766 1475v-43l-207 -263h-96l121 306h182zM141 406v618h164v-584q0 -169 44 -245t157 -76q149 0 234 136q26 40 42 85v684h164v-733q0 -187 23 -291h-113l-41 162h-10q-109 -185 -330 -187q-172 -1 -253 93t-81 338z" />
    <glyph glyph-name="ucircumflex" unicode="&#xfb;" horiz-adv-x="1103" 
d="M532 1499h66l227 -373h-147l-80 136l-43 118l-45 -118l-92 -136h-137zM141 406v618h164v-584q0 -169 44 -245t157 -76q149 0 234 136q26 40 42 85v684h164v-733q0 -187 23 -291h-113l-41 162h-10q-109 -185 -330 -187q-172 -1 -253 93t-81 338z" />
    <glyph glyph-name="udieresis" unicode="&#xfc;" horiz-adv-x="1103" 
d="M256 1339q0 45 28 74t72 29t72 -29t28.5 -74t-28 -73t-72.5 -28t-72 28t-28 73zM750 1442q46 0 74 -29t28 -74t-28 -73t-74 -28t-74 28t-27.5 73t28 74t73.5 29zM141 406v618h164v-584q0 -169 44 -245t157 -76q149 0 234 136q26 40 42 85v684h164v-733q0 -187 23 -291
h-113l-41 162h-10q-109 -185 -330 -187q-172 -1 -253 93t-81 338z" />
    <glyph glyph-name="yacute" unicode="&#xfd;" horiz-adv-x="954" 
d="M750 1475v-43l-207 -263h-97l121 306h183zM276 -420q-70 0 -118 21l28 141q27 -10 52 -10q57 0 110 60t88 208l-411 1024h188l246 -664l57 -196h10l45 198l199 662h166l-303 -920q-35 -100 -69 -194t-75 -168t-92 -118t-121 -44z" />
    <glyph glyph-name="thorn" unicode="&#xfe;" horiz-adv-x="1107" 
d="M530 -25q-113 0 -208 41v-426h-164v1844h164v-512h8q88 127 282 127t295 -121t101 -386t-129 -416t-349 -151zM533 119q138 0 221.5 105.5t83.5 310.5q0 370 -267 370q-201 2 -249 -219v-510q73 -57 211 -57z" />
    <glyph glyph-name="ydieresis" unicode="&#xff;" horiz-adv-x="954" 
d="M283 1442q45 0 73 -29t28 -74t-30 -73q-28 -28 -72 -28t-72 28t-28 73t28 74t73 29zM575 1339q0 45 28 74t73.5 29t73.5 -29t28 -74t-28 -73t-74 -28t-73.5 28t-27.5 73zM276 -420q-70 0 -118 21l28 141q27 -10 52 -10q57 0 110 60t88 208l-411 1024h188l246 -664
l57 -196h10l45 198l199 662h166l-303 -920q-35 -100 -69 -194t-75 -168t-92 -118t-121 -44z" />
    <glyph glyph-name="Amacron" unicode="&#x100;" horiz-adv-x="1198" 
d="M272 1726h648v-127h-648v127zM856 397h-528l-144 -397h-168l543 1456h78l545 -1456h-178zM383 545h422l-160 436l-51 217h-2l-51 -221z" />
    <glyph glyph-name="amacron" unicode="&#x101;" horiz-adv-x="1015" 
d="M207 1317h606v-127h-606v127zM387 -16q-66 0 -122 20q-113 40 -162 150q-23 54 -23 132q2 302 495 302q95 0 123 -4q6 61 7 110q1 113 -45 158t-166 45t-235 -42q-38 -13 -66 -30l-52 123q157 94 375 93t292 -104q56 -76 56 -212l-12 -461q0 -171 29 -268h-121l-43 143
h-10q-64 -103 -203 -141q-51 -14 -117 -14zM582 463q-332 0 -332 -172q0 -72 51 -118t119 -46q163 0 247 106q22 29 31 56v170q-58 4 -116 4z" />
    <glyph glyph-name="Abreve" unicode="&#x102;" horiz-adv-x="1198" 
d="M611 1638q97 0 165 43t96 103l82 -39q-36 -117 -130 -183t-216 -67q-185 0 -297 132q-39 46 -63 108l88 49q34 -70 106 -108t169 -38zM856 397h-528l-144 -397h-168l543 1456h78l545 -1456h-178zM383 545h422l-160 436l-51 217h-2l-51 -221z" />
    <glyph glyph-name="abreve" unicode="&#x103;" horiz-adv-x="1015" 
d="M518 1317q144 0 217 158l86 -37q-13 -106 -100 -186t-205 -78q-177 0 -274 148q-31 46 -45 105l92 48q37 -74 98 -116t131 -42zM387 -16q-66 0 -122 20q-113 40 -162 150q-23 54 -23 132q2 302 495 302q95 0 123 -4q6 61 7 110q1 113 -45 158t-166 45t-235 -42
q-38 -13 -66 -30l-52 123q157 94 375 93t292 -104q56 -76 56 -212l-12 -461q0 -171 29 -268h-121l-43 143h-10q-64 -103 -203 -141q-51 -14 -117 -14zM582 463q-332 0 -332 -172q0 -72 51 -118t119 -46q163 0 247 106q22 29 31 56v170q-58 4 -116 4z" />
    <glyph glyph-name="Aogonek" unicode="&#x104;" horiz-adv-x="1198" 
d="M1020 -180q0 -41 27.5 -72t72.5 -31t88 19l23 -86q-61 -49 -163 -49t-159 48t-57 132q0 145 166 219h-14l-148 397h-528l-144 -397h-168l543 1456h78l545 -1456h-45q-117 -73 -117 -180zM383 545h422l-160 436l-51 217h-2l-51 -221z" />
    <glyph glyph-name="aogonek" unicode="&#x105;" horiz-adv-x="1015" 
d="M539 1040q193 0 259 -89.5t66 -225.5l-12 -461q0 -171 29 -268h-47q-109 -71 -109 -174q0 -41 26.5 -73t71.5 -32t88 21l23 -88q-60 -49 -164 -49t-159.5 49t-55.5 131q0 159 199 233l-37 125h-10q-64 -103 -159 -129t-194.5 -26t-186.5 79.5t-87 210.5q0 248 196.5 281
t267.5 33h63q63 0 91 -4q6 61 7 110q0 113 -45.5 158t-161.5 45t-196.5 -25.5t-108.5 -42.5l-52 119q153 92 398 92zM582 463q-332 0 -332 -172q0 -72 51 -118t119 -46q117 0 186 50t92 112v170q-58 4 -116 4z" />
    <glyph glyph-name="Cacute" unicode="&#x106;" horiz-adv-x="1169" 
d="M1087 1782v-43l-333 -199h-142l242 242h233zM115 720q0 370 197 567q171 171 425 171q217 0 334 -49l-41 -149q-98 47 -284 47t-309 -131q-142 -153 -142 -448t134 -448t345 -153q174 0 277 66l41 -134q-106 -82 -368 -83t-427 178q-182 196 -182 566z" />
    <glyph glyph-name="cacute" unicode="&#x107;" horiz-adv-x="923" 
d="M776 1475v-43l-207 -263h-96l121 306h182zM100 512q0 260 115 398t311 138t310 -59l-48 -141q-99 57 -227 57q-291 0 -291 -393q0 -268 161 -360q58 -33 144 -33q134 0 228 74l53 -125q-126 -93 -321 -93q-435 0 -435 537z" />
    <glyph glyph-name="Ccircumflex" unicode="&#x108;" horiz-adv-x="1169" 
d="M1038 1530h-166l-122 100l-35 72l-39 -70l-131 -102h-162v45l272 207h123l260 -209v-43zM115 720q0 370 197 567q171 171 425 171q217 0 334 -49l-41 -149q-98 47 -284 47t-309 -131q-142 -153 -142 -448t134 -448t345 -153q174 0 277 66l41 -134q-106 -82 -368 -83
t-427 178q-182 196 -182 566z" />
    <glyph glyph-name="ccircumflex" unicode="&#x109;" horiz-adv-x="923" 
d="M485 1499h66l227 -373h-147l-80 136l-43 118l-45 -118l-92 -136h-138zM100 512q0 260 115 398t311 138t310 -59l-48 -141q-99 57 -227 57q-291 0 -291 -393q0 -268 161 -360q58 -33 144 -33q134 0 228 74l53 -125q-126 -93 -321 -93q-435 0 -435 537z" />
    <glyph glyph-name="Ccaron" unicode="&#x10c;" horiz-adv-x="1169" 
d="M403 1782h168l121 -103l35 -69l39 67l129 105h160v-45l-273 -209h-118l-261 211v43zM115 720q0 370 197 567q171 171 425 171q217 0 334 -49l-41 -149q-98 47 -284 47t-309 -131q-142 -153 -142 -448t134 -448t345 -153q174 0 277 66l41 -134q-106 -82 -368 -83t-427 178
q-182 196 -182 566z" />
    <glyph glyph-name="ccaron" unicode="&#x10d;" horiz-adv-x="923" 
d="M553 1126h-76l-235 373h159l80 -135l43 -119l45 119l93 135h143zM100 512q0 260 115 398t311 138t310 -59l-48 -141q-99 57 -227 57q-291 0 -291 -393q0 -268 161 -360q58 -33 144 -33q134 0 228 74l53 -125q-126 -93 -321 -93q-435 0 -435 537z" />
    <glyph glyph-name="Dcaron" unicode="&#x10e;" horiz-adv-x="1339" 
d="M248 1782h168l121 -103l34 -69l39 67l129 105h160v-45l-272 -209h-119l-260 211v43zM557 1450q333 0 501 -195t167.5 -521t-158.5 -524q-182 -228 -530 -228q-100 0 -174 4t-121 6t-68 6v1436q104 16 383 16zM534 133q274 0 403 181q109 156 107 413q0 380 -248 519
q-94 52 -235 52h-58q-89 0 -159 -10v-1147q40 -8 190 -8z" />
    <glyph glyph-name="dcaron" unicode="&#x10f;" horiz-adv-x="1206" 
d="M1022 1079q70 148 72 355h163q-11 -156 -122 -332q-27 -41 -45 -60zM565 1042q119 0 215 -34v426h164v-1082q0 -104 2 -189t19 -167h-111l-41 145h-8q-41 -73 -119 -119t-182 -47q-204 -1 -304 129t-100 398t124 404t341 136zM270 508q0 -277 139 -360q49 -29 121 -29
q205 0 250 219v508q-68 53 -209 53t-221 -93t-80 -298z" />
    <glyph glyph-name="Dcroat" unicode="&#x110;" horiz-adv-x="1347" 
d="M565 1450q333 0 501 -195t167.5 -521t-158.5 -524q-182 -228 -530 -228q-100 0 -174 4t-121 6t-68 6v682h-184v123h184v631q104 16 383 16zM542 133q277 0 403 181q108 155 108 413q0 380 -249 519q-94 52 -235 52h-58q-89 0 -159 -10v-485h301v-123h-301v-539
q40 -8 190 -8z" />
    <glyph glyph-name="dcroat" unicode="&#x111;" horiz-adv-x="1105" 
d="M565 1042q119 0 215 -34v163h-321v123h321v140h164v-140h166v-123h-166v-819q0 -104 2 -189t19 -167h-111l-41 145h-8q-41 -72 -119 -119t-182 -47q-205 0 -304.5 129.5t-99.5 397.5t124 404t341 136zM270 508q0 -389 260 -389q207 0 250 219v510q-66 51 -208 51
t-222 -93t-80 -298z" />
    <glyph glyph-name="Emacron" unicode="&#x112;" horiz-adv-x="1097" 
d="M223 1726h647v-127h-647v127zM174 1434h780v-152h-610v-469h559v-151h-559v-510h621v-152h-791v1434z" />
    <glyph glyph-name="emacron" unicode="&#x113;" horiz-adv-x="1040" 
d="M219 1317h606v-127h-606v127zM100 518q0 256 117 393t334 138q169 0 264 -74q125 -98 125 -330q0 -68 -12 -149h-658q0 -278 177 -352q63 -26 143 -26t150 25t104 58l61 -119q-133 -107 -357 -107q-224 -1 -336 143t-112 400zM547 905q-115 0 -188 -63t-87 -217h508
q0 156 -59 218t-174 62z" />
    <glyph glyph-name="Edotaccent" unicode="&#x116;" horiz-adv-x="1097" 
d="M434 1630q0 46 34 77.5t93 31.5t95 -32t36 -77.5t-36 -75.5t-95 -30t-93 30t-34 76zM174 1434h780v-152h-610v-469h559v-151h-559v-510h621v-152h-791v1434z" />
    <glyph glyph-name="edotaccent" unicode="&#x117;" horiz-adv-x="1040" 
d="M442 1335q0 47 32 81t81 34t84 -34t35 -81t-35 -78t-84 -31t-81 31t-32 78zM100 518q0 256 117 393t334 138q169 0 264 -74q125 -98 125 -330q0 -68 -12 -149h-658q0 -278 177 -352q63 -26 143 -26t150 25t104 58l61 -119q-133 -107 -357 -107q-224 -1 -336 143t-112 400
zM547 905q-115 0 -188 -63t-87 -217h508q0 156 -59 218t-174 62z" />
    <glyph glyph-name="Eogonek" unicode="&#x118;" horiz-adv-x="1097" 
d="M604 -217q0 143 164 217h-594v1434h780v-152h-610v-469h559v-151h-559v-510h621v-152h-74q-117 -73 -117 -178q0 -41 26 -73t72 -32t89 21l22 -88q-61 -49 -165 -49t-159 49t-55 133z" />
    <glyph glyph-name="eogonek" unicode="&#x119;" horiz-adv-x="1040" 
d="M270 496q0 -377 320 -377q80 0 149.5 24.5t104.5 57.5l61 -119q-41 -32 -104 -59q-146 -73 -150 -201q2 -43 30 -74t79 -33q39 2 82 21l22 -88q-58 -47 -164 -46t-160.5 49.5t-55.5 120.5q-2 131 114 205q-10 -2 -13 -2h-32q-339 0 -396 207t-57 330q0 262 117 399.5
t334 137.5q169 0 279 -86t110 -318q0 -68 -12 -149h-658zM547 905q-115 0 -187.5 -63.5t-87.5 -216.5h508q0 156 -59 218t-174 62z" />
    <glyph glyph-name="Ecaron" unicode="&#x11a;" horiz-adv-x="1097" 
d="M223 1782h168l121 -103l35 -69l39 67l129 105h159v-45l-272 -209h-119l-260 211v43zM174 1434h780v-152h-610v-469h559v-151h-559v-510h621v-152h-791v1434z" />
    <glyph glyph-name="ecaron" unicode="&#x11b;" horiz-adv-x="1040" 
d="M571 1126h-75l-236 373h160l80 -135l43 -119l45 119l92 135h143zM100 518q0 256 117 393t334 138q169 0 264 -74q125 -98 125 -330q0 -68 -12 -149h-658q0 -278 177 -352q63 -26 143 -26t150 25t104 58l61 -119q-133 -107 -357 -107q-224 -1 -336 143t-112 400zM547 905
q-115 0 -188 -63t-87 -217h508q0 156 -59 218t-174 62z" />
    <glyph glyph-name="Gcircumflex" unicode="&#x11c;" horiz-adv-x="1253" 
d="M1061 1530h-166l-123 100l-35 72l-39 -70l-131 -102h-161v45l272 207h123l260 -209v-43zM657 715h482v-631q-138 -104 -396 -109q-286 0 -457 186t-171 557t207 569q177 171 436 171q221 0 338 -49l-43 -149q-98 47 -281 47q-315 0 -434 -312q-43 -113 -43 -271t35 -270
q70 -222 248 -291q88 -36 206 -36t209 51v400l-336 40v97z" />
    <glyph glyph-name="gcircumflex" unicode="&#x11d;" horiz-adv-x="1099" 
d="M532 1499h66l227 -373h-147l-80 136l-43 118l-45 -118l-92 -136h-137zM393.5 -23q-293.5 0 -293.5 396.5t125 532.5t369 136q189 0 348 -61v-1028q0 -199 -105 -293t-313 -94t-325 55l43 139q48 -18 104 -34t146 -16q169 -1 229 63q59 65 59 229v98h-8
q-85 -123 -378.5 -123zM270 510q0 -278 140 -360q48 -28 136 -29q184 0 232 215v524q-82 39 -215 39t-213 -94t-80 -295z" />
    <glyph glyph-name="Gbreve" unicode="&#x11e;" horiz-adv-x="1253" 
d="M732 1638q96 0 164.5 43t96.5 103l82 -39q-36 -117 -130 -183t-216 -67q-185 0 -297 132q-39 46 -63 108l88 49q35 -70 107 -108t168 -38zM657 715h482v-631q-138 -104 -396 -109q-286 0 -457 186t-171 557t207 569q177 171 436 171q221 0 338 -49l-43 -149
q-98 47 -281 47q-315 0 -434 -312q-43 -113 -43 -271t35 -270q70 -222 248 -291q88 -36 206 -36t209 51v400l-336 40v97z" />
    <glyph glyph-name="gbreve" unicode="&#x11f;" horiz-adv-x="1099" 
d="M559 1317q144 0 217 158l86 -37q-13 -103 -100 -184t-205 -80q-177 0 -274 148q-31 46 -45 105l92 48q37 -74 98 -116t131 -42zM393.5 -23q-293.5 0 -293.5 396.5t125 532.5t369 136q189 0 348 -61v-1028q0 -199 -105 -293t-313 -94t-325 55l43 139q48 -18 104 -34
t146 -16q169 -1 229 63q59 65 59 229v98h-8q-85 -123 -378.5 -123zM270 510q0 -278 140 -360q48 -28 136 -29q184 0 232 215v524q-82 39 -215 39t-213 -94t-80 -295z" />
    <glyph glyph-name="Gcommaaccent" unicode="&#x122;" horiz-adv-x="1253" 
d="M602 -207q0 41 32 68t78 27t86 -36t40 -104t-18 -107q-45 -98 -146 -143l-58 66q91 51 91 141q-46 -12 -75.5 17.5t-29.5 70.5zM657 715h482v-631q-138 -104 -396 -109q-286 0 -457 186t-171 557t207 569q177 171 436 171q221 0 338 -49l-43 -149q-98 47 -281 47
q-315 0 -434 -312q-43 -113 -43 -271t35 -270q70 -222 248 -291q88 -36 206 -36t209 51v400l-336 40v97z" />
    <glyph glyph-name="gcommaaccent" unicode="&#x123;" horiz-adv-x="1099" 
d="M471 1290q0 176 164 250l57 -66q-90 -50 -90 -141q47 12 76.5 -17.5t29.5 -70.5t-32.5 -67t-78.5 -26t-86 35.5t-40 102.5zM393.5 -23q-293.5 0 -293.5 396.5t125 532.5t369 136q189 0 348 -61v-1028q0 -199 -105 -293t-313 -94t-325 55l43 139q48 -18 104 -34t146 -16
q169 -1 229 63q59 65 59 229v98h-8q-85 -123 -378.5 -123zM270 510q0 -278 140 -360q48 -28 136 -29q184 0 232 215v524q-82 39 -215 39t-213 -94t-80 -295z" />
    <glyph glyph-name="Hcircumflex" unicode="&#x124;" horiz-adv-x="1376" 
d="M1012 1530h-166l-123 100l-35 72l-39 -70l-131 -102h-162v45l273 207h123l260 -209v-43zM1032 657h-688v-657h-170v1434h170v-625h688v625h170v-1434h-170v657z" />
    <glyph glyph-name="hcircumflex" unicode="&#x125;" horiz-adv-x="1120" 
d="M573 1530h-165l-123 100l-35 72l-39 -70l-131 -102h-162v45l272 207h123l260 -209v-43zM635 1049q187 0 265 -90t79 -341v-618h-164v584q0 171 -47.5 246t-157.5 75t-188 -62t-100 -161v-682h-164v1434h164v-525h8q118 140 305 140z" />
    <glyph glyph-name="Hbar" unicode="&#x126;" horiz-adv-x="1386" 
d="M18 1202h162v232h170v-232h688v232h170v-232h162v-131h-162v-1071h-170v657h-688v-657h-170v1071h-162v131zM1038 809v262h-688v-262h688z" />
    <glyph glyph-name="hbar" unicode="&#x127;" horiz-adv-x="1124" 
d="M640 1049q188 0 265.5 -92t77.5 -339v-618h-164v584q0 171 -45.5 246t-157.5 75t-190 -62.5t-100 -160.5v-682h-164v1171h-164v123h164v140h164v-140h327v-123h-327v-262h8q118 140 306 140z" />
    <glyph glyph-name="Imacron" unicode="&#x12a;" horiz-adv-x="595" 
d="M-23 1726h648v-127h-648v127zM213 1434h170v-1434h-170v1434z" />
    <glyph glyph-name="imacron" unicode="&#x12b;" horiz-adv-x="548" 
d="M-27 1317h607v-127h-607v127zM193 1024h163v-1024h-163v1024z" />
    <glyph glyph-name="Iogonek" unicode="&#x12e;" horiz-adv-x="595" 
d="M70 -219q0 145 163 219h-20v1434h170v-1434h-29q-114 -71 -114 -180q0 -41 26.5 -73t71.5 -32t88 21l23 -88q-57 -47 -163 -47t-161 48t-55 132z" />
    <glyph glyph-name="iogonek" unicode="&#x12f;" horiz-adv-x="550" 
d="M39 -219q0 145 164 219h-10v1024h163v-1024h-37q-110 -71 -110 -180q0 -41 26.5 -73t71.5 -32t88 21l23 -88q-58 -47 -164 -47t-160.5 48t-54.5 132zM158 1335q0 47 31.5 81t80.5 34t84 -34t35 -81t-35 -77.5t-84 -30.5t-80.5 30.5t-31.5 77.5z" />
    <glyph glyph-name="Idotaccent" unicode="&#x130;" horiz-adv-x="595" 
d="M172 1630q0 46 34 77.5t93 31.5t95 -32t36 -77.5t-36 -75.5t-95 -30t-93 30t-34 76zM213 1434h170v-1434h-170v1434z" />
    <glyph glyph-name="dotlessi" unicode="&#x131;" horiz-adv-x="548" 
d="M193 1024h163v-1024h-163v1024z" />
    <glyph glyph-name="Jcircumflex" unicode="&#x134;" horiz-adv-x="595" 
d="M639 1530h-166l-123 100l-35 72l-39 -70l-131 -102h-161v45l272 207h123l260 -209v-43zM399 315q0 -335 -293 -335q-120 0 -176 32l33 146q57 -27 134 -27t105 60t27 165v1078h170v-1119z" />
    <glyph glyph-name="jcircumflex" unicode="&#x135;" horiz-adv-x="546" 
d="M254 1499h65l228 -373h-148l-80 136l-43 118l-45 -118l-92 -136h-137zM80 -434q-28 0 -62 4v139q108 0 140 65t32 232v1018h164v-1079q0 -190 -65 -285q-66 -94 -209 -94z" />
    <glyph glyph-name="Kcommaaccent" unicode="&#x136;" horiz-adv-x="1249" 
d="M585 -112q46 0 85.5 -36t39.5 -104t-18 -107q-45 -98 -145 -143l-58 66q91 51 91 141q-47 -12 -76.5 17.5t-28.5 70.5q0 41 32 68t78 27zM344 664v-664h-170v1434h170v-668l92 29l482 639h196l-479 -617l-86 -67l104 -82l525 -668h-215l-523 664h-96z" />
    <glyph glyph-name="kcommaaccent" unicode="&#x137;" horiz-adv-x="980" 
d="M484 -112q46 0 86 -36t40 -104t-18 -107q-45 -100 -146 -143l-57 66q92 52 90 141q-47 -11 -76 18t-28 70q-1 41 31 68t78 27zM322 461v-461h-164v1434h164v-873l84 29l317 434h190l-313 -412l-84 -67l102 -82l343 -463h-203l-342 461h-94z" />
    <glyph glyph-name="Lacute" unicode="&#x139;" horiz-adv-x="1058" 
d="M707 1782v-43l-334 -199h-142l242 242h234zM1022 0h-848v1434h170v-1282h678v-152z" />
    <glyph glyph-name="lacute" unicode="&#x13a;" horiz-adv-x="598" 
d="M659 1782v-43l-333 -199h-142l242 242h233zM176 1434h164v-1182q0 -133 94 -133q67 0 127 22l19 -129q-70 -34 -178 -35t-166.5 51t-59.5 177v1229z" />
    <glyph glyph-name="Lcommaaccent" unicode="&#x13b;" horiz-adv-x="1058" 
d="M503 -112q46 0 85.5 -36t39.5 -104t-18 -107q-45 -98 -145 -143l-57 66q90 50 90 141q-47 -12 -76.5 17.5t-28.5 70.5q0 41 32 68t78 27zM1022 0h-848v1434h170v-1282h678v-152z" />
    <glyph glyph-name="lcommaaccent" unicode="&#x13c;" horiz-adv-x="598" 
d="M240 -207q0 41 31 68q32 27 78 27t86 -36t40 -104q0 -177 -164 -250l-57 66q90 50 90 141q-46 -11 -75 18t-29 70zM176 1434h164v-1182q0 -133 94 -133q67 0 127 22l19 -129q-70 -34 -178 -35t-166.5 51t-59.5 177v1229z" />
    <glyph glyph-name="Lcaron" unicode="&#x13d;" horiz-adv-x="1058" 
d="M643 1079q70 148 72 355h164q-10 -155 -123 -332q-27 -41 -45 -60zM1022 0h-848v1434h170v-1282h678v-152z" />
    <glyph glyph-name="lcaron" unicode="&#x13e;" horiz-adv-x="598" 
d="M422 1079q70 148 72 355h163q-11 -156 -122 -332q-27 -41 -46 -60zM176 1434h164v-1182q0 -133 94 -133q67 0 127 22l19 -129q-70 -34 -178 -35t-166.5 51t-59.5 177v1229z" />
    <glyph glyph-name="Lslash" unicode="&#x141;" horiz-adv-x="1058" 
d="M174 1434h170v-600l219 172v-164l-219 -168v-522h678v-152h-848v543l-143 -111v156l143 112v734z" />
    <glyph glyph-name="lslash" unicode="&#x142;" horiz-adv-x="598" 
d="M434 119q66 0 127 22l19 -129q-33 -16 -91.5 -26.5t-101.5 -10.5q-92 0 -151.5 52.5t-59.5 177.5v342l-156 -119v156l156 121v729h164v-600l213 167v-163l-213 -164v-422q0 -133 94 -133z" />
    <glyph glyph-name="Nacute" unicode="&#x143;" horiz-adv-x="1378" 
d="M1067 1782v-43l-334 -199h-141l242 242h233zM334 0h-160v1456h90l686 -956l107 -197h10l-23 197v934h160v-1457h-90l-682 961l-110 207h-9l21 -207v-938z" />
    <glyph glyph-name="nacute" unicode="&#x144;" horiz-adv-x="1120" 
d="M797 1475v-43l-207 -263h-96l120 306h183zM815 0v584q0 160 -46.5 240t-162.5 80t-186 -57.5t-98 -146.5v-700h-164v1024h114l31 -125h8q49 66 132 108.5t183 42.5t162 -20q129 -40 169 -202q22 -83 22 -210v-618h-164z" />
    <glyph glyph-name="Ncommaaccent" unicode="&#x145;" horiz-adv-x="1378" 
d="M681 -112q46 0 85.5 -36t39.5 -104t-18 -107q-45 -98 -145 -143l-57 66q90 50 90 141q-47 -12 -76.5 17.5t-28.5 70.5q0 41 32 68t78 27zM334 0h-160v1456h90l686 -956l107 -197h10l-23 197v934h160v-1457h-90l-682 961l-110 207h-9l21 -207v-938z" />
    <glyph glyph-name="ncommaaccent" unicode="&#x146;" horiz-adv-x="1120" 
d="M442 -207q0 41 32 68t78 27t86 -36t40 -104t-18 -107q-45 -98 -146 -143l-57 66q90 50 90 141q-46 -12 -75.5 17.5t-29.5 70.5zM815 0v584q0 160 -46.5 240t-162.5 80t-186 -57.5t-98 -146.5v-700h-164v1024h114l31 -125h8q49 66 132 108.5t183 42.5t162 -20
q129 -40 169 -202q22 -83 22 -210v-618h-164z" />
    <glyph glyph-name="Ncaron" unicode="&#x147;" horiz-adv-x="1378" 
d="M367 1782h168l120 -103l35 -69l39 67l129 105h160v-45l-273 -209h-118l-260 211v43zM334 0h-160v1456h90l686 -956l107 -197h10l-23 197v934h160v-1457h-90l-682 961l-110 207h-9l21 -207v-938z" />
    <glyph glyph-name="ncaron" unicode="&#x148;" horiz-adv-x="1120" 
d="M592 1126h-76l-235 373h159l80 -135l43 -119l45 119l92 135h144zM815 0v584q0 160 -46.5 240t-162.5 80t-186 -57.5t-98 -146.5v-700h-164v1024h114l31 -125h8q49 66 132 108.5t183 42.5t162 -20q129 -40 169 -202q22 -83 22 -210v-618h-164z" />
    <glyph glyph-name="Omacron" unicode="&#x14c;" horiz-adv-x="1400" 
d="M389 1726h647v-127h-647v127zM706 1458q288 0 438 -204q142 -189 142 -542t-152 -545q-153 -191 -439 -191t-433 196t-147 550t151 545q152 191 440 191zM693 127.5q195 -0.5 304 143.5t109 422t-103 445.5t-298 167.5t-303 -144t-108 -421t102 -445t297 -168.5z" />
    <glyph glyph-name="omacron" unicode="&#x14d;" horiz-adv-x="1097" 
d="M246 1317h606v-127h-606v127zM100 512q0 260 116 398t333 139q336 0 422 -317q27 -99 26 -220q1 -260 -115 -398t-333 -139q-336 0 -422 317q-27 99 -27 220zM270 512q0 -267 150 -360q53 -33 129 -33q279 -2 278 393q0 271 -149 361q-53 32 -129 32q-279 2 -279 -393z
" />
    <glyph glyph-name="Ohungarumlaut" unicode="&#x150;" horiz-adv-x="1400" 
d="M817 1741v-33l-205 -190h-116l131 223h190zM1161 1741v-33l-293 -190h-118l208 223h203zM706 1458q288 0 438 -204q142 -189 142 -542t-152 -545q-153 -191 -439 -191t-433 196t-147 550t151 545q152 191 440 191zM693 127.5q195 -0.5 304 143.5t109 422t-103 445.5
t-298 167.5t-303 -144t-108 -421t102 -445t297 -168.5z" />
    <glyph glyph-name="ohungarumlaut" unicode="&#x151;" horiz-adv-x="1097" 
d="M592 1434v-33l-146 -232h-86l72 265h160zM907 1434v-33l-233 -232h-92l149 265h176zM100 512q0 260 116 398t333 139q336 0 422 -317q27 -99 26 -220q1 -260 -115 -398t-333 -139q-336 0 -422 317q-27 99 -27 220zM270 512q0 -267 150 -360q53 -33 129 -33
q279 -2 278 393q0 271 -149 361q-53 32 -129 32q-279 2 -279 -393z" />
    <glyph glyph-name="OE" unicode="&#x152;" horiz-adv-x="1908" 
d="M697 1307q-187 0 -294.5 -144.5t-107.5 -445.5q0 -405 154.5 -497.5t239.5 -92.5t147.5 4t148.5 31v1104q-101 41 -288 41zM703 -25q-292 0 -440 196.5t-148 550.5t151.5 545t431.5 191q131 0 287 -24h780v-152h-610v-469h559v-151h-559v-510h621v-152h-791
q-127 -25 -282 -25z" />
    <glyph glyph-name="oe" unicode="&#x153;" horiz-adv-x="1757" 
d="M270 512q0 -272 101.5 -332.5t177.5 -60.5q276 -2 276 393q0 274 -100 333.5t-176 59.5q-279 2 -279 -393zM1258 -25q-116 0 -208 51.5t-145 139.5q-114 -191 -356 -191q-336 0 -392.5 208t-56.5 329q0 260 116 398.5t333 138.5q129 0 218 -53.5t142 -135.5
q53 86 145 137.5t188 51.5t165.5 -15.5t159.5 -86t90 -302.5q0 -81 -10 -149h-662q0 -379 323 -379q81 0 149.5 25.5t103.5 58.5l61 -119q-134 -107 -364 -107zM1262 907q-112 0 -185 -64.5t-88 -217.5h508v18q-1 264 -235 264z" />
    <glyph glyph-name="Racute" unicode="&#x154;" horiz-adv-x="1218" 
d="M889 1782v-43l-334 -199h-141l241 242h234zM489.5 1450q142.5 0 228.5 -20t150 -68q142 -105 142 -307q0 -169 -92 -273t-234 -139l98 -76l357 -567h-199l-395 618l-201 31v-649h-170v1419q173 31 315.5 31zM487 1303q-98 0 -143 -13v-528h160q141 0 233 70t92 217
q1 111 -75 183t-211 71h-56z" />
    <glyph glyph-name="racute" unicode="&#x155;" horiz-adv-x="696" 
d="M582 1475v-43l-207 -263h-96l120 306h183zM322 0h-164v1024h114l31 -125h8q39 70 93 108q93 65 272 17l-35 -158q-61 20 -133 20t-123 -48t-63 -121v-717z" />
    <glyph glyph-name="Rcommaaccent" unicode="&#x156;" horiz-adv-x="1218" 
d="M599 -112q46 0 86 -36t40 -104q0 -177 -164 -250l-57 66q90 50 90 141q-47 -12 -76.5 17.5t-28.5 70.5q0 41 32 68t78 27zM489.5 1450q142.5 0 228.5 -20t150 -68q142 -105 142 -307q0 -169 -92 -273t-234 -139l98 -76l357 -567h-199l-395 618l-201 31v-649h-170v1419
q173 31 315.5 31zM487 1303q-98 0 -143 -13v-528h160q141 0 233 70t92 217q1 111 -75 183t-211 71h-56z" />
    <glyph glyph-name="rcommaaccent" unicode="&#x157;" horiz-adv-x="696" 
d="M174 -207q0 41 32 68t78 27t86 -36t40 -104t-18 -107q-45 -98 -146 -143l-58 66q91 51 91 141q-46 -12 -75.5 17.5t-29.5 70.5zM322 0h-164v1024h114l31 -125h8q39 70 93 108q93 65 272 17l-35 -158q-61 20 -133 20t-123 -48t-63 -121v-717z" />
    <glyph glyph-name="Rcaron" unicode="&#x158;" horiz-adv-x="1218" 
d="M188 1782h168l121 -103l35 -69l39 67l129 105h160v-45l-273 -209h-118l-261 211v43zM489.5 1450q142.5 0 228.5 -20t150 -68q142 -105 142 -307q0 -169 -92 -273t-234 -139l98 -76l357 -567h-199l-395 618l-201 31v-649h-170v1419q173 31 315.5 31zM487 1303
q-98 0 -143 -13v-528h160q141 0 233 70t92 217q1 111 -75 183t-211 71h-56z" />
    <glyph glyph-name="rcaron" unicode="&#x159;" horiz-adv-x="696" 
d="M422 1126h-76l-235 373h159l80 -135l43 -119l45 119l92 135h144zM322 0h-164v1024h114l31 -125h8q39 70 93 108q93 65 272 17l-35 -158q-61 20 -133 20t-123 -48t-63 -121v-717z" />
    <glyph glyph-name="Sacute" unicode="&#x15a;" horiz-adv-x="1087" 
d="M942 1782v-43l-334 -199h-141l242 242h233zM129 1094q0 168 117 266t353 98t366 -65l-52 -150q-128 63 -354 63q-125 0 -193 -60t-68 -141t51.5 -134t128.5 -95t167 -83t167 -95q179 -127 179 -315t-130.5 -298t-372.5 -110t-394 76l58 154q46 -27 138 -53t184 -26
q173 1 253 57q96 65 94 195q0 74 -51 128t-128 95.5t-167 78.5t-167 89q-179 121 -179 325z" />
    <glyph glyph-name="sacute" unicode="&#x15b;" horiz-adv-x="862" 
d="M666 1475v-43l-207 -263h-97l121 306h183zM478 905q-115 0 -156.5 -31t-41.5 -95t36 -94q56 -46 165 -84t163 -75q128 -88 128 -241q0 -217 -200 -286q-67 -24 -170 -24q-183 0 -322 76l49 139q126 -72 282 -72q197 1 197 161q0 61 -47 105t-195 93t-214 144
q-37 53 -37 143q0 147 84.5 216.5t214.5 69.5t204 -20t130 -47l-39 -135q-116 57 -231 57z" />
    <glyph glyph-name="Scircumflex" unicode="&#x15c;" horiz-adv-x="1087" 
d="M899 1530h-166l-123 100l-35 72l-38 -70l-131 -102h-162v45l272 207h123l260 -209v-43zM129 1094q0 168 117 266t353 98t366 -65l-52 -150q-128 63 -354 63q-125 0 -193 -60t-68 -141t51.5 -134t128.5 -95t167 -83t167 -95q179 -127 179 -315t-130.5 -298t-372.5 -110
t-394 76l58 154q46 -27 138 -53t184 -26q173 1 253 57q96 65 94 195q0 74 -51 128t-128 95.5t-167 78.5t-167 89q-179 121 -179 325z" />
    <glyph glyph-name="scircumflex" unicode="&#x15d;" horiz-adv-x="862" 
d="M412 1499h65l228 -373h-148l-80 136l-43 118l-45 -118l-92 -136h-137zM478 905q-115 0 -156.5 -31t-41.5 -95t36 -94q56 -46 165 -84t163 -75q128 -88 128 -241q0 -217 -200 -286q-67 -24 -170 -24q-183 0 -322 76l49 139q126 -72 282 -72q197 1 197 161q0 61 -47 105
t-195 93t-214 144q-37 53 -37 143q0 147 84.5 216.5t214.5 69.5t204 -20t130 -47l-39 -135q-116 57 -231 57z" />
    <glyph glyph-name="Scedilla" unicode="&#x15e;" horiz-adv-x="1087" 
d="M559 1307q-125 0 -192.5 -60.5t-67.5 -141.5t51 -134t128 -95t167 -83t167 -95.5t128 -130t51 -188.5q0 -162 -100 -266.5t-281 -128.5l-39 -72q86 -16 124 -53t38 -109t-65.5 -124t-184.5 -52q-42 0 -92 8l19 80q12 -2 14 -2h29q113 0 121 34t8 46q0 57 -176 76l83 159
q-258 4 -395 76l58 154q47 -27 138.5 -52.5t183.5 -25.5t151 13.5t102 43t68.5 75t25.5 119.5t-51 127.5t-128 95.5t-167 79t-218 123.5t-128 290.5q0 168 116.5 266t350.5 98t369 -65l-52 -150q-131 64 -354 64z" />
    <glyph glyph-name="scedilla" unicode="&#x15f;" horiz-adv-x="862" 
d="M411 121q83 0 140 33.5t57 109.5t-36.5 111t-91 58.5t-119 45t-155.5 77.5t-91 205q0 288 317 288q179 0 316 -66l-39 -133q-112 55 -229 55t-159 -30.5t-42 -94.5t36.5 -94.5t91 -54t119 -46t155.5 -85t91 -199.5t-71.5 -221t-219.5 -100l-37 -68q86 -16 124 -53
t38 -109t-65.5 -124t-184.5 -52q-42 0 -92 8l19 80q12 -2 15 -2h28q115 0 122 34t7 46q0 57 -176 76l86 161q-168 7 -285 74l49 137q126 -67 282 -67z" />
    <glyph glyph-name="Scaron" unicode="&#x160;" horiz-adv-x="1087" 
d="M281 1782h168l120 -103l35 -69l39 67l129 105h160v-45l-273 -209h-118l-260 211v43zM129 1094q0 168 117 266t353 98t366 -65l-52 -150q-128 63 -354 63q-125 0 -193 -60t-68 -141t51.5 -134t128.5 -95t167 -83t167 -95q179 -127 179 -315t-130.5 -298t-372.5 -110
t-394 76l58 154q46 -27 138 -53t184 -26q173 1 253 57q96 65 94 195q0 74 -51 128t-128 95.5t-167 78.5t-167 89q-179 121 -179 325z" />
    <glyph glyph-name="scaron" unicode="&#x161;" horiz-adv-x="862" 
d="M461 1126h-76l-235 373h159l80 -135l43 -119l45 119l92 135h144zM478 905q-115 0 -156.5 -31t-41.5 -95t36 -94q56 -46 165 -84t163 -75q128 -88 128 -241q0 -217 -200 -286q-67 -24 -170 -24q-183 0 -322 76l49 139q126 -72 282 -72q197 1 197 161q0 61 -47 105t-195 93
t-214 144q-37 53 -37 143q0 147 84.5 216.5t214.5 69.5t204 -20t130 -47l-39 -135q-116 57 -231 57z" />
    <glyph glyph-name="Tcedilla" unicode="&#x162;" horiz-adv-x="1136" 
d="M483 0v1282h-446v152h1063v-152h-447v-1282h-24l-49 -88q86 -16 123.5 -53t37.5 -109t-65.5 -124t-183.5 -52q-43 0 -93 8l19 80q12 -2 14 -2h29q115 0 122 34t7 46q0 57 -176 76l98 184h-29z" />
    <glyph glyph-name="tcedilla" unicode="&#x163;" horiz-adv-x="694" 
d="M471 119q72 0 164 39l37 -123q-95 -46 -209 -60l-35 -63q86 -16 124 -53t38 -109t-65.5 -124t-184.5 -52q-44 0 -92 8l18 80q12 -2 14 -2h29q115 0 122 34t7 46q0 57 -176 76l86 164q-92 16 -129 87.5t-37 215.5v598h-159v143h159v203l164 47v-250h279v-143h-279v-568
q0 -106 26.5 -150t98.5 -44z" />
    <glyph glyph-name="Tcaron" unicode="&#x164;" horiz-adv-x="1136" 
d="M244 1782h168l120 -103l35 -69l39 67l129 105h160v-45l-272 -209h-119l-260 211v43zM1100 1282h-447v-1282h-170v1282h-446v152h1063v-152z" />
    <glyph glyph-name="tcaron" unicode="&#x165;" horiz-adv-x="694" 
d="M475 1462h164q-10 -150 -123 -332q-27 -41 -45 -59l-68 37q72 152 72 354zM182 283v598h-159v143h159v203l164 47v-250h279v-143h-279v-568q0 -106 27 -150t96 -44t166 41l37 -125q-118 -58 -252 -59t-187 70q-51 71 -51 237z" />
    <glyph glyph-name="Umacron" unicode="&#x16a;" horiz-adv-x="1335" 
d="M348 1726h647v-127h-647v127zM174 444v990h170v-910q0 -310 194 -370q65 -20 150 -21q166 0 238 91t71 300v910h164v-957q0 -375 -280 -467q-88 -29 -195 -28q-512 0 -512 462z" />
    <glyph glyph-name="umacron" unicode="&#x16b;" horiz-adv-x="1103" 
d="M250 1317h606v-127h-606v127zM141 406v618h164v-584q0 -169 44 -245t157 -76q149 0 234 136q26 40 42 85v684h164v-733q0 -187 23 -291h-113l-41 162h-10q-109 -185 -330 -187q-172 -1 -253 93t-81 338z" />
    <glyph glyph-name="Ubreve" unicode="&#x16c;" horiz-adv-x="1335" 
d="M679 1638q97 0 165 43t96 103l82 -39q-36 -117 -130 -183t-216 -67q-185 0 -297 132q-39 46 -64 108l88 49q35 -70 107 -108t169 -38zM174 444v990h170v-910q0 -310 194 -370q65 -20 150 -21q166 0 238 91t71 300v910h164v-957q0 -375 -280 -467q-88 -29 -195 -28
q-512 0 -512 462z" />
    <glyph glyph-name="ubreve" unicode="&#x16d;" horiz-adv-x="1103" 
d="M561 1317q144 0 217 158l86 -37q-13 -106 -100 -186t-205 -78q-177 0 -274 148q-31 46 -45 105l92 48q37 -74 98 -116t131 -42zM141 406v618h164v-584q0 -169 44 -245t157 -76q149 0 234 136q26 40 42 85v684h164v-733q0 -187 23 -291h-113l-41 162h-10
q-109 -185 -330 -187q-172 -1 -253 93t-81 338z" />
    <glyph glyph-name="Uring" unicode="&#x16e;" horiz-adv-x="1335" 
d="M461.5 1572q0.5 77 50.5 126t158 49q222 0 223 -174q-1 -74 -55 -122t-160 -48t-162 46q-55 46 -54.5 123zM586 1575q0 -37 22 -61t67 -24t69 23t24 61t-23 62t-69 24t-68 -24t-22 -61zM174 444v990h170v-910q0 -310 194 -370q65 -20 150 -21q166 0 238 91t71 300v910
h164v-957q0 -375 -280 -467q-88 -29 -195 -28q-512 0 -512 462z" />
    <glyph glyph-name="uring" unicode="&#x16f;" horiz-adv-x="1103" 
d="M550 1133q-86 0 -142 48t-56 135t54 137t142 50t146 -45t58 -133t-58 -140t-144 -52zM641 1317q0 45 -28 67q-29 22 -63 21t-60 -21t-26 -64t26 -67t61 -22q90 0 90 86zM141 406v618h164v-584q0 -169 44 -245t157 -76q149 0 234 136q26 40 42 85v684h164v-733
q0 -187 23 -291h-113l-41 162h-10q-109 -185 -330 -187q-172 -1 -253 93t-81 338z" />
    <glyph glyph-name="Uhungarumlaut" unicode="&#x170;" horiz-adv-x="1335" 
d="M758 1741v-33l-205 -190h-117l131 223h191zM1102 1741v-33l-293 -190h-119l209 223h203zM174 444v990h170v-910q0 -310 194 -370q65 -20 150 -21q166 0 238 91t71 300v910h164v-957q0 -375 -280 -467q-88 -29 -195 -28q-512 0 -512 462z" />
    <glyph glyph-name="uhungarumlaut" unicode="&#x171;" horiz-adv-x="1103" 
d="M590 1434v-33l-146 -232h-86l72 265h160zM905 1434v-33l-233 -232h-92l149 265h176zM141 406v618h164v-584q0 -169 44 -245t157 -76q149 0 234 136q26 40 42 85v684h164v-733q0 -187 23 -291h-113l-41 162h-10q-109 -185 -330 -187q-172 -1 -253 93t-81 338z" />
    <glyph glyph-name="Uogonek" unicode="&#x172;" horiz-adv-x="1335" 
d="M686 -18q-512 0 -512 462v990h170v-910q0 -309 129 -350t215 -41q164 0 235.5 91t73.5 300v910h164v-957q-8 -380 -284 -469q-127 -69 -127 -186q2 -43 28.5 -73t72.5 -31t87 18l23 -88q-59 -47 -163 -47t-160 49t-56 133q0 125 123 199h-19z" />
    <glyph glyph-name="uogonek" unicode="&#x173;" horiz-adv-x="1103" 
d="M492 -25q-100 0 -225.5 39.5t-125.5 391.5v618h164v-584q0 -166 43.5 -243.5t157.5 -77.5q148 0 204 88t72 133v684h164v-733q0 -187 23 -291h-37q-61 -25 -95 -74t-30 -112q14 -97 108 -97q39 0 80 19l23 -88q-58 -47 -161 -47q-206 0 -218 174q0 169 209 245l-35 142
h-10q-45 -80 -128 -133.5t-183 -53.5z" />
    <glyph glyph-name="Ydieresis" unicode="&#x178;" horiz-adv-x="1142" 
d="M382 1532q-48 0 -79 26t-31 68t31 70q31 26 79 26t78 -26t30 -69t-30 -69t-78 -26zM883 1627q0 -43 -30.5 -69t-78.5 -26t-78 26t-30 68t29 70q30 26 78 26t79 -26t31 -69zM659 0h-170v569l-473 865h199l336 -627l35 -125h2l37 129l321 623h182l-469 -863v-571z" />
    <glyph glyph-name="Zacute" unicode="&#x179;" 
d="M907 1782v-43l-334 -199h-141l242 242h233zM78 1282v152h962v-154l-727 -1053l-86 -75h813v-152h-962v154l723 1046l86 82h-809z" />
    <glyph glyph-name="zacute" unicode="&#x17a;" horiz-adv-x="915" 
d="M666 1475v-43l-207 -263h-97l121 306h183zM86 881v143h729v-143l-477 -658l-84 -80h561v-143h-729v143l473 652l86 86h-559z" />
    <glyph glyph-name="Zdotaccent" unicode="&#x17b;" 
d="M432 1630q0 46 34 77.5t93 31.5t95 -32t36 -77.5t-36 -75.5t-95 -30t-93 30t-34 76zM78 1282v152h962v-154l-727 -1053l-86 -75h813v-152h-962v154l723 1046l86 82h-809z" />
    <glyph glyph-name="zdotaccent" unicode="&#x17c;" horiz-adv-x="915" 
d="M354 1335q0 47 32 81t81 34t84 -34t35 -81t-35 -78t-84 -31t-81 31t-32 78zM86 881v143h729v-143l-477 -658l-84 -80h561v-143h-729v143l473 652l86 86h-559z" />
    <glyph glyph-name="Zcaron" unicode="&#x17d;" 
d="M207 1782h168l121 -103l34 -69l39 67l129 105h160v-45l-272 -209h-119l-260 211v43zM78 1282v152h962v-154l-727 -1053l-86 -75h813v-152h-962v154l723 1046l86 82h-809z" />
    <glyph glyph-name="zcaron" unicode="&#x17e;" horiz-adv-x="915" 
d="M481 1126h-75l-236 373h160l80 -135l43 -119l45 119l92 135h143zM86 881v143h729v-143l-477 -658l-84 -80h561v-143h-729v143l473 652l86 86h-559z" />
    <glyph glyph-name="longs" unicode="&#x17f;" horiz-adv-x="509" 
d="M535 1303q-70 0 -99.5 -13.5t-48 -48.5t-18.5 -158v-1083h-164v883h-160v141h160v57q0 190 65.5 277.5t210.5 87.5t238 -39l-37 -137q-77 33 -147 33z" />
    <glyph glyph-name="florin" unicode="&#x192;" 
d="M151 -283q81 0 120.5 69t66.5 230l139 865h-174v143h197l22 137q25 152 89.5 224.5t205.5 72.5t254 -51l-47 -133q-98 41 -162 41t-89 -11.5t-49 -45.5t-40 -150l-14 -84h245v-143h-268l-162 -951q-56 -356 -319 -356q-114 0 -236 49l43 135q97 -41 178 -41z" />
    <glyph glyph-name="uni01F4" unicode="&#x1f4;" horiz-adv-x="1253" 
d="M1110 1782v-43l-334 -199h-141l242 242h233zM657 715h482v-631q-138 -104 -396 -109q-286 0 -457 186t-171 557t207 569q177 171 436 171q221 0 338 -49l-43 -149q-98 47 -281 47q-315 0 -434 -312q-43 -113 -43 -271t35 -270q70 -222 248 -291q88 -36 206 -36t209 51
v400l-336 40v97z" />
    <glyph glyph-name="uni01F5" unicode="&#x1f5;" horiz-adv-x="1099" 
d="M805 1475v-43l-207 -263h-96l121 306h182zM393.5 -23q-293.5 0 -293.5 396.5t125 532.5t369 136q189 0 348 -61v-1028q0 -199 -105 -293t-313 -94t-325 55l43 139q48 -18 104 -34t146 -16q169 -1 229 63q59 65 59 229v98h-8q-85 -123 -378.5 -123zM270 510
q0 -278 140 -360q48 -28 136 -29q184 0 232 215v524q-82 39 -215 39t-213 -94t-80 -295z" />
    <glyph glyph-name="Scommaaccent" unicode="&#x218;" horiz-adv-x="1087" 
d="M416 -207q0 41 31 68q32 27 78 27t86 -36t40 -104t-18 -107q-45 -100 -146 -143l-57 66q92 52 90 141q-46 -11 -75 18t-29 70zM129 1094q0 168 117 266t353 98t366 -65l-52 -150q-128 63 -354 63q-125 0 -193 -60t-68 -141t51.5 -134t128.5 -95t167 -83t167 -95
q179 -127 179 -315t-130.5 -298t-372.5 -110t-394 76l58 154q46 -27 138 -53t184 -26q173 1 253 57q96 65 94 195q0 74 -51 128t-128 95.5t-167 78.5t-167 89q-179 121 -179 325z" />
    <glyph glyph-name="scommaaccent" unicode="&#x219;" horiz-adv-x="862" 
d="M425 -112q46 0 85.5 -36t39.5 -104t-18 -107q-45 -98 -145 -143l-57 66q90 50 90 141q-47 -12 -76.5 17.5t-28.5 70.5q0 41 32 68t78 27zM478 905q-115 0 -156.5 -31t-41.5 -95t36 -94q56 -46 165 -84t163 -75q128 -88 128 -241q0 -217 -200 -286q-67 -24 -170 -24
q-183 0 -322 76l49 139q126 -72 282 -72q197 1 197 161q0 61 -47 105t-195 93t-214 144q-37 53 -37 143q0 147 84.5 216.5t214.5 69.5t204 -20t130 -47l-39 -135q-116 57 -231 57z" />
    <glyph glyph-name="Tcommaaccent" unicode="&#x21a;" horiz-adv-x="1136" 
d="M446 -207q0 41 32 68t78 27t86 -36t40 -104q0 -177 -164 -250l-57 66q90 50 90 141q-46 -12 -75.5 17.5t-29.5 70.5zM1100 1282h-447v-1282h-170v1282h-446v152h1063v-152z" />
    <glyph glyph-name="tcommaaccent" unicode="&#x21b;" horiz-adv-x="694" 
d="M266 -207q0 41 32 68t78 27t86 -36t40 -104t-18 -107q-45 -98 -146 -143l-57 66q90 50 90 141q-46 -12 -75.5 17.5t-29.5 70.5zM182 283v598h-159v143h159v203l164 47v-250h279v-143h-279v-568q0 -106 27 -150t96 -44t166 41l37 -125q-118 -58 -252 -59t-187 70
q-51 71 -51 237z" />
    <glyph glyph-name="uni0237" unicode="&#x237;" horiz-adv-x="546" 
d="M80 -434q-28 0 -62 4v139q108 0 140 64.5t32 232.5v1018h164v-1079q0 -190 -65.5 -284.5t-208.5 -94.5z" />
    <glyph glyph-name="afii57929" unicode="&#x2bc;" horiz-adv-x="397" 
d="M82 1352q0 46 30 72t82 26t88 -36t36 -106t-20 -118q-47 -122 -159 -166l-51 70q102 54 100 157q-8 -2 -34 -2t-50 28q-22 29 -22 75z" />
    <glyph glyph-name="circumflex" unicode="&#x2c6;" horiz-adv-x="790" 
d="M375 1499h65l228 -373h-148l-80 136l-43 118l-45 -118l-92 -136h-137z" />
    <glyph glyph-name="caron" unicode="&#x2c7;" horiz-adv-x="808" 
d="M434 1126h-76l-235 373h160l79 -135l44 -119l45 119l92 135h143z" />
    <glyph glyph-name="breve" unicode="&#x2d8;" horiz-adv-x="870" 
d="M444.5 1317q69.5 0 126 41t91.5 117l86 -37q-13 -105 -100 -184.5t-206 -79.5q-174 0 -239.5 97t-79.5 156l92 48q37 -74 98.5 -116t131 -42z" />
    <glyph glyph-name="dotaccent" unicode="&#x2d9;" horiz-adv-x="477" 
d="M123 1335q0 47 31.5 81t81 34t84 -34t34.5 -81t-34.5 -77.5t-84 -30.5t-81 30.5t-31.5 77.5z" />
    <glyph glyph-name="ring" unicode="&#x2da;" horiz-adv-x="645" 
d="M123 1316q0 87 54.5 137t142.5 50t145 -45t57 -133t-57 -140t-143 -52t-142.5 48t-56.5 135zM322 1231q90 0 90 65.5t-28 87t-62.5 21.5t-61.5 -20.5t-27 -64.5t27 -66.5t62 -22.5z" />
    <glyph glyph-name="ogonek" unicode="&#x2db;" horiz-adv-x="624" 
d="M293 -178q0 -41 26.5 -73t71.5 -32t88 21l23 -88q-60 -49 -164 -49t-159.5 49t-55.5 133t56.5 143.5t154.5 93.5h112q-153 -70 -153 -198z" />
    <glyph glyph-name="tilde" unicode="&#x2dc;" horiz-adv-x="817" 
d="M322 1462q48 0 98.5 -28.5t76 -41t62.5 -12.5t86 50l49 -89q-92 -102 -178 -102q-44 0 -94.5 27.5t-78.5 41t-56 13.5q-53 0 -117 -64l-47 86q103 119 199 119z" />
    <glyph glyph-name="hungarumlaut" unicode="&#x2dd;" horiz-adv-x="792" 
d="M354 1434v-33l-145 -232h-86l72 265h159zM670 1434v-33l-234 -232h-92l150 265h176z" />
    <glyph glyph-name="acutecomb" unicode="&#x301;" horiz-adv-x="4" 
d="M-291 1475v-43l-207 -263h-96l121 306h182z" />
    <glyph glyph-name="uni0394" unicode="&#x394;" horiz-adv-x="1163" 
d="M29 0v76l520 1380h69l525 -1380v-76h-1114zM217 147h727l-317 826l-49 215h-3l-57 -219z" />
    <glyph glyph-name="uni0394" unicode="&#x2206;" horiz-adv-x="1163" 
d="M29 0v76l520 1380h69l525 -1380v-76h-1114zM217 147h727l-317 826l-49 215h-3l-57 -219z" />
    <glyph glyph-name="uni03A9" unicode="&#x3a9;" horiz-adv-x="1642" 
d="M156 143h237l193 -20v53l-111 21q-138 65 -228.5 217.5t-90.5 333.5q0 338 180 524t488 186t485.5 -191t177.5 -505q0 -205 -96 -350t-222 -213l-116 -23v-53l196 20h238v-143h-588v256q155 30 281.5 155t126.5 352t-124.5 385.5t-360.5 158.5t-361 -136.5t-125 -386.5
t122 -377t283 -151v-256h-585v143z" />
    <glyph glyph-name="uni03A9" unicode="&#x2126;" horiz-adv-x="1642" 
d="M156 143h237l193 -20v53l-111 21q-138 65 -228.5 217.5t-90.5 333.5q0 338 180 524t488 186t485.5 -191t177.5 -505q0 -205 -96 -350t-222 -213l-116 -23v-53l196 20h238v-143h-588v256q155 30 281.5 155t126.5 352t-124.5 385.5t-360.5 158.5t-361 -136.5t-125 -386.5
t122 -377t283 -151v-256h-585v143z" />
    <glyph glyph-name="pi" unicode="&#x3c0;" horiz-adv-x="1359" 
d="M889 217v664h-389v-881h-164v881h-29q-43 0 -69.5 -23.5t-55.5 -69.5l-108 66q39 78 96 124t166 46h887v-143h-170v-643q0 -103 65 -103q36 0 90 12l39 -110q-106 -45 -199 -45t-126 59.5t-33 165.5z" />
    <glyph glyph-name="afii10023" unicode="&#x401;" horiz-adv-x="1097" 
d="M463 1627q0 -43 -30.5 -69t-78.5 -26t-78 26t-30 68t30 70q31 26 79 26t78 -26t30 -69zM856 1627q0 -43 -31 -69t-79 -26t-78 26t-30 68t30 70q30 26 78 26t79 -26t31 -69zM174 1434h780v-152h-610v-469h559v-151h-559v-510h621v-152h-791v1434z" />
    <glyph glyph-name="afii10051" unicode="&#x402;" horiz-adv-x="1490" 
d="M653 0h-170v1282h-446v152h1063v-152h-447v-432q135 43 251 43t195 -19.5t178 -99t99 -318.5t-125 -355.5t-352 -116.5q-119 0 -143 6v147q40 -6 149 -6q291 0 291 320q0 160 -82.5 227t-253.5 67q-90 0 -207 -45v-700z" />
    <glyph glyph-name="afii10052" unicode="&#x403;" horiz-adv-x="905" 
d="M879 1782v-43l-334 -199h-142l242 242h234zM942 1282h-598v-1282h-170v1434h768v-152z" />
    <glyph glyph-name="afii10053" unicode="&#x404;" horiz-adv-x="1193" 
d="M739 -25q-266 0 -445 186.5t-179 556.5t188 555t430 185t361 -49l-41 -152q-103 50 -285 50t-313 -118t-158 -374h627v-151h-629q11 -257 151 -397t331 -140t294 66l43 -134q-109 -84 -375 -84z" />
    <glyph glyph-name="afii10054" unicode="&#x405;" horiz-adv-x="1087" 
d="M129 1094q0 168 117 266t353 98t366 -65l-52 -150q-128 63 -354 63q-125 0 -193 -60t-68 -141t51.5 -134t128.5 -95t167 -83t167 -95q179 -127 179 -315t-130.5 -298t-372.5 -110t-394 76l58 154q46 -27 138 -53t184 -26q173 1 253 57q96 65 94 195q0 74 -51 128
t-128 95.5t-167 78.5t-167 89q-179 121 -179 325z" />
    <glyph glyph-name="afii10055" unicode="&#x406;" horiz-adv-x="595" 
d="M213 1434h170v-1434h-170v1434z" />
    <glyph glyph-name="afii10056" unicode="&#x407;" horiz-adv-x="600" 
d="M66 1624q0 45 29.5 71.5t73.5 26.5t73.5 -26.5t29.5 -71.5t-29.5 -70.5t-73.5 -25.5t-73.5 25.5t-29.5 70.5zM330 1624q0 45 29.5 71.5t73.5 26.5t74 -26.5t30 -71.5t-30 -70.5t-74 -25.5t-73.5 25.5t-29.5 70.5zM215 1434h170v-1434h-170v1434z" />
    <glyph glyph-name="afii10057" unicode="&#x408;" horiz-adv-x="595" 
d="M399 315q0 -335 -293 -335q-120 0 -176 32l33 146q57 -27 134 -27t105 60t27 165v1078h170v-1119z" />
    <glyph glyph-name="afii10058" unicode="&#x409;" horiz-adv-x="1896" 
d="M1218 -16q-168 0 -284 30v1268h-428q-20 -410 -65.5 -773t-152 -441t-175.5 -78t-117 20l22 148q20 -6 49 -6q208 0 240.5 509.5t38.5 772.5h758v-557q80 16 190 16q238 0 385.5 -98.5t147.5 -332.5t-119 -327.5t-220.5 -122t-269.5 -28.5zM1263 131q182 0 283 82.5
t101 238.5t-100 224.5t-263 68.5q-90 0 -180 -18v-584q58 -12 159 -12z" />
    <glyph glyph-name="afii10059" unicode="&#x40a;" horiz-adv-x="1994" 
d="M1327 -16q-158 0 -295 28v676h-688v-688h-170v1434h170v-594h688v594h170v-596q80 16 190 16q244 0 388.5 -89.5t144.5 -323.5t-118.5 -320t-220 -111.5t-259.5 -25.5zM1362 131q384 0 383 299q0 159 -97.5 218t-265.5 59q-85 0 -180 -19v-545q58 -12 160 -12z" />
    <glyph glyph-name="afii10060" unicode="&#x40b;" horiz-adv-x="1536" 
d="M973 750q-201 0 -320 -95v-655h-170v1282h-446v152h1063v-152h-447v-473q163 92 352 92t290.5 -91.5t101.5 -309.5v-500h-170v469q0 281 -254 281z" />
    <glyph glyph-name="afii10061" unicode="&#x40c;" horiz-adv-x="1249" 
d="M932 1782v-43l-334 -199h-141l241 242h234zM344 664v-664h-170v1434h170v-668l92 29l482 639h196l-479 -617l-86 -67l104 -82l525 -668h-215l-523 664h-96z" />
    <glyph glyph-name="afii10062" unicode="&#x40e;" horiz-adv-x="1132" 
d="M600 1624q82 0 130 41t58 115l146 -35q-23 -111 -104 -175t-229 -65q-320 0 -351 236l162 41q8 -76 57 -117t131 -41zM242 176q62 -34 129 -34t106 58t68 173l-531 1061h197l367 -756l53 -182h10l41 188l274 750h174l-362 -932q-117 -309 -171 -385t-103 -102t-143 -25
t-161 45z" />
    <glyph glyph-name="afii10145" unicode="&#x40f;" horiz-adv-x="1349" 
d="M174 0v1434h170v-1282h662v1282h170v-1434h-414l-31 -367h-106l-41 367h-410z" />
    <glyph glyph-name="afii10017" unicode="&#x410;" horiz-adv-x="1198" 
d="M856 397h-528l-144 -397h-168l543 1456h78l545 -1456h-178zM383 545h422l-160 436l-51 217h-2l-51 -221z" />
    <glyph glyph-name="afii10018" unicode="&#x411;" horiz-adv-x="1126" 
d="M174 1434h778v-152h-608v-430q105 18 184 18q521 0 521 -325.5t-150 -443t-379 -117.5t-346 30v1420zM402 131h143q139 0 231 75.5t92 217.5q0 248 -143 273.5t-222 25.5t-159 -16v-564q42 -12 58 -12z" />
    <glyph glyph-name="afii10019" unicode="&#x412;" horiz-adv-x="1196" 
d="M503 1450q146 0 229 -13q179 -28 262 -157q44 -68 44 -178t-68 -205t-202 -129v-8q211 -35 287 -207q27 -61 27 -159t-46 -178t-122 -132q-150 -102 -367 -100h-82q-190 0 -291 26v1411q183 29 329 29zM511 131q118 0 179 15q127 31 183 133q28 49 28 125q0 141 -122 206
q-91 49 -257 49h-178v-514q49 -14 167 -14zM344 803h107q101 0 165 8q169 55 223 169q19 42 19 91q0 227 -305 232q-146 0 -209 -13v-487z" />
    <glyph glyph-name="afii10020" unicode="&#x413;" horiz-adv-x="905" 
d="M942 1282h-598v-1282h-170v1434h768v-152z" />
    <glyph glyph-name="afii10021" unicode="&#x414;" horiz-adv-x="1370" 
d="M1313 -264h-117l-31 264h-1005l-31 -264h-119v416h146q63 90 133.5 415.5t70.5 866.5h766v-1282h187v-416zM956 152v1130h-436q-21 -800 -184 -1130h620z" />
    <glyph glyph-name="afii10022" unicode="&#x415;" horiz-adv-x="1097" 
d="M174 1434h780v-152h-610v-469h559v-151h-559v-510h621v-152h-791v1434z" />
    <glyph glyph-name="afii10024" unicode="&#x416;" horiz-adv-x="1650" 
d="M733 1434h164v-668l88 29l416 639h188l-413 -623l-82 -66l102 -83l457 -662h-209l-453 664h-94v-664h-164v688l-86 -29l-452 -659h-197l453 641l98 78l-94 72l-428 643h198l416 -643h92v643z" />
    <glyph glyph-name="afii10025" unicode="&#x417;" horiz-adv-x="1107" 
d="M813 410q0 268 -416 268h-112v143h52q52 0 79.5 2t108 5t163 75.5t82.5 167.5q0 236 -289 236q-203 0 -313 -54l-45 136q41 23 147 46t214 23q211 0 338.5 -82t127.5 -270q0 -102 -67.5 -195.5t-202.5 -134.5v-8q145 -20 229 -108.5t84 -220.5q0 -234 -155.5 -349
t-384.5 -115t-363 54l43 153q112 -55 338 -55q138 0 240 74.5t102 208.5z" />
    <glyph glyph-name="afii10026" unicode="&#x418;" horiz-adv-x="1394" 
d="M174 0v1434h170v-983l-14 -162h8l90 168l692 977h101v-1434h-170v971l12 164h-8l-88 -168l-693 -967h-100z" />
    <glyph glyph-name="afii10027" unicode="&#x419;" horiz-adv-x="1394" 
d="M718 1624q82 0 129.5 41t57.5 115l146 -35q-23 -111 -104 -175t-229 -65q-320 0 -351 236l161 41q8 -76 58 -117t132 -41zM174 0v1434h170v-983l-14 -162h8l90 168l692 977h101v-1434h-170v971l12 164h-8l-88 -168l-693 -967h-100z" />
    <glyph glyph-name="afii10028" unicode="&#x41a;" horiz-adv-x="1249" 
d="M344 664v-664h-170v1434h170v-668l92 29l482 639h196l-479 -617l-86 -67l104 -82l525 -668h-215l-523 664h-96z" />
    <glyph glyph-name="afii10029" unicode="&#x41b;" horiz-adv-x="1277" 
d="M934 1282h-428q-20 -410 -65.5 -773t-152 -441t-175.5 -78t-117 20l22 148q20 -6 49 -6q208 0 240.5 509.5t38.5 772.5h758v-1434h-170v1282z" />
    <glyph glyph-name="afii10030" unicode="&#x41c;" horiz-adv-x="1619" 
d="M334 0h-160v1434h127l449 -734l67 -159h4l64 164l428 729h133v-1434h-170v963l20 215h-10l-78 -197l-372 -647h-52l-395 649l-74 195h-10l29 -213v-965z" />
    <glyph glyph-name="afii10031" unicode="&#x41d;" horiz-adv-x="1376" 
d="M1032 657h-688v-657h-170v1434h170v-625h688v625h170v-1434h-170v657z" />
    <glyph glyph-name="afii10032" unicode="&#x41e;" horiz-adv-x="1400" 
d="M706 1458q288 0 438 -204q142 -189 142 -542t-152 -545q-153 -191 -439 -191t-433 196t-147 550t151 545q152 191 440 191zM693 127.5q195 -0.5 304 143.5t109 422t-103 445.5t-298 167.5t-303 -144t-108 -421t102 -445t297 -168.5z" />
    <glyph glyph-name="afii10033" unicode="&#x41f;" horiz-adv-x="1349" 
d="M1006 1282h-662v-1282h-170v1434h1002v-1434h-170v1282z" />
    <glyph glyph-name="afii10034" unicode="&#x420;" horiz-adv-x="1144" 
d="M461 1450q153 0 251 -18t177 -68q180 -111 180 -355t-172 -367q-149 -107 -385 -105h-34q-94 0 -134 8v-545h-170v1419q134 31 287 31zM504 688q385 0 385 322q0 154 -116 230q-96 63 -239 63t-190 -13v-594q20 -8 85 -8h75z" />
    <glyph glyph-name="afii10035" unicode="&#x421;" horiz-adv-x="1169" 
d="M115 720q0 370 197 567q171 171 425 171q217 0 334 -49l-41 -149q-98 47 -284 47t-309 -131q-142 -153 -142 -448t134 -448t345 -153q174 0 277 66l41 -134q-106 -82 -368 -83t-427 178q-182 196 -182 566z" />
    <glyph glyph-name="afii10036" unicode="&#x422;" horiz-adv-x="1136" 
d="M1100 1282h-447v-1282h-170v1282h-446v152h1063v-152z" />
    <glyph glyph-name="afii10037" unicode="&#x423;" horiz-adv-x="1132" 
d="M371 141q67 0 106 58.5t68 173.5l-531 1061h197l367 -756l53 -182h10l41 188l274 750h174l-362 -932q-117 -310 -171 -385.5t-103.5 -101t-142.5 -25.5t-161 45l52 141q62 -35 129 -35z" />
    <glyph glyph-name="afii10038" unicode="&#x424;" horiz-adv-x="1597" 
d="M554 150q-214 0 -342 142t-128 421t137.5 436.5t364.5 157.5q88 0 129 -9v177h168v-183q56 15 162 15q210 0 339 -145.5t129 -425.5t-141 -433t-356 -153q-94 0 -133 14v-205h-168v201q-58 -10 -161 -10zM1337 724q0 203 -82 321t-227 118q-108 0 -147 -14v-850
q30 -6 110 -6q157 0 251.5 114t94.5 317zM594 1163q-150 0 -242 -116t-92 -321t86 -319t232 -114h47q47 0 92 12v850q-50 8 -123 8z" />
    <glyph glyph-name="afii10039" unicode="&#x425;" horiz-adv-x="1265" 
d="M530 729l-436 705h205l291 -486l51 -117l49 117l307 486h189l-451 -691l471 -743h-198l-324 514l-55 123l-54 -123l-331 -514h-191z" />
    <glyph glyph-name="afii10040" unicode="&#x426;" horiz-adv-x="1406" 
d="M1350 -264h-117l-31 264h-1028v1434h170v-1282h645v1282h170v-1282h191v-416z" />
    <glyph glyph-name="afii10041" unicode="&#x427;" horiz-adv-x="1239" 
d="M544 526q-188 0 -289 91t-101 311v506h170v-476q0 -281 254 -280q201 0 317 94v662h170v-1434h-170v618q-163 -92 -351 -92z" />
    <glyph glyph-name="afii10042" unicode="&#x428;" horiz-adv-x="1796" 
d="M174 0v1434h170v-1282h469v1282h170v-1282h469v1282h170v-1434h-1448z" />
    <glyph glyph-name="afii10043" unicode="&#x429;" horiz-adv-x="1869" 
d="M174 0v1434h170v-1282h469v1282h170v-1282h469v1282h170v-1282h190v-416h-118l-31 264h-1489z" />
    <glyph glyph-name="afii10044" unicode="&#x42a;" horiz-adv-x="1290" 
d="M612 -16q-168 0 -286 30v1268h-328v152h498v-557q80 16 190 16q238 0 386.5 -99t148.5 -333t-119 -327t-220.5 -121.5t-269.5 -28.5zM656 131q184 0 284 83.5t100 239.5t-101 223.5t-263 67.5q-90 0 -180 -18v-584q58 -12 160 -12z" />
    <glyph glyph-name="afii10045" unicode="&#x42b;" horiz-adv-x="1574" 
d="M1231 1434h170v-1434h-170v1434zM448 -16q-158 0 -274 30v1420h170v-557q80 16 176 16q224 0 363 -98t139 -335t-109.5 -328t-208 -119.5t-256.5 -28.5zM842 451q0 294 -354 294q-75 0 -144 -18v-584q56 -12 158 -12q147 0 243.5 80t96.5 240z" />
    <glyph glyph-name="afii10046" unicode="&#x42c;" horiz-adv-x="1136" 
d="M459 -16q-168 0 -285 30v1420h170v-557q80 16 190 16q238 0 385.5 -98.5t147.5 -332.5t-119 -327.5t-220 -122t-269 -28.5zM503 131q182 0 283 82.5t101 238.5t-100 224.5t-263 68.5q-90 0 -180 -18v-584q58 -12 159 -12z" />
    <glyph glyph-name="afii10047" unicode="&#x42d;" horiz-adv-x="1181" 
d="M480 127q243 0 327 191.5t92 338.5h-592v152h590q-20 246 -144 372t-320 126t-296 -62l-45 133q136 80 359 80q436 0 526 -271t90 -471q0 -379 -185.5 -560t-473.5 -181q-192 0 -316 52l45 149q100 -49 343 -49z" />
    <glyph glyph-name="afii10048" unicode="&#x42e;" horiz-adv-x="1828" 
d="M1159 1458q555 0 555 -741q0 -358 -137 -550t-415 -192t-415.5 178.5t-150.5 503.5h-252v-657h-170v1434h170v-625h254q16 313 157.5 481t403.5 168zM1159 1307q-383 0 -383 -590q0 -408 138.5 -499t244.5 -91q190 0 282.5 143.5t92.5 446.5q0 408 -134 499t-241 91z" />
    <glyph glyph-name="afii10049" unicode="&#x42f;" horiz-adv-x="1165" 
d="M724 1450q144 0 267 -31v-1419h-170v625l-211 -45l-356 -580h-201l320 510l125 88q-242 52 -292 190t-50 246t42 190.5t114.5 132.5t170 71.5t241.5 21.5zM685 1303q-349 0 -349 -287q0 -147 96.5 -220t249.5 -73h139v567q-63 13 -136 13z" />
    <glyph glyph-name="afii10065" unicode="&#x430;" horiz-adv-x="1015" 
d="M387 -16q-66 0 -122 20q-113 40 -162 150q-23 54 -23 132q2 302 495 302q95 0 123 -4q6 61 7 110q1 113 -45 158t-166 45t-235 -42q-38 -13 -66 -30l-52 123q157 94 375 93t292 -104q56 -76 56 -212l-12 -461q0 -171 29 -268h-121l-43 143h-10q-64 -103 -203 -141
q-51 -14 -117 -14zM582 463q-332 0 -332 -172q0 -72 51 -118t119 -46q163 0 247 106q22 29 31 56v170q-58 4 -116 4z" />
    <glyph glyph-name="afii10066" unicode="&#x431;" horiz-adv-x="1097" 
d="M606 1020q188 0 289.5 -123t101.5 -381t-117.5 -399.5t-335.5 -141.5t-331 156t-113 490q0 489 121 617t231.5 147.5t204.5 28.5t154.5 22.5t97.5 48.5l19 -148q-40 -36 -108 -51.5t-174 -22.5t-172 -22.5t-137.5 -80.5t-90.5 -318h6q68 98 149.5 138t204.5 40zM270 510
q0 -168 69.5 -279.5t209.5 -111.5q278 0 278 401q0 255 -92 306t-157 51q-308 4 -308 -367z" />
    <glyph glyph-name="afii10067" unicode="&#x432;" horiz-adv-x="1021" 
d="M463 -14q-116 0 -305 16v1020q72 4 150.5 10t195.5 6q203 0 291 -62.5t88 -189.5q0 -72 -42 -140t-139 -101v-8q121 -23 170.5 -84.5t49.5 -163.5q0 -160 -115 -231.5t-344 -71.5zM512 129q112 0 179 39t67 133q0 166 -256 166h-180v-330q78 -8 190 -8zM523 895
q-98 0 -201 -6v-297h200q76 0 136.5 47t60.5 120t-49 104.5t-147 31.5z" />
    <glyph glyph-name="afii10068" unicode="&#x433;" horiz-adv-x="755" 
d="M756 881h-434v-881h-164v1024h598v-143z" />
    <glyph glyph-name="afii10069" unicode="&#x434;" horiz-adv-x="1107" 
d="M1063 -260h-111l-30 260h-770l-31 -260h-111v403h121q94 135 127 399.5t37 481.5h618v-881h150v-403zM750 143v738h-308q-23 -505 -147 -738h455z" />
    <glyph glyph-name="afii10070" unicode="&#x435;" horiz-adv-x="1040" 
d="M100 518q0 256 117 393t334 138q169 0 264 -74q125 -98 125 -330q0 -68 -12 -149h-658q0 -278 177 -352q63 -26 143 -26t150 25t104 58l61 -119q-133 -107 -357 -107q-224 -1 -336 143t-112 400zM547 905q-115 0 -188 -63t-87 -217h508q0 156 -59 218t-174 62z" />
    <glyph glyph-name="afii10072" unicode="&#x436;" horiz-adv-x="1349" 
d="M588 582v442h160v-463l96 29l284 434h172l-278 -416l-80 -65l105 -82l303 -461h-195l-301 461h-106v-461h-160v481l-96 -28l-302 -453h-188l324 469l69 61l-104 78l-266 416h174l282 -442h107z" />
    <glyph glyph-name="afii10073" unicode="&#x437;" horiz-adv-x="903" 
d="M803 306q0 -154 -110.5 -239t-298.5 -85t-316 63l47 135q96 -55 258 -55q256 0 256 174q0 158 -264 158h-119v133h143q77 0 139 46t62 120t-55.5 106.5t-177.5 32.5t-238 -72l-47 127q153 88 342 88q340 0 340 -252q0 -72 -46 -140t-132 -97v-8q217 -41 217 -235z" />
    <glyph glyph-name="afii10074" unicode="&#x438;" horiz-adv-x="1118" 
d="M158 0v1024h164v-625l-7 -120h9l79 127l461 618h97v-1024h-164v606l6 127h-6l-84 -131l-461 -602h-94z" />
    <glyph glyph-name="afii10075" unicode="&#x439;" horiz-adv-x="1118" 
d="M579 1270q150 0 187 166l123 -39q-17 -119 -105 -183t-209 -63q-190 0 -280 131q-31 45 -41 107l139 49q36 -168 186 -168zM158 0v1024h164v-625l-7 -120h9l79 127l461 618h97v-1024h-164v606l6 127h-6l-84 -131l-461 -602h-94z" />
    <glyph glyph-name="afii10076" unicode="&#x43a;" horiz-adv-x="978" 
d="M322 461v-461h-164v1024h164v-463l88 29l327 434h178l-317 -412l-86 -67l106 -82l343 -463h-203l-342 461h-94z" />
    <glyph glyph-name="afii10077" unicode="&#x43b;" horiz-adv-x="1030" 
d="M709 881h-297q-6 -86 -12.5 -185.5t-43 -401.5t-247.5 -302q-79 0 -119 18l24 137q25 -8 60 -8q82 0 129.5 187t58.5 698h610v-1024h-163v881z" />
    <glyph glyph-name="afii10078" unicode="&#x43c;" horiz-adv-x="1320" 
d="M309 0h-151v1024h161l287 -459l60 -119h4l61 123l268 455h164v-1024h-159v608l12 195h-10l-74 -158l-248 -401h-57l-258 401l-68 158h-8l16 -193v-610z" />
    <glyph glyph-name="afii10079" unicode="&#x43d;" horiz-adv-x="1105" 
d="M784 453h-462v-453h-164v1024h164v-428h462v428h164v-1024h-164v453z" />
    <glyph glyph-name="afii10080" unicode="&#x43e;" horiz-adv-x="1097" 
d="M100 512q0 260 116 398t333 139q336 0 422 -317q27 -99 26 -220q1 -260 -115 -398t-333 -139q-336 0 -422 317q-27 99 -27 220zM270 512q0 -267 150 -360q53 -33 129 -33q279 -2 278 393q0 271 -149 361q-53 32 -129 32q-279 2 -279 -393z" />
    <glyph glyph-name="afii10081" unicode="&#x43f;" horiz-adv-x="1095" 
d="M774 881h-452v-881h-164v1024h780v-1024h-164v881z" />
    <glyph glyph-name="afii10082" unicode="&#x440;" horiz-adv-x="1107" 
d="M530 -25q-113 0 -208 41v-426h-164v1434h112l31 -123h8q97 148 297 148t302 -121q100 -121 100 -386t-128 -416t-350 -151zM838 535q0 370 -267 370q-104 0 -164 -54t-85 -165v-508q75 -59 212 -59t221 105q83 105 83 311z" />
    <glyph glyph-name="afii10083" unicode="&#x441;" horiz-adv-x="923" 
d="M100 512q0 260 115 398t311 138t310 -59l-48 -141q-99 57 -227 57q-291 0 -291 -393q0 -268 161 -360q58 -33 144 -33q134 0 228 74l53 -125q-126 -93 -321 -93q-435 0 -435 537z" />
    <glyph glyph-name="afii10084" unicode="&#x442;" horiz-adv-x="815" 
d="M811 881h-322v-881h-163v881h-322v143h807v-143z" />
    <glyph glyph-name="afii10085" unicode="&#x443;" horiz-adv-x="954" 
d="M276 -420q-70 0 -118 21l28 141q27 -10 52 -10q57 0 110 60t88 208l-411 1024h188l246 -664l57 -196h10l45 198l199 662h166l-303 -920q-35 -100 -69 -194t-75 -168t-92 -118t-121 -44z" />
    <glyph glyph-name="afii10086" unicode="&#x444;" horiz-adv-x="1392" 
d="M90 506q0 268 110.5 401t319.5 133q57 0 98 -8v402h156v-404q62 10 121 10q203 0 305.5 -117.5t102.5 -383.5t-109.5 -415t-306.5 -149q-70 0 -113 15v-400h-156v402q-50 -17 -141 -17q-186 0 -286.5 131.5t-100.5 399.5zM1139 517q0 189 -60.5 288.5t-214.5 99.5
q-56 0 -92 -10v-778q30 -6 102 -6q131 0 198 108.5t67 297.5zM522 905q-127 0 -197.5 -95t-70.5 -298q0 -285 98 -343t159 -58t110 10v776q-50 8 -99 8z" />
    <glyph glyph-name="afii10087" unicode="&#x445;" horiz-adv-x="1054" 
d="M426 524l-344 500h201l194 -283l58 -116l59 116l199 283h184l-346 -492l366 -532h-194l-217 311l-62 123l-63 -123l-221 -311h-183z" />
    <glyph glyph-name="afii10088" unicode="&#x446;" horiz-adv-x="1122" 
d="M1077 -260h-110l-31 260h-778v1024h164v-881h444v881h164v-881h147v-403z" />
    <glyph glyph-name="afii10089" unicode="&#x447;" horiz-adv-x="1003" 
d="M407 360q-159 0 -233 78t-74 275v311h164v-279q0 -123 24.5 -164.5t59.5 -59t92 -17.5q158 0 242 65v455h164v-1024h-164v430q-116 -70 -275 -70z" />
    <glyph glyph-name="afii10090" unicode="&#x448;" horiz-adv-x="1507" 
d="M158 0v1024h164v-881h350v881h164v-881h350v881h164v-1024h-1192z" />
    <glyph glyph-name="afii10091" unicode="&#x449;" horiz-adv-x="1542" 
d="M1497 -260h-111l-30 260h-1198v1024h164v-881h350v881h164v-881h350v881h164v-881h147v-403z" />
    <glyph glyph-name="afii10092" unicode="&#x44a;" horiz-adv-x="1017" 
d="M555 512q-113 0 -164 -14v-355q80 -12 144 -12q251 0 251 193q0 82 -59 135t-172 53zM576 647q194 0 287 -83t93 -222q0 -186 -111.5 -270t-346.5 -84q-127 0 -271 12v881h-225v143h389v-391q86 14 185 14z" />
    <glyph glyph-name="afii10093" unicode="&#x44b;" horiz-adv-x="1351" 
d="M484 512q-114 0 -162 -14v-355q76 -12 145 -12q129 0 180 49.5t51 137.5t-50 141t-164 53zM507 647q361 0 361 -305q0 -186 -103 -270t-335 -84q-131 0 -272 12v1024h164v-391q86 14 185 14zM1030 1024h164v-1024h-164v1024z" />
    <glyph glyph-name="afii10094" unicode="&#x44c;" horiz-adv-x="950" 
d="M485 512q-115 0 -163 -14v-355q76 -12 145 -12q252 0 252 193q0 82 -59.5 135t-174.5 53zM508 647q195 0 288 -83t93 -222q0 -186 -111.5 -270t-347.5 -84q-131 0 -272 12v1024h164v-391q86 14 186 14z" />
    <glyph glyph-name="afii10095" unicode="&#x44d;" horiz-adv-x="952" 
d="M248 449v135h434q-10 145 -85 233t-214 88t-246 -71l-57 124q133 91 336 91q436 0 436 -537q0 -262 -121 -399.5t-330 -137.5t-319 62l47 139q99 -57 250 -57q287 -2 305 330h-436z" />
    <glyph glyph-name="afii10096" unicode="&#x44e;" horiz-adv-x="1472" 
d="M1372 512q0 -537 -420 -537q-312 0 -366 185.5t-60 292.5h-204v-453h-164v1024h164v-428h206q33 453 428 453q416 0 416 -537zM688 512q0 -393 268 -393q131 0 188.5 95t57.5 298q0 280 -87 336.5t-161 56.5q-141 0 -203.5 -95t-62.5 -298z" />
    <glyph glyph-name="afii10097" unicode="&#x44f;" horiz-adv-x="972" 
d="M558 1049q99 0 273 -33v-1016h-163v424l-158 -25l-270 -399h-199l246 350l82 76q-106 16 -181 86t-75 175t31.5 171t91 109t141.5 62.5t181 19.5zM551 905q-268 0 -268 -196q0 -92 72.5 -142.5t191.5 -50.5h19q20 0 102 4v365q-54 20 -117 20z" />
    <glyph glyph-name="afii10071" unicode="&#x451;" horiz-adv-x="1040" 
d="M344 1198q-44 0 -72 28t-28 74t27 74q28 29 72.5 29t72.5 -29q28 -28 28 -74t-28 -74t-72 -28zM840 1300q0 -46 -28 -74t-74 -28t-74 28t-28 74t28 74q28 29 74 29t74 -28.5t28 -74.5zM100 518q0 256 117 393t334 138q169 0 264 -74q125 -98 125 -330q0 -68 -12 -149
h-658q0 -278 177 -352q63 -26 143 -26t150 25t104 58l61 -119q-133 -107 -357 -107q-224 -1 -336 143t-112 400zM547 905q-115 0 -188 -63t-87 -217h508q0 156 -59 218t-174 62z" />
    <glyph glyph-name="afii10099" unicode="&#x452;" horiz-adv-x="1122" 
d="M707 -434q-28 0 -62 4v139q107 0 139.5 63t32.5 228v475q0 174 -45.5 249t-157.5 75t-190 -62.5t-100 -161.5v-575h-164v1106h-164v123h164v205h164v-205h327v-123h-327v-303h8q117 139 305 139t266 -91t78 -339v-567q0 -190 -65.5 -284.5t-208.5 -94.5z" />
    <glyph glyph-name="afii10100" unicode="&#x453;" horiz-adv-x="755" 
d="M674 1475v-43l-207 -263h-96l121 306h182zM756 881h-434v-881h-164v1024h598v-143z" />
    <glyph glyph-name="afii10101" unicode="&#x454;" horiz-adv-x="966" 
d="M554 -25q-217 0 -335.5 144.5t-118.5 395.5t131 392.5t331 141.5t317 -60l-48 -141q-99 57 -239 58t-224.5 -80t-101.5 -240h484v-135h-486q21 -233 140.5 -282.5t198.5 -49.5q147 0 241 74l53 -125q-126 -93 -343 -93z" />
    <glyph glyph-name="afii10102" unicode="&#x455;" horiz-adv-x="862" 
d="M478 905q-115 0 -156.5 -31t-41.5 -95t36 -94q56 -46 165 -84t163 -75q128 -88 128 -241q0 -217 -200 -286q-67 -24 -170 -24q-183 0 -322 76l49 139q126 -72 282 -72q197 1 197 161q0 61 -47 105t-195 93t-214 144q-37 53 -37 143q0 147 84.5 216.5t214.5 69.5t204 -20
t130 -47l-39 -135q-116 57 -231 57z" />
    <glyph glyph-name="afii10103" unicode="&#x456;" horiz-adv-x="548" 
d="M193 1024h163v-1024h-163v1024zM158 1335q0 47 31 81q32 34 81 34t84 -34t35 -81t-35 -78t-84 -31t-81 31q-31 31 -31 78z" />
    <glyph glyph-name="afii10104" unicode="&#x457;" horiz-adv-x="569" 
d="M59 1339q0 45 26 73t72 28t72.5 -28t26.5 -73t-26.5 -73.5t-72.5 -28.5t-72 28.5t-26 73.5zM315 1339q0 45 26 73t72 28t72.5 -28t26.5 -73t-26.5 -73.5t-72.5 -28.5t-72 28.5t-26 73.5zM201 1024h164v-1024h-164v1024z" />
    <glyph glyph-name="afii10105" unicode="&#x458;" horiz-adv-x="546" 
d="M80 -434q-28 0 -62 4v139q108 0 140 65t32 232v1018h164v-1079q0 -190 -65 -285q-66 -94 -209 -94zM156 1335q0 47 31 81q32 34 81 34t84 -34t35 -81t-35 -78t-84 -31t-81 31q-31 31 -31 78z" />
    <glyph glyph-name="afii10106" unicode="&#x459;" horiz-adv-x="1501" 
d="M1058 647q196 0 289 -83t93 -222q0 -186 -111.5 -270t-347.5 -84q-131 0 -272 12v881h-297q-6 -86 -12.5 -185.5t-43 -401.5t-247.5 -302q-79 0 -119 18l24 137q25 -8 60 -8q82 0 129.5 187t58.5 698h610v-391q85 14 186 14zM1036 512q-115 0 -164 -14v-357
q76 -12 146 -12q252 0 252 195q0 82 -59.5 135t-174.5 53z" />
    <glyph glyph-name="afii10107" unicode="&#x45a;" horiz-adv-x="1576" 
d="M1120 512q-107 0 -172 -14v-355q76 -12 146 -12q252 0 252 193q0 82 -59.5 135t-166.5 53zM1134 647q195 0 288.5 -82.5t93.5 -222.5q0 -186 -112 -270t-347 -84q-131 0 -273 12v457h-462v-457h-164v1024h164v-424h462v424h164v-391q86 14 186 14z" />
    <glyph glyph-name="afii10108" unicode="&#x45b;" horiz-adv-x="1122" 
d="M637 942q188 0 266 -91t78 -339v-512h-164v475q0 174 -45.5 249t-157.5 75t-190 -62.5t-100 -161.5v-575h-164v1106h-164v123h164v205h164v-205h327v-123h-327v-303h8q117 139 305 139z" />
    <glyph glyph-name="afii10109" unicode="&#x45c;" horiz-adv-x="978" 
d="M707 1475v-43l-207 -263h-97l121 306h183zM322 461v-461h-164v1024h164v-463l88 29l327 434h178l-317 -412l-86 -67l106 -82l343 -463h-203l-342 461h-94z" />
    <glyph glyph-name="afii10110" unicode="&#x45e;" horiz-adv-x="954" 
d="M508 1270q66 0 117 39t69 127l123 -39q-18 -119 -105 -183t-208 -63q-191 0 -281 131q-31 45 -41 107l140 49q36 -168 186 -168zM276 -420q-70 0 -118 21l28 141q27 -10 52 -10q57 0 110 60t88 208l-411 1024h188l246 -664l57 -196h10l45 198l199 662h166l-303 -920
q-35 -100 -69 -194t-75 -168t-92 -118t-121 -44z" />
    <glyph glyph-name="afii10193" unicode="&#x45f;" horiz-adv-x="1095" 
d="M158 0v1024h164v-881h452v881h164v-1024h-299l-31 -367h-106l-41 367h-303z" />
    <glyph glyph-name="afii10146" unicode="&#x462;" horiz-adv-x="1267" 
d="M590 -16q-168 0 -285 30v1112h-305v144h305v207h170v-207h424v-144h-424v-252q85 17 193 17q236 0 383 -97.5t147 -331.5t-118.5 -327.5t-220 -122t-269.5 -28.5zM1018 451q0 292 -363 292q-90 0 -180 -18v-582q57 -12 159 -12q181 0 282.5 81.5t101.5 238.5z" />
    <glyph glyph-name="afii10194" unicode="&#x463;" horiz-adv-x="1017" 
d="M575 647q195 0 288 -83t93 -222q0 -186 -111.5 -270t-346.5 -84q-131 0 -273 12v889h-223v135h223v410h164v-410h328v-135h-328v-256q86 14 186 14zM554 512q-114 0 -165 -14v-355q80 -12 146 -12q251 0 251 193q0 82 -59 135t-173 53z" />
    <glyph glyph-name="afii10147" unicode="&#x472;" horiz-adv-x="1400" 
d="M705 1458q287 0 434 -196.5t147 -549.5t-152.5 -545t-437.5 -192t-433 196.5t-148 550.5t151.5 545t438.5 191zM698 1307q-260 0 -327.5 -181.5t-75.5 -322.5h811q-16 244 -128 374t-280 130zM704 127q169 0 280 122t122 402h-811q16 -264 128 -394t281 -130z" />
    <glyph glyph-name="afii10195" unicode="&#x473;" horiz-adv-x="1097" 
d="M100 512q0 260 116 398.5t338 138.5t332.5 -142.5t110.5 -398.5t-115.5 -394.5t-332.5 -138.5q-336 0 -392.5 208t-56.5 329zM549 905q-182 0 -228.5 -118.5t-50.5 -211.5h557q-30 330 -278 330zM549 119q257 0 278 325h-557q10 -160 88 -242.5t191 -82.5z" />
    <glyph glyph-name="afii10148" unicode="&#x474;" horiz-adv-x="1224" 
d="M1189 1448q85 0 157 -45l-50 -143q-64 36 -131 36t-106 -53t-80 -178l-356 -1088h-76l-551 1457h184l365 -985l49 -218h4l33 222q39 135 81 271t87 290t87 243t85 131t88 51t130 9z" />
    <glyph glyph-name="afii10196" unicode="&#x475;" horiz-adv-x="1038" 
d="M967 1038q75 0 118 -18l-24 -152q-43 19 -74 19q-74 0 -141 -158l-311 -752h-70l-445 1047h189l246 -600l57 -195h2l51 199q29 74 46.5 117t66 177t112 225t177.5 91z" />
    <glyph glyph-name="uni048A" unicode="&#x48a;" horiz-adv-x="1413" 
d="M174 0v1434h170v-983l-14 -162h8l90 168l692 977h101v-1291h213v-45l-187 -364h-110l92 266h-178v971l12 164h-8l-88 -168l-693 -967h-100zM713 1624q82 0 130 41t58 115l146 -35q-23 -111 -104 -175.5t-229 -64.5q-319 0 -352 236l162 41q8 -76 57.5 -117t131.5 -41z
" />
    <glyph glyph-name="uni048B" unicode="&#x48b;" horiz-adv-x="1148" 
d="M158 0v1024h164v-625l-7 -120h9l79 127l461 618h97v-881h204v-45l-186 -358h-111l93 260h-164v606l6 127h-6l-84 -131l-461 -602h-94zM575 1151q-190 0 -250.5 88t-70.5 150l139 49q36 -168 144 -168t159.5 39t69.5 127l123 -39q-18 -119 -105.5 -182.5t-208.5 -63.5z
" />
    <glyph glyph-name="uni048C" unicode="&#x48c;" horiz-adv-x="1267" 
d="M305 1126h-305v144h305v207h170v-207h424v-144h-424v-252q85 17 193 17q235 0 367 -87q163 -108 163 -342t-162 -362q-76 -60 -177 -88t-269 -28t-285 30v1112zM634 131q272 0 356 179q28 60 28 144t-31 140q-81 149 -332 149q-90 0 -180 -18v-582q57 -12 159 -12z" />
    <glyph glyph-name="uni048D" unicode="&#x48d;" horiz-adv-x="1017" 
d="M575 647q197 0 289 -83t92 -222q0 -186 -112 -270t-346 -84q-131 0 -273 12v889h-223v135h223v410h164v-410h328v-135h-328v-256q86 14 186 14zM554 512q-114 0 -165 -14v-355q80 -12 146 -12q251 0 251 193q0 82 -59 135t-173 53z" />
    <glyph glyph-name="uni048E" unicode="&#x48e;" horiz-adv-x="1144" 
d="M461 1450q153 0 250.5 -18.5t227.5 -98t130 -323.5q0 -154 -64.5 -252.5t-166.5 -151.5l139 -200l-94 -68l-158 225q-98 -27 -213 -26h-64q-64 0 -104 8v-545h-170v1419q134 31 287 31zM889 1010q0 154 -106 223.5t-249 69.5t-190 -13v-594q20 -8 36 -8h124q82 0 135 12
l-131 191l88 55l145 -211q148 78 148 275z" />
    <glyph glyph-name="uni048F" unicode="&#x48f;" horiz-adv-x="1107" 
d="M532 -25q-115 0 -210 41v-426h-164v1434h112l31 -123h8q97 148 297 148t301 -121t101 -411t-174 -439l108 -127l-86 -76l-121 141q-88 -41 -203 -41zM838 556q0 252 -96.5 300.5t-170.5 48.5q-202 0 -249 -219v-510q73 -57 208 -57q63 -2 111 18l-113 133l80 64l119 -141
q111 111 111 363z" />
    <glyph glyph-name="afii10050" unicode="&#x490;" horiz-adv-x="905" 
d="M942 1282h-598v-1282h-170v1434h621l32 274h115v-426z" />
    <glyph glyph-name="afii10098" unicode="&#x491;" horiz-adv-x="755" 
d="M322 881v-881h-164v1024h450l33 274h115v-417h-434z" />
    <glyph glyph-name="uni0492" unicode="&#x492;" horiz-adv-x="987" 
d="M985 1282h-598v-494h440v-135h-440v-653h-170v653h-197v135h197v646h768v-152z" />
    <glyph glyph-name="uni0493" unicode="&#x493;" horiz-adv-x="788" 
d="M782 881h-434v-310h346v-122h-346v-449h-164v449h-184v122h184v453h598v-143z" />
    <glyph glyph-name="uni0494" unicode="&#x494;" horiz-adv-x="1181" 
d="M560 623q-81 0 -216 -45v-578h-170v1434h768v-152h-598v-555q134 43 250 43t194 -22.5t178.5 -112t100.5 -363.5t-124 -404t-353 -130q-118 0 -144 6v152q47 -7 150 -7q291 0 291 375q0 193 -83 276t-244 83z" />
    <glyph glyph-name="uni0495" unicode="&#x495;" horiz-adv-x="1095" 
d="M538 416q-121 0 -216 -43v-373h-164v1024h596v-143h-432v-365q98 43 218 43t193.5 -23.5t161.5 -109.5t88 -344t-107.5 -384t-336.5 -126q-118 0 -144 6v143q40 -6 150 -6q274 0 274 357q0 182 -80 263t-201 81z" />
    <glyph glyph-name="uni0496" unicode="&#x496;" horiz-adv-x="1677" 
d="M733 1434h164v-668l88 29l416 639h188l-413 -623l-82 -66l102 -83l352 -510h119v-416h-119l-30 264h-74l-453 664h-94v-664h-164v688l-86 -29l-452 -659h-197l453 641l98 78l-94 72l-428 643h198l416 -643h92v643z" />
    <glyph glyph-name="uni0497" unicode="&#x497;" horiz-adv-x="1419" 
d="M588 582v442h160v-463l96 29l284 434h172l-278 -416l-80 -65l105 -82l208 -318h154v-403h-111l-30 260h-113l-301 461h-106v-461h-160v481l-96 -28l-302 -453h-188l324 469l69 61l-104 78l-266 416h174l282 -442h107z" />
    <glyph glyph-name="uni0498" unicode="&#x498;" horiz-adv-x="1107" 
d="M471 129q137 0 239.5 73t102.5 207t-100.5 201.5t-315.5 67.5h-112v143h52q52 0 79.5 2t108 5t163 75.5t82.5 167.5q0 236 -289 236q-203 0 -313 -54l-45 136q41 23 147 46t214 23q211 0 338.5 -82t127.5 -270q0 -102 -67.5 -195.5t-202.5 -134.5v-8q145 -20 229 -108.5
t84 -235.5q0 -199 -131 -313t-325 -131l-29 -347h-107l-39 344q-160 7 -272 52l43 153q108 -53 338 -53z" />
    <glyph glyph-name="uni0499" unicode="&#x499;" horiz-adv-x="903" 
d="M639 299q0 158 -264 158h-119v133h143q77 0 139 46t62 120t-55.5 106.5t-177.5 32.5t-238 -72l-47 127q153 88 342 88q340 0 340 -252q0 -72 -46 -140t-132 -97v-8q121 -23 169 -86t48 -171t-77 -189t-232 -105l-29 -357h-107l-39 351q-124 6 -241 61l47 135
q96 -55 258 -55q256 0 256 174z" />
    <glyph glyph-name="uni049A" unicode="&#x49a;" horiz-adv-x="1259" 
d="M344 664v-664h-170v1434h170v-668l92 29l482 639h196l-479 -617l-86 -67l104 -82l406 -516h182v-416h-119l-30 264h-129l-523 664h-96z" />
    <glyph glyph-name="uni049B" unicode="&#x49b;" horiz-adv-x="1036" 
d="M322 461v-461h-164v1024h164v-463l88 29l327 434h178l-317 -412l-86 -67l106 -82l236 -320h162v-403h-111l-31 260h-116l-342 461h-94z" />
    <glyph glyph-name="uni049C" unicode="&#x49c;" horiz-adv-x="1402" 
d="M455 664h-111v-664h-170v1434h170v-668l111 10v258h135v-243l47 4l438 639h195l-443 -617l-84 -67l103 -82l485 -668h-213l-475 664h-53v-265h-135v265z" />
    <glyph glyph-name="uni049D" unicode="&#x49d;" horiz-adv-x="1101" 
d="M420 461h-98v-461h-164v1024h164v-463l98 10v252h129v-239l53 6l268 434h172l-258 -412l-90 -67l107 -82l282 -463h-192l-283 461h-59v-260h-129v260z" />
    <glyph glyph-name="uni049E" unicode="&#x49e;" horiz-adv-x="1359" 
d="M0 1303h285v131h170v-131h250v-136h-250v-401l100 29l475 639h195l-473 -617l-90 -67l106 -82l520 -668h-217l-516 664h-100v-664h-170v1163h-285v140z" />
    <glyph glyph-name="uni049F" unicode="&#x49f;" horiz-adv-x="985" 
d="M-4 1255h166v179h164v-179h325v-122h-325v-572l84 29l317 434h191l-314 -412l-84 -67l103 -82l342 -463h-203l-342 461h-94v-461h-164v1133h-166v122z" />
    <glyph glyph-name="uni04A0" unicode="&#x4a0;" horiz-adv-x="1402" 
d="M330 1282h-330v152h500v-668l90 29l481 639h199l-482 -617l-83 -67l102 -82l526 -668h-217l-522 664h-94v-664h-170v1282z" />
    <glyph glyph-name="uni04A1" unicode="&#x4a1;" horiz-adv-x="1048" 
d="M391 461v-461h-164v881h-225v143h389v-463l86 29l330 434h176l-317 -412l-84 -67l106 -82l342 -463h-203l-342 461h-94z" />
    <glyph glyph-name="uni04A2" unicode="&#x4a2;" horiz-adv-x="1447" 
d="M1032 657h-688v-657h-170v1434h170v-625h688v625h170v-1282h189v-416h-119l-31 264h-209v657z" />
    <glyph glyph-name="uni04A3" unicode="&#x4a3;" horiz-adv-x="1118" 
d="M784 453h-462v-453h-164v1024h164v-428h462v428h164v-881h150v-403h-111l-31 260h-172v453z" />
    <glyph glyph-name="uni04A4" unicode="&#x4a4;" horiz-adv-x="1763" 
d="M1800 1282h-598v-1282h-170v657h-688v-657h-170v1434h170v-625h688v625h768v-152z" />
    <glyph glyph-name="uni04A5" unicode="&#x4a5;" horiz-adv-x="1382" 
d="M1382 881h-434v-881h-164v453h-462v-453h-164v1024h164v-428h462v428h598v-143z" />
    <glyph glyph-name="uni04A6" unicode="&#x4a6;" horiz-adv-x="2013" 
d="M1427 -111q293 0 293 283.5t-66.5 350.5t-123.5 83.5t-149 16.5t-205 -45v-578h-170v1282h-662v-1282h-170v1434h1002v-707q124 43 244 43t200 -22.5t180.5 -112t100.5 -363.5t-125 -404t-355 -130q-119 0 -143 6v152q47 -7 149 -7z" />
    <glyph glyph-name="uni04A7" unicode="&#x4a7;" horiz-adv-x="1712" 
d="M1156 416q-120 0 -218 -43v-373h-164v881h-452v-881h-164v1024h780v-508q100 43 218 43t190.5 -23.5t161.5 -109.5t89 -344t-106.5 -384t-335.5 -126q-119 0 -143 6v143q40 -6 149 -6q273 0 273 357q0 182 -79 263t-199 81z" />
    <glyph glyph-name="uni04A8" unicode="&#x4a8;" horiz-adv-x="1660" 
d="M766 -25q-299 0 -475 201t-176 547t159.5 540.5t448.5 194.5v-151q-195 0 -311.5 -147t-116.5 -441q0 -245 134 -422.5t337 -177.5q68 0 98 12q-126 75 -202 248t-76 347q0 321 132 494t350 173t335 -153t117 -408t-92 -441t-230 -268q10 -2 13 -2h30q151 0 236 61
l51 -133q-39 -31 -96.5 -52.5t-184.5 -21.5t-223 62q-106 -62 -258 -62zM766 756q0 -182 71.5 -342t202.5 -234q122 69 210.5 236t88.5 387q0 310 -99.5 374t-165.5 64t-120.5 -29.5t-95.5 -92t-66.5 -161t-25.5 -202.5z" />
    <glyph glyph-name="uni04A9" unicode="&#x4a9;" horiz-adv-x="1351" 
d="M100 519q0 249 114 388.5t337 141.5v-144q-281 -2 -281 -391q0 -170 83 -282.5t243 -112.5q69 0 102 20q-74 45 -125 147t-51 212q0 229 86 377.5t274 148.5t274.5 -122t86.5 -298t-72 -306.5t-170 -172.5q31 -14 78 -14q99 0 162 67l51 -123q-37 -35 -99.5 -57.5
t-135.5 -22.5q-137 0 -211 74q-105 -74 -275 -74q-224 0 -347.5 147.5t-123.5 396.5zM692 524q0 -117 46 -214t124 -150q138 64 174.5 205t36.5 207q0 131 -47.5 220t-134.5 89q-199 0 -199 -357z" />
    <glyph glyph-name="uni04AA" unicode="&#x4aa;" horiz-adv-x="1169" 
d="M115 732q0 186 54 326t183.5 270t365.5 130t353 -49l-41 -149q-98 47 -284 47t-318.5 -142.5t-132.5 -437.5t133 -446.5t346 -151.5q173 0 277 64l41 -134q-91 -71 -293 -82l-29 -344h-106l-39 353q-358 53 -434 306.5t-76 439.5z" />
    <glyph glyph-name="uni04AB" unicode="&#x4ab;" horiz-adv-x="923" 
d="M575 119q134 0 228 74l53 -125q-90 -66 -223 -84l-29 -351h-106l-39 347q-359 44 -359 532q0 260 115 398.5t330 138.5q175 0 291 -60l-48 -141q-99 57 -227 57q-291 0 -291 -393q0 -270 109.5 -331.5t195.5 -61.5z" />
    <glyph glyph-name="uni04AC" unicode="&#x4ac;" horiz-adv-x="1136" 
d="M483 1282h-446v152h1063v-152h-447v-1130h189v-416h-119l-31 264h-209v1282z" />
    <glyph glyph-name="uni04AD" unicode="&#x4ad;" horiz-adv-x="815" 
d="M326 881h-322v143h807v-143h-322v-738h152v-403h-111l-30 260h-174v881z" />
    <glyph glyph-name="uni04AE" unicode="&#x4ae;" horiz-adv-x="1142" 
d="M659 0h-170v569l-473 865h199l336 -627l35 -125h2l37 129l321 623h182l-469 -863v-571z" />
    <glyph glyph-name="uni04AF" unicode="&#x4af;" horiz-adv-x="991" 
d="M588 -410h-164v410l-404 1024h189l250 -664l57 -217h2l51 222l226 659h176l-383 -1024v-410z" />
    <glyph glyph-name="uni04B0" unicode="&#x4b0;" horiz-adv-x="1142" 
d="M182 584h299l-465 850h199l336 -627l35 -125h2l37 129l321 623h182l-460 -850h299v-127h-308v-457h-170v457h-307v127z" />
    <glyph glyph-name="uni04B1" unicode="&#x4b1;" horiz-adv-x="991" 
d="M172 0h252l-404 1024h189l250 -664l57 -217h2l51 222l226 659h176l-383 -1024h239v-123h-239v-287h-164v287h-252v123z" />
    <glyph glyph-name="uni04B2" unicode="&#x4b2;" horiz-adv-x="1327" 
d="M1309 152v-416h-119l-31 264h-151l-324 514l-55 123l-54 -123l-331 -514h-191l477 729l-436 705h205l291 -486l51 -117l49 117l307 486h189l-451 -691l375 -591h199z" />
    <glyph glyph-name="uni04B3" unicode="&#x4b3;" horiz-adv-x="1075" 
d="M1055 143v-403h-111l-31 260h-110l-217 311l-62 123l-63 -123l-221 -311h-183l369 524l-344 500h201l194 -283l58 -116l59 116l199 283h184l-346 -492l268 -389h156z" />
    <glyph glyph-name="uni04B4" unicode="&#x4b4;" horiz-adv-x="1716" 
d="M1657 -264h-117l-31 264h-1026v1282h-446v152h989v-152h-373v-1130h645v1282h170v-1282h189v-416z" />
    <glyph glyph-name="uni04B5" unicode="&#x4b5;" horiz-adv-x="1292" 
d="M1245 -260h-110l-31 260h-778v881h-322v143h793v-143h-308v-738h445v881h164v-881h147v-403z" />
    <glyph glyph-name="uni04B6" unicode="&#x4b6;" horiz-adv-x="1308" 
d="M544 526q-188 0 -289 91t-101 311v506h170v-476q0 -281 254 -280q201 0 317 94v662h170v-1282h188v-416h-118l-31 264h-209v618q-163 -92 -351 -92z" />
    <glyph glyph-name="uni04B7" unicode="&#x4b7;" horiz-adv-x="1042" 
d="M407 360q-159 0 -233 78t-74 275v311h164v-279q0 -122 24.5 -165t59.5 -59.5t92 -16.5q158 0 242 65v455h164v-881h151v-403h-110l-31 260h-174v430q-116 -70 -275 -70z" />
    <glyph glyph-name="uni04B8" unicode="&#x4b8;" horiz-adv-x="1255" 
d="M690 297h-135v229q-198 0 -299.5 90t-101.5 312v506h170v-476q0 -268 231 -280v254h135v-246q134 20 221 86v662h170v-1434h-170v618q-84 -50 -221 -77v-244z" />
    <glyph glyph-name="uni04B9" unicode="&#x4b9;" horiz-adv-x="1017" 
d="M549 139h-129v221q-169 0 -244.5 77.5t-75.5 275.5v311h164v-279q0 -118 21.5 -159t52.5 -59.5t82 -22.5v260h129v-252q99 19 147 57v455h164v-1024h-164v430q-57 -40 -147 -57v-234z" />
    <glyph glyph-name="uni04BA" unicode="&#x4ba;" horiz-adv-x="1239" 
d="M696 907q189 0 290 -91t101 -310v-506h-169v475q0 281 -254 281q-204 0 -320 -94v-662h-170v1434h170v-619q163 92 352 92z" />
    <glyph glyph-name="uni04BB" unicode="&#x4bb;" horiz-adv-x="1120" 
d="M635 1049q187 0 265 -90t79 -341v-618h-164v584q0 171 -47.5 246t-157.5 75t-188 -62t-100 -161v-682h-164v1434h164v-525h8q118 140 305 140z" />
    <glyph glyph-name="uni04BC" unicode="&#x4bc;" horiz-adv-x="1585" 
d="M162 938q0 -76 35.5 -111.5t140.5 -35.5h18q19 0 33 2q14 319 157.5 492t402.5 173t390 -153.5t131 -434.5q0 -102 -18 -219h-891q16 -268 133 -396t340 -128q160 0 301 86l45 -137q-163 -101 -379 -101q-426 0 -516 249t-96 427h-76q-172 0 -241.5 71t-69.5 175t57 164
h160q-57 -47 -57 -123zM1300 919q0 160 -87 278t-268 118t-278.5 -137.5t-107.5 -382.5h733q8 58 8 124z" />
    <glyph glyph-name="uni04BD" unicode="&#x4bd;" horiz-adv-x="1263" 
d="M774 -25q-221 0 -333.5 136.5t-116.5 382.5h-25q-140 0 -211.5 68t-71.5 176t84 192h160q-96 -68 -96 -180q0 -82 51 -102.5t79 -20.5t36 2q25 205 138.5 312.5t293.5 107.5t290.5 -85t110.5 -319q0 -68 -12 -149h-657q0 -377 319 -377q80 0 149.5 24.5t104.5 57.5
l61 -119q-133 -107 -354 -107zM770 905q-115 0 -187.5 -63.5t-86.5 -216.5h508q0 156 -59.5 218t-174.5 62z" />
    <glyph glyph-name="uni04BE" unicode="&#x4be;" horiz-adv-x="1585" 
d="M313 651q-172 0 -241.5 71t-69.5 175t57 164h160q-57 -47 -57 -123t35.5 -111.5t140.5 -35.5h18q19 0 33 2q14 319 157.5 492t402.5 173t390 -153.5t131 -434.5q0 -102 -18 -219h-891q16 -268 133 -396t340 -126q163 0 301 84l45 -137q-144 -90 -333 -99l-29 -344h-107
l-39 353q-215 33 -343 193.5t-140 471.5h-76zM1300 919q0 160 -87 278t-268 118t-278.5 -137.5t-107.5 -382.5h733q8 58 8 124z" />
    <glyph glyph-name="uni04BF" unicode="&#x4bf;" horiz-adv-x="1263" 
d="M494 496q0 -379 319 -379q80 0 149.5 24.5t104.5 57.5l61 -117q-98 -79 -272 -100l-29 -349h-106l-39 351q-349 56 -358 510h-25q-140 0 -211.5 67.5t-71.5 177.5q0 66 20.5 107t63.5 84h160q-96 -68 -96 -180q0 -82 51 -102.5t79 -20.5t36 2q25 205 138.5 312.5
t293.5 107.5t290.5 -85t110.5 -319q0 -68 -12 -149h-657zM770 905q-115 0 -187.5 -63.5t-86.5 -216.5h508q0 156 -59.5 218t-174.5 62z" />
    <glyph glyph-name="uni04C0" unicode="&#x4c0;" horiz-adv-x="595" 
d="M213 1434h170v-1434h-170v1434z" />
    <glyph glyph-name="uni04C3" unicode="&#x4c3;" horiz-adv-x="1228" 
d="M440 664h-96v-664h-170v1434h170v-668l92 29l482 639h196l-459 -586l-116 -78h129q218 -50 311.5 -188.5t93.5 -429.5v-37q0 -424 -153.5 -485.5t-245.5 -61.5h-20q-21 0 -38 2v149q161 0 224 95t63 351t-111.5 377.5t-351.5 121.5z" />
    <glyph glyph-name="uni04C4" unicode="&#x4c4;" horiz-adv-x="985" 
d="M739 33q0 215 -86 312t-237 97h-94v-442h-164v1024h164v-481l88 28l327 453h178l-319 -430l-74 -53l90 -13q242 -53 266.5 -232.5t24.5 -283.5q0 -216 -97.5 -333t-264.5 -117h-26q-26 0 -44 4v141q10 -2 13 -2h24q111 0 171 84t60 244z" />
    <glyph glyph-name="uni04C5" unicode="&#x4c5;" horiz-adv-x="1273" 
d="M934 1282h-428q-20 -410 -65.5 -773t-152 -441t-175.5 -78t-117 20l22 148q20 -6 49 -6q208 0 240.5 509.5t38.5 772.5h758v-1291h190v-45l-186 -364h-111l93 266h-156v1282z" />
    <glyph glyph-name="uni04C6" unicode="&#x4c6;" horiz-adv-x="1056" 
d="M709 881h-297q-6 -86 -12.5 -185.5t-43 -401.5t-247.5 -302q-74 0 -119 18l24 137q25 -8 60 -8q82 0 129.5 187t58.5 698h610v-881h205v-45l-186 -358h-111l92 260h-163v881z" />
    <glyph glyph-name="uni04C7" unicode="&#x4c7;" horiz-adv-x="1376" 
d="M1202 -55q0 -190 -64.5 -284.5t-207.5 -94.5h-24q-23 0 -40 4v143q108 0 137 59.5t29 227.5v657h-688v-657h-170v1434h170v-625h688v625h170v-1489z" />
    <glyph glyph-name="uni04C8" unicode="&#x4c8;" horiz-adv-x="1105" 
d="M674 -434q-28 0 -62 4v139q107 0 139.5 63t32.5 228v453h-462v-453h-164v1024h164v-428h462v428h164v-1079q0 -190 -65.5 -284.5t-208.5 -94.5z" />
    <glyph glyph-name="uni04C9" unicode="&#x4c9;" horiz-adv-x="1394" 
d="M1032 657h-688v-657h-170v1434h170v-625h688v625h170v-1291h213v-45l-186 -364h-111l92 266h-178v657z" />
    <glyph glyph-name="uni04CA" unicode="&#x4ca;" horiz-adv-x="1138" 
d="M784 453h-462v-453h-164v1024h164v-428h462v428h164v-881h205v-45l-186 -364l-111 6l92 260h-164v453z" />
    <glyph glyph-name="uni04CB" unicode="&#x4cb;" horiz-adv-x="1239" 
d="M544 526q-188 0 -289 91t-101 311v506h170v-476q0 -281 254 -280q201 0 317 94v662h170v-1434h-209l-31 -264h-118v416h188v466q-163 -92 -351 -92z" />
    <glyph glyph-name="uni04CC" unicode="&#x4cc;" horiz-adv-x="1003" 
d="M410 367q-160 0 -235 77t-75 273v307h164v-274q0 -121 24.5 -164t59.5 -59.5t92 -16.5q158 0 242 65v449h164v-1024h-180l-31 -260h-111v397h158v297q-112 -67 -272 -67z" />
    <glyph glyph-name="uni04CD" unicode="&#x4cd;" horiz-adv-x="1640" 
d="M334 0h-160v1434h127l449 -734l67 -159h4l64 164l428 729h133v-1291h213v-45l-186 -364h-111l92 266h-178v963l20 215h-10l-78 -197l-372 -647h-52l-395 649l-74 195h-10l29 -213v-965z" />
    <glyph glyph-name="uni04CE" unicode="&#x4ce;" horiz-adv-x="1353" 
d="M309 0h-151v1024h161l287 -459l60 -119h4l61 123l268 455h164v-881h205v-45l-186 -358h-111l92 260h-159v608l12 195h-10l-74 -158l-248 -401h-57l-258 401l-68 158h-8l16 -193v-610z" />
    <glyph glyph-name="uni04CF" unicode="&#x4cf;" horiz-adv-x="520" 
d="M178 1434h164v-1434h-164v1434z" />
    <glyph glyph-name="uni04D0" unicode="&#x4d0;" horiz-adv-x="1198" 
d="M600 1624q82 0 130 41t58 115l146 -35q-23 -111 -104 -175t-229 -65q-320 0 -351 236l162 41q8 -76 57 -117t131 -41zM856 397h-528l-144 -397h-168l543 1456h78l545 -1456h-178zM383 545h422l-160 436l-51 217h-2l-51 -221z" />
    <glyph glyph-name="uni04D1" unicode="&#x4d1;" horiz-adv-x="1015" 
d="M506 1270q66 0 117 39t69 127l123 -39q-18 -119 -105 -183t-208 -63q-191 0 -281 131q-31 45 -41 107l139 49q36 -168 187 -168zM387 -16q-66 0 -122 20q-113 40 -162 150q-23 54 -23 132q2 302 495 302q95 0 123 -4q6 61 7 110q1 113 -45 158t-166 45t-235 -42
q-38 -13 -66 -30l-52 123q157 94 375 93t292 -104q56 -76 56 -212l-12 -461q0 -171 29 -268h-121l-43 143h-10q-64 -103 -203 -141q-51 -14 -117 -14zM582 463q-332 0 -332 -172q0 -72 51 -118t119 -46q163 0 247 106q22 29 31 56v170q-58 4 -116 4z" />
    <glyph glyph-name="uni04D2" unicode="&#x4d2;" horiz-adv-x="1198" 
d="M508 1627q0 -43 -30 -69t-78 -26t-78 26t-30 68t30 70q30 26 78 26t78 -26t30 -69zM792 1532q-48 0 -78 26t-30 68t30 70q30 26 78 26t78 -26t30 -69t-30 -69t-78 -26zM856 397h-528l-144 -397h-168l543 1456h78l545 -1456h-178zM383 545h422l-160 436l-51 217h-2
l-51 -221z" />
    <glyph glyph-name="uni04D3" unicode="&#x4d3;" horiz-adv-x="1015" 
d="M301 1198q-45 0 -73 28t-28 74t28 74q28 29 73 29t73 -28.5t28 -74.5t-28 -74t-73 -28zM696 1403q46 0 74 -29q28 -28 27 -74q0 -46 -27.5 -74t-73.5 -28t-74 28t-28 74t28 74.5t74 28.5zM387 -16q-66 0 -122 20q-113 40 -162 150q-23 54 -23 132q2 302 495 302
q95 0 123 -4q6 61 7 110q1 113 -45 158t-166 45t-235 -42q-38 -13 -66 -30l-52 123q157 94 375 93t292 -104q56 -76 56 -212l-12 -461q0 -171 29 -268h-121l-43 143h-10q-64 -103 -203 -141q-51 -14 -117 -14zM582 463q-332 0 -332 -172q0 -72 51 -118t119 -46
q163 0 247 106q22 29 31 56v170q-58 4 -116 4z" />
    <glyph glyph-name="uni04D4" unicode="&#x4d4;" horiz-adv-x="1732" 
d="M809 549v680h-8l-70 -211l-272 -469h350zM809 406h-438l-230 -406h-186l850 1434h784v-152h-610v-469h559v-151h-559v-510h620v-152h-790v406z" />
    <glyph glyph-name="uni04D5" unicode="&#x4d5;" horiz-adv-x="1630" 
d="M582 463q-332 0 -332 -172q0 -72 51 -118t119 -46q163 0 247 106q22 29 31 56v170q-58 4 -116 4zM387 -16q-135 0 -222 81t-85 209q0 250 300 298q98 16 194 16t124 -4q7 106 7 110q1 113 -45 159t-166 45t-235 -43q-38 -13 -66 -30l-52 123q157 94 385 93t291 -134
q53 74 143 108t171 34q180 0 274 -75q125 -100 125 -333q0 -45 -10 -145h-662q0 -178 75 -278t255 -99q72 -1 140 25t106 57l61 -119q-133 -107 -363 -107q-114 -1 -216 51t-150 146h-14q-137 -188 -365 -188zM1134 904.5q-112 0.5 -186 -62.5t-86 -217h508v24
q0 139 -62 197t-174 58.5z" />
    <glyph glyph-name="uni04D6" unicode="&#x4d6;" horiz-adv-x="1097" 
d="M567 1624q82 0 130 41t59 115l145 -35q-50 -240 -336 -240q-316 2 -348 236l162 41q8 -76 57 -117t131 -41zM174 1434h780v-152h-610v-469h559v-151h-559v-510h621v-152h-791v1434z" />
    <glyph glyph-name="uni04D7" unicode="&#x4d7;" horiz-adv-x="1040" 
d="M547 1270q66 0 117 39t69 127l123 -39q-18 -119 -105 -183t-208 -63q-191 0 -281 131q-31 45 -41 107l139 49q36 -168 187 -168zM100 518q0 256 117 393t334 138q169 0 264 -74q125 -98 125 -330q0 -68 -12 -149h-658q0 -278 177 -352q63 -26 143 -26t150 25t104 58
l61 -119q-133 -107 -357 -107q-224 -1 -336 143t-112 400zM547 905q-115 0 -188 -63t-87 -217h508q0 156 -59 218t-174 62z" />
    <glyph glyph-name="uni04D8" unicode="&#x4d8;" horiz-adv-x="1308" 
d="M289 534q0 -167 86 -291t265 -124t280.5 136t103.5 404h-727q-8 -58 -8 -125zM109 556q0 122 20 247h895q-18 262 -123.5 383t-316.5 121q-128 0 -211.5 -35t-106.5 -49l-43 137q61 37 163.5 67.5t234.5 30.5q279 0 426 -178t147 -548t-141.5 -563.5t-425.5 -193.5
q-251 0 -384.5 157t-133.5 424z" />
    <glyph glyph-name="afii10846" unicode="&#x4d9;" horiz-adv-x="1038" 
d="M490 1049q224 0 336 -142.5t112 -398.5t-114.5 -394.5t-319.5 -138.5q-265 0 -334.5 159t-69.5 292q0 53 11 139h667q-10 174 -85 257t-255 83q-70 0 -138.5 -24.5t-104.5 -57.5l-62 119q133 107 357 107zM512 119q110 0 186 80t76 237h-514v-30q0 -143 71 -215t181 -72z
" />
    <glyph glyph-name="uni04DA" unicode="&#x4da;" horiz-adv-x="1308" 
d="M547 1627q0 -43 -30.5 -69t-78.5 -26t-78 26t-30 68t30 70q31 26 79 26t78 -26t30 -69zM940 1627q0 -43 -31 -69t-79 -26t-78 26t-30 68t30 70q30 26 78 26t79 -26t31 -69zM289 534q0 -170 80 -282q92 -133 271 -133t281 136q101 136 103 404h-727q-8 -58 -8 -125z
M584 1307q-133 0 -260 -56q-35 -14 -58 -28l-43 137q61 38 163 68t235 30q573 0 573 -741q0 -354 -141 -548t-426 -194q-251 0 -387 161q-184 215 -111 667h895q-18 262 -124 383t-316 121z" />
    <glyph glyph-name="uni04DB" unicode="&#x4db;" horiz-adv-x="1038" 
d="M307 1198q-45 0 -73 28t-28 74t28 74q28 29 73 29t73 -28.5t28 -74.5t-28 -74t-73 -28zM702 1403q46 0 74 -29q28 -28 27 -74q0 -46 -27.5 -74t-73.5 -28t-74 28t-28 74t28 74.5t74 28.5zM491 1049q225 0 336 -144.5t111 -398.5t-115 -392t-319 -139q-265 0 -366 231
q-38 87 -38 220q0 55 11 139h667q-10 174 -85 257t-255 83q-70 -1 -138 -25t-105 -57l-62 119q133 107 358 107zM260 406q0 -143 71 -215t181 -72t186 80t76 237h-514v-30z" />
    <glyph glyph-name="uni04DC" unicode="&#x4dc;" horiz-adv-x="1650" 
d="M622 1532q-48 0 -79 26t-31 68t31 70q31 26 79 26t78 -26t30 -69t-30 -69t-78 -26zM1014 1532q-48 0 -78.5 26t-30.5 68t30 70q30 26 78.5 26t78.5 -26t30 -69t-30 -69t-78 -26zM733 1434h164v-668l88 29l416 639h188l-413 -623l-82 -66l102 -83l457 -662h-209l-453 664
h-94v-664h-164v688l-86 -29l-452 -659h-197l453 641l98 78l-94 72l-428 643h198l416 -643h92v643z" />
    <glyph glyph-name="uni04DD" unicode="&#x4dd;" horiz-adv-x="1349" 
d="M475 1198q-45 0 -73 28t-28 74t28 74q28 29 73 29t73 -28.5t28 -74.5t-28 -74t-73 -28zM870 1403q46 0 74 -29q28 -28 27 -74q0 -46 -27.5 -74t-73.5 -28t-74 28t-28 74t28 74.5t74 28.5zM588 582v442h160v-463l96 29l284 434h172l-278 -416l-80 -65l105 -82l303 -461
h-195l-301 461h-106v-461h-160v481l-96 -28l-302 -453h-188l324 469l69 61l-104 78l-266 416h174l282 -442h107z" />
    <glyph glyph-name="uni04DE" unicode="&#x4de;" horiz-adv-x="1107" 
d="M408 1627q0 -43 -30 -69t-78 -26t-79 26t-31 68t31 70q31 26 79 26t78 -26t30 -69zM801 1627q0 -43 -30.5 -69t-78.5 -26t-78 26t-30 68t29 70q30 26 78 26t79 -26t31 -69zM471 127q141 0 241 76t100.5 208t-89.5 192q-112 75 -326 75h-112v143h71q32 0 60 2t54 3
q136 6 218 78t82 154t-22 126q-61 120 -265 122t-315 -53l-45 136q41 23 147 47t214 22q326 -2 428 -183q38 -69 38 -170t-67 -195q-68 -93 -203 -134v-8q145 -20 229 -108t84 -221q0 -235 -167 -357q-146 -107 -374 -107t-362 54l43 153q112 -55 338 -55z" />
    <glyph glyph-name="uni04DF" unicode="&#x4df;" horiz-adv-x="903" 
d="M221 1198q-45 0 -73 28t-28 74t28 74q28 29 73 29t73 -28.5t28 -74.5t-28 -74t-73 -28zM616 1403q46 0 74 -29q28 -28 27 -74q0 -46 -27.5 -74t-73.5 -28t-74 28t-28 74t28 74.5t74 28.5zM639 299q0 158 -264 158h-119v133h143q77 0 139 47t62 120t-55 105t-177 32
t-239 -71l-47 127q156 90 342 88q340 0 340 -252q0 -72 -46 -140t-132 -97v-8q121 -23 169 -86t48 -149q0 -154 -112.5 -240t-298.5 -85t-314 64l47 135q96 -55 258 -55q256 0 256 174z" />
    <glyph glyph-name="uni04E0" unicode="&#x4e0;" horiz-adv-x="1153" 
d="M856 425q0 138 -109.5 205.5t-302.5 67.5h-180v56l381 458l90 88l-127 -18h-491v152h850v-62l-410 -489l-72 -60v-8l70 19q206 0 335.5 -107t129.5 -305t-154.5 -322.5t-396.5 -124.5q-142 0 -236 28t-120 44l43 150q134 -70 334 -70q145 0 255.5 80t110.5 218z" />
    <glyph glyph-name="uni04E1" unicode="&#x4e1;" horiz-adv-x="972" 
d="M383 -291q142 0 236 80.5t94 220.5t-88 209.5t-240 69.5h-149v53l294 459l93 88l-131 -17h-406v152h735v-59l-325 -488l-70 -59v-8l66 16q168 0 274 -109.5t106 -287.5q0 -217 -140 -340t-336 -123t-316 55l47 146q114 -58 256 -58z" />
    <glyph glyph-name="uni04E2" unicode="&#x4e2;" horiz-adv-x="1394" 
d="M387 1726h647v-127h-647v127zM174 0v1434h170v-983l-14 -162h8l90 168l692 977h101v-1434h-170v971l12 164h-8l-88 -168l-693 -967h-100z" />
    <glyph glyph-name="uni04E3" unicode="&#x4e3;" horiz-adv-x="1118" 
d="M266 1317h606v-127h-606v127zM158 0v1024h164v-625l-7 -120h9l79 127l461 618h97v-1024h-164v606l6 127h-6l-84 -131l-461 -602h-94z" />
    <glyph glyph-name="uni04E4" unicode="&#x4e4;" horiz-adv-x="1394" 
d="M498 1532q-48 0 -78.5 26t-30.5 68t31 70q31 26 78.5 26t77.5 -26t30 -69t-30 -69t-78 -26zM890 1532q-48 0 -78 26t-30 68t30 70q30 26 78 26t79 -26t31 -69t-31 -69t-79 -26zM174 0v1434h170v-983l-14 -162h8l90 168l692 977h101v-1434h-170v971l12 164h-8l-88 -168
l-693 -967h-100z" />
    <glyph glyph-name="uni04E5" unicode="&#x4e5;" horiz-adv-x="1118" 
d="M379 1198q-45 0 -73 28t-28 74t28 74q28 29 73 29t73 -28.5t28 -74.5t-28 -74t-73 -28zM773 1198q-45 0 -73 28t-28 74t27 74q28 29 73.5 29t73.5 -29q28 -28 28 -74t-28 -74t-73 -28zM158 0v1024h164v-625l-7 -120h9l79 127l461 618h97v-1024h-164v606l6 127h-6
l-84 -131l-461 -602h-94z" />
    <glyph glyph-name="uni04E6" unicode="&#x4e6;" horiz-adv-x="1400" 
d="M504 1532q-48 0 -78.5 26t-30.5 68t31 70q31 26 78.5 26t77.5 -26t30 -69t-30 -69t-78 -26zM1006 1627q0 -43 -31 -69t-79 -26t-78 26t-30 68t30 70q30 26 78 26t79 -26t31 -69zM706 1458q288 0 438 -204q142 -189 142 -542t-152 -545q-153 -191 -439 -191t-433 196
t-147 550t151 545q152 191 440 191zM693 127.5q195 -0.5 304 143.5t109 422t-103 445.5t-298 167.5t-303 -144t-108 -421t102 -445t297 -168.5z" />
    <glyph glyph-name="uni04E7" unicode="&#x4e7;" horiz-adv-x="1097" 
d="M346 1198q-44 0 -72 28t-28 74t27 74q28 29 72.5 29t72.5 -29q28 -28 28 -74t-28 -74t-72 -28zM842 1300q0 -46 -28 -74t-74 -28t-74 28t-28 74t28 74q28 29 74 29t74 -28.5t28 -74.5zM100 512q0 260 116 398t333 139q336 0 422 -317q27 -99 26 -220q1 -260 -115 -398
t-333 -139q-336 0 -422 317q-27 99 -27 220zM270 512q0 -267 150 -360q53 -33 129 -33q279 -2 278 393q0 271 -149 361q-53 32 -129 32q-279 2 -279 -393z" />
    <glyph glyph-name="uni04E8" unicode="&#x4e8;" horiz-adv-x="1400" 
d="M706 1458q288 0 438 -204q142 -189 142 -542t-152 -545q-153 -191 -439 -191t-433 196t-147 550t151 545q152 191 440 191zM698 1307q-260 0 -359 -267q-36 -96 -44 -237h811q-16 244 -128 374t-280 130zM698 127q269 0 366 270q36 100 42 254h-811q16 -264 128 -394
t275 -130z" />
    <glyph glyph-name="uni04E9" unicode="&#x4e9;" horiz-adv-x="1097" 
d="M100 512q0 260 116 398t333 139q336 0 422 -317q27 -99 26 -220q1 -260 -115 -398t-333 -139q-336 0 -422 317q-27 99 -27 220zM549 905q-185 0 -250 -174q-25 -63 -29 -156h557q-16 174 -89 252t-189 78zM549 119q181 0 248 169q25 62 30 156h-557q10 -160 88 -242
t191 -83z" />
    <glyph glyph-name="uni04EA" unicode="&#x4ea;" horiz-adv-x="1400" 
d="M504 1532q-48 0 -78.5 26t-30.5 68t31 70q31 26 78.5 26t77.5 -26t30 -69t-30 -69t-78 -26zM1006 1627q0 -43 -31 -69t-79 -26t-78 26t-30 68t30 70q30 26 78 26t79 -26t31 -69zM706 1458q288 0 438 -204q142 -189 142 -542t-152 -545q-153 -191 -439 -191t-433 196
t-147 550t151 545q152 191 440 191zM698 1307q-260 0 -359 -267q-36 -96 -44 -237h811q-16 244 -128 374t-280 130zM698 127q269 0 366 270q36 100 42 254h-811q16 -264 128 -394t275 -130z" />
    <glyph glyph-name="uni04EB" unicode="&#x4eb;" horiz-adv-x="1097" 
d="M346 1198q-44 0 -72 28t-28 74t27 74q28 29 72.5 29t72.5 -29q28 -28 28 -74t-28 -74t-72 -28zM842 1300q0 -46 -28 -74t-74 -28t-74 28t-28 74t28 74q28 29 74 29t74 -28.5t28 -74.5zM100 512q0 260 116 398t333 139q336 0 422 -317q27 -99 26 -220q1 -260 -115 -398
t-333 -139q-336 0 -422 317q-27 99 -27 220zM549 905q-185 0 -250 -174q-25 -63 -29 -156h557q-16 174 -89 252t-189 78zM549 119q181 0 248 169q25 62 30 156h-557q10 -160 88 -242t191 -83z" />
    <glyph glyph-name="uni04EC" unicode="&#x4ec;" horiz-adv-x="1181" 
d="M377 1627q0 -43 -30.5 -69t-78.5 -26t-78 26t-30 68t30 70q31 26 79 26t78 -26t30 -69zM770 1627q0 -43 -31 -69t-79 -26t-78 26t-30 68t30 70q30 26 78 26t79 -26t31 -69zM418 127q305 0 428 281q45 102 53 249h-592v152h590q-20 244 -143 371q-124 127 -320 127
t-297 -62l-45 133q140 82 359 80q435 0 569 -401q47 -141 47 -341q0 -378 -198 -572q-173 -169 -461 -169q-192 0 -316 52l45 149q100 -49 281 -49z" />
    <glyph glyph-name="uni04ED" unicode="&#x4ed;" horiz-adv-x="952" 
d="M217 1198q-45 0 -73 28t-28 74t28 74q28 29 73 29t73 -28.5t28 -74.5t-28 -74t-73 -28zM612 1403q46 0 74 -29q28 -28 27 -74q0 -46 -27.5 -74t-73.5 -28t-74 28t-28 74t28 74.5t74 28.5zM248 449v135h434q-10 145 -85 233t-213 88t-247 -71l-57 124q133 91 336 91
q436 0 436 -537q0 -262 -121 -399t-330 -137t-319 61l47 139q99 -57 250 -57q287 -2 305 330h-436z" />
    <glyph glyph-name="uni04EE" unicode="&#x4ee;" horiz-adv-x="1132" 
d="M283 1726h647v-127h-647v127zM242 176q62 -34 129 -34t106 58t68 173l-531 1061h197l367 -756l53 -182h10l41 188l274 750h174l-362 -932q-117 -309 -171 -385t-103 -102t-143 -25t-161 45z" />
    <glyph glyph-name="uni04EF" unicode="&#x4ef;" horiz-adv-x="954" 
d="M201 1317h606v-127h-606v127zM276 -420q-70 0 -118 21l28 141q27 -10 52 -10q57 0 110 60t88 208l-411 1024h188l246 -664l57 -196h10l45 198l199 662h166l-303 -920q-35 -100 -69 -194t-75 -168t-92 -118t-121 -44z" />
    <glyph glyph-name="uni04F0" unicode="&#x4f0;" horiz-adv-x="1132" 
d="M514 1627q0 -43 -30 -69t-78 -26t-78 26t-31 68q0 42 31 70q30 26 78 26t78 -26t30 -69zM798 1532q-48 0 -78 26t-30 68t30 70q30 26 78 26t79 -26t31 -69t-31 -69t-79 -26zM242 176q62 -34 129 -34t106 58t68 173l-531 1061h197l367 -756l53 -182h10l41 188l274 750h174
l-362 -932q-117 -309 -171 -385t-103 -102t-143 -25t-161 45z" />
    <glyph glyph-name="uni04F1" unicode="&#x4f1;" horiz-adv-x="954" 
d="M303 1198q-45 0 -73 28t-28 74t28 74q28 29 73 29t73 -28.5t28 -74.5t-28 -74t-73 -28zM698 1403q46 0 74 -29q28 -28 27 -74q0 -46 -27.5 -74t-73.5 -28t-74 28t-28 74t28 74.5t74 28.5zM276 -420q-70 0 -118 21l28 141q27 -10 52 -10q57 0 110 60t88 208l-411 1024h188
l246 -664l57 -196h10l45 198l199 662h166l-303 -920q-35 -100 -69 -194t-75 -168t-92 -118t-121 -44z" />
    <glyph glyph-name="uni04F2" unicode="&#x4f2;" horiz-adv-x="1132" 
d="M684 1741v-33l-205 -190h-117l132 223h190zM1028 1741v-33l-293 -190h-119l209 223h203zM242 176q62 -34 129 -34t106 58t68 173l-531 1061h197l367 -756l53 -182h10l41 188l274 750h174l-362 -932q-117 -309 -171 -385t-103 -102t-143 -25t-161 45z" />
    <glyph glyph-name="uni04F3" unicode="&#x4f3;" horiz-adv-x="954" 
d="M559 1434v-33l-145 -232h-86l71 265h160zM874 1434v-33l-233 -232h-92l149 265h176zM276 -420q-70 0 -118 21l28 141q27 -10 52 -10q57 0 110 60t88 208l-411 1024h188l246 -664l57 -196h10l45 198l199 662h166l-303 -920q-35 -100 -69 -194t-75 -168t-92 -118t-121 -44z
" />
    <glyph glyph-name="uni04F4" unicode="&#x4f4;" horiz-adv-x="1239" 
d="M539 1627q0 -43 -30.5 -69t-78.5 -26t-78 26t-30 68t30 70q31 26 79 26t78 -26t30 -69zM932 1627q0 -43 -31 -69t-79 -26t-78 26t-30 68t30 70q30 26 78 26t79 -26t31 -69zM544 526q-188 0 -290 92t-100 310v506h170v-476q0 -281 254 -280q201 0 317 94v662h170v-1434
h-170v618q-163 -92 -351 -92z" />
    <glyph glyph-name="uni04F5" unicode="&#x4f5;" horiz-adv-x="1003" 
d="M274 1198q-44 0 -72 28t-28 74t28 74.5t72 28.5t72 -29q28 -28 29 -74q0 -46 -28.5 -74t-72.5 -28zM668 1403q46 0 74 -28.5t28 -74.5t-28 -74t-74 -28t-74 28t-27 74q0 46 27.5 74.5t73.5 28.5zM407 360q-159 0 -232 77t-75 276v311h164v-279q0 -123 24 -165t60 -59
t92 -17q161 0 242 65v455h164v-1024h-164v430q-116 -70 -275 -70z" />
    <glyph glyph-name="uni04F6" unicode="&#x4f6;" horiz-adv-x="905" 
d="M942 1282h-598v-1130h188v-416h-118l-31 264h-209v1434h768v-152z" />
    <glyph glyph-name="uni04F7" unicode="&#x4f7;" horiz-adv-x="755" 
d="M158 1024h598v-143h-434v-738h151v-403h-111l-30 260h-174v1024z" />
    <glyph glyph-name="uni04F8" unicode="&#x4f8;" horiz-adv-x="1574" 
d="M686 1627q0 -43 -30 -69t-78 -26t-78 26t-31 68q0 42 31 70q30 26 78 26t78 -26t30 -69zM970 1532q-48 0 -78 26t-30 68t30 70q30 26 78 26t79 -26t31 -69t-31 -69t-79 -26zM1231 1434h170v-1434h-170v1434zM174 1434h170v-557q33 7 67 9l59 5q118 9 224 -14t174 -72
q154 -109 154 -345q0 -351 -318 -448q-98 -28 -256 -28t-274 30v1420zM488 745q-75 0 -144 -18v-584q56 -12 158 -12q147 0 243 80t97 240q0 294 -354 294z" />
    <glyph glyph-name="uni04F9" unicode="&#x4f9;" horiz-adv-x="1351" 
d="M469 1198q-45 0 -73 28t-28 74t28 74q28 29 73 29t73 -28.5t28 -74.5t-28 -74t-73 -28zM864 1403q46 0 74 -29q28 -28 27 -74q0 -46 -27.5 -74t-73.5 -28t-74 28t-28 74t28 74.5t74 28.5zM484 512q-114 0 -162 -14v-355q76 -12 145 -12q129 -1 180 49t51 138t-50 141
t-164 53zM507 647q361 0 361 -305q0 -186 -103 -270t-335 -84q-131 0 -272 12v1024h164v-391q86 14 185 14zM1030 1024h164v-1024h-164v1024z" />
    <glyph glyph-name="uni04FC" unicode="&#x4fc;" horiz-adv-x="1265" 
d="M981 -56q0 120 -107 285l-186 285l-59 123l-54 -123l-331 -514h-191l477 729l-436 705h205l291 -486l51 -117l49 117l307 486h189l-451 -691l285 -440q125 -189 125 -367q0 -366 -281 -366h-24q-23 0 -39 4v139q154 0 167 80.5t13 150.5z" />
    <glyph glyph-name="uni04FD" unicode="&#x4fd;" horiz-adv-x="1052" 
d="M657 -434q-35 0 -63 4v139q117 0 159 45t42 133t-36 162t-77 133l-96 129l-66 115l-59 -115l-221 -311h-183l369 524l-344 500h201l194 -283l58 -116l59 116l199 283h184l-346 -492l196 -274q131 -191 131 -332q0 -178 -76.5 -269t-224.5 -91z" />
    <glyph glyph-name="uni0510" unicode="&#x510;" horiz-adv-x="1105" 
d="M667 1307q-147 0 -229 -49.5t-82 -162.5t86 -182t178 -81t189 -11h33v-143h-113q-416 0 -416 -264q0 -147 98.5 -217t262.5 -70q86 0 166 19.5t123 48.5l53 -129q-141 -91 -373 -91q-363 0 -436.5 159t-73.5 289t80 223t225 116v8q-128 38 -195 133.5t-67 195.5
q0 182 131 270.5t313 88.5t269.5 -30.5t109.5 -45.5l-49 -137q-136 62 -283 62z" />
    <glyph glyph-name="uni0511" unicode="&#x511;" horiz-adv-x="903" 
d="M303 756q0 -73 62 -119.5t139 -46.5h143v-133h-119q-264 0 -264 -158q0 -78 65.5 -126t202.5 -48t246 65l47 -133q-132 -75 -323 -75t-296.5 81.5t-105.5 223.5q0 104 50.5 163.5t166.5 90.5v8q-86 29 -132 90t-46 145q0 127 92.5 190.5t228.5 63.5t218 -26.5t143 -61.5
l-47 -127q-116 72 -238 72t-177.5 -33t-55.5 -106z" />
    <glyph glyph-name="uni0512" unicode="&#x512;" horiz-adv-x="1282" 
d="M834 -434q-30 0 -62 4v139q110 0 138 59t28 232v1282h-428q-20 -410 -65.5 -771.5t-152 -441t-178 -79.5t-118.5 20l27 148q20 -6 49 -6q207 0 239.5 509.5t38.5 772.5h758v-1489q0 -190 -65.5 -284.5t-208.5 -94.5z" />
    <glyph glyph-name="uni0513" unicode="&#x513;" horiz-adv-x="1030" 
d="M598 -434q-29 0 -61 4v139q108 0 140 64.5t32 226.5v881h-297q-6 -86 -12.5 -185.5t-43 -401.5t-247.5 -302q-79 0 -119 18l24 137q25 -8 60 -8q82 0 129.5 187t58.5 698h610v-1079q0 -190 -65.5 -284.5t-208.5 -94.5z" />
    <glyph glyph-name="uni051C" unicode="&#x51c;" horiz-adv-x="1695" 
d="M455 473l32 -237h2l35 241l295 957h82l297 -961l35 -237h2l37 241l241 957h166l-399 -1457h-94l-291 961l-37 217h-10l-37 -219l-291 -959h-94l-410 1457h181z" />
    <glyph glyph-name="uni051D" unicode="&#x51d;" horiz-adv-x="1505" 
d="M821 1024l236 -598l51 -197h4l39 201l182 594h156l-344 -1047h-80l-268 676l-39 168h-6l-41 -170l-258 -674h-80l-357 1047h179l202 -596l35 -199h2l49 203l219 592h119z" />
    <glyph glyph-name="uni0524" unicode="&#x524;" horiz-adv-x="1421" 
d="M1006 1282h-662v-1282h-170v1434h1002v-1282h188v-416h-119l-31 264h-208v1282z" />
    <glyph glyph-name="uni0525" unicode="&#x525;" horiz-adv-x="1134" 
d="M774 881h-452v-881h-164v1024h780v-881h152v-403h-111l-31 260h-174v881z" />
    <glyph glyph-name="uni0526" unicode="&#x526;" horiz-adv-x="1310" 
d="M696 907q189 0 290 -91t101 -310v-354h189v-416h-119l-31 264h-208v475q0 281 -254 281q-204 0 -320 -94v-662h-170v1434h170v-619q163 92 352 92z" />
    <glyph glyph-name="uni0527" unicode="&#x527;" horiz-adv-x="1185" 
d="M635 1049q187 0 265 -90t79 -341v-475h151v-403h-110l-31 260h-174v584q0 171 -47.5 246t-157.5 75t-188 -62t-100 -161v-682h-164v1434h164v-525h8q118 140 305 140z" />
    <glyph glyph-name="uni1E30" unicode="&#x1e30;" horiz-adv-x="1249" 
d="M879 1782v-43l-334 -199h-142l242 242h234zM344 664v-664h-170v1434h170v-668l92 29l482 639h196l-479 -617l-86 -67l104 -82l525 -668h-215l-523 664h-96z" />
    <glyph glyph-name="uni1E31" unicode="&#x1e31;" horiz-adv-x="980" 
d="M778 1475v-43l-207 -263h-96l121 306h182zM322 461v-461h-164v1434h164v-873l84 29l317 434h190l-313 -412l-84 -67l102 -82l343 -463h-203l-342 461h-94z" />
    <glyph glyph-name="uni1E3E" unicode="&#x1e3e;" horiz-adv-x="1619" 
d="M1155 1782v-43l-334 -199h-141l242 242h233zM334 0h-160v1434h127l449 -734l67 -159h4l64 164l428 729h133v-1434h-170v963l20 215h-10l-78 -197l-372 -647h-52l-395 649l-74 195h-10l29 -213v-965z" />
    <glyph glyph-name="uni1E3F" unicode="&#x1e3f;" horiz-adv-x="1662" 
d="M1053 1475v-43l-207 -263h-96l120 306h183zM758 0v580q0 175 -35 243q-40 82 -146 82t-168 -57t-87 -143v-705h-164v1024h114l31 -125h8q55 66 128 108t181 42t170 -38t97 -132q47 80 130 125.5t178 45.5t155 -20q122 -40 154 -203q17 -84 18 -213v-614h-164v616
q0 158 -29 206t-67 65.5t-99 17.5q-102 0 -159 -57t-82 -164v-684h-164z" />
    <glyph glyph-name="uni1E54" unicode="&#x1e54;" horiz-adv-x="1144" 
d="M889 1782v-43l-334 -199h-141l241 242h234zM461 1450q153 0 251 -18t177 -68q180 -111 180 -355t-172 -367q-149 -107 -385 -105h-34q-94 0 -134 8v-545h-170v1419q134 31 287 31zM504 688q385 0 385 322q0 154 -116 230q-96 63 -239 63t-190 -13v-594q20 -8 85 -8h75z
" />
    <glyph glyph-name="uni1E55" unicode="&#x1e55;" horiz-adv-x="1107" 
d="M784 1475v-43l-206 -263h-97l121 306h182zM530 -25q-113 0 -208 41v-426h-164v1434h112l31 -123h8q97 148 297 148t302 -121q100 -121 100 -386t-128 -416t-350 -151zM838 535q0 370 -267 370q-104 0 -164 -54t-85 -165v-508q75 -59 212 -59t221 105q83 105 83 311z" />
    <glyph glyph-name="uni1E9E" unicode="&#x1e9e;" horiz-adv-x="1366" 
d="M566 1315q-68 0 -118.5 -34t-73 -89t-26.5 -127t-4 -150v-915h-170v979q0 226 92 352.5t332 126.5q285 0 504 -170l-332 -405l-68 -60v-4l68 15q199 -2 310.5 -107.5t111.5 -308.5t-125 -323t-344 -120q-171 0 -252 39l27 154q62 -41 227 -41q279 8 287 291
q0 280 -353 280h-127v121l347 416q-89 80 -313 80z" />
    <glyph glyph-name="uni2011" unicode="&#x2011;" horiz-adv-x="737" 
d="M121 666h495v-152h-495v152z" />
    <glyph glyph-name="endash" unicode="&#x2013;" horiz-adv-x="1351" 
d="M242 666h868v-152h-868v152z" />
    <glyph glyph-name="emdash" unicode="&#x2014;" horiz-adv-x="1679" 
d="M242 666h1196v-152h-1196v152z" />
    <glyph glyph-name="quoteleft" unicode="&#x2018;" horiz-adv-x="397" 
d="M317 1267q0 -44 -30.5 -72t-81.5 -28t-87 37t-36 107q0 118 58 189t118 93l51 -71q-100 -51 -100 -156q7 2 35 2t50.5 -28.5t22.5 -72.5z" />
    <glyph glyph-name="quoteright" unicode="&#x2019;" horiz-adv-x="397" 
d="M82 1351q0 46 29.5 72.5t81.5 26.5t88 -36t36 -106q0 -121 -58.5 -192t-119.5 -92l-51 70q100 53 100 157q-8 -2 -34 -2t-49 28t-23 74z" />
    <glyph glyph-name="quotesinglbase" unicode="&#x201a;" horiz-adv-x="397" 
d="M154 2q-26 0 -50 28q-22 28 -22 74t30 72.5t82 26.5t88 -36t36 -106q-1 -170 -125 -256q-31 -20 -54 -28l-51 69q102 54 100 158q-8 -2 -34 -2z" />
    <glyph glyph-name="quotedblleft" unicode="&#x201c;" horiz-adv-x="696" 
d="M244 1368q28 0 50 -28t22 -72t-30 -72.5t-81 -28.5t-87 37t-36 107q0 167 124 254q30 20 52 28l51 -71q-100 -51 -100 -156q7 2 35 2zM544 1368q28 0 50 -28t22 -72t-30 -72.5t-82 -28.5t-87.5 37t-35.5 107q0 167 124 254q30 20 52 28l51 -71q-100 -51 -100 -156
q8 2 36 2z" />
    <glyph glyph-name="quotedblright" unicode="&#x201d;" horiz-adv-x="696" 
d="M82 1352q0 46 30 72t82 26t88 -36t36 -106t-20 -118q-47 -122 -159 -166l-51 70q102 54 100 157q-8 -2 -34 -2t-50 28q-22 29 -22 75zM381 1352q-1 46 29 72t82 26t88 -36t36 -106t-19 -118q-47 -122 -159 -166l-51 70q102 54 100 157q-9 -2 -35 -2t-49 28q-22 29 -22 75
z" />
    <glyph glyph-name="quotedblbase" unicode="&#x201e;" horiz-adv-x="696" 
d="M154 2q-26 0 -50 28q-22 28 -22 74t30 72.5t82 26.5t88 -36t36 -106q-1 -170 -125 -256q-31 -20 -54 -28l-51 69q102 54 100 158q-8 -2 -34 -2zM452 2q-26 0 -48 28t-22 74t28 72q30 27 82 27t88 -36t36 -106q-1 -170 -124 -256q-31 -20 -54 -28l-51 69q102 54 100 158
q-9 -2 -35 -2z" />
    <glyph glyph-name="dagger" unicode="&#x2020;" horiz-adv-x="995" 
d="M82 1028h268l88 -22l-22 96v332h164v-332l-23 -96l88 22h268v-147h-272l-84 22l23 -86v-817l-31 -410h-103l-30 412v815l22 86l-88 -22h-268v147z" />
    <glyph glyph-name="daggerdbl" unicode="&#x2021;" horiz-adv-x="995" 
d="M82 881v147h268l88 -22l-22 94v334h164v-334l-23 -94l88 22h268v-147h-272l-84 22l23 -84v-254l-23 -84l84 23h272v-148h-268l-88 23l23 -94v-285l-33 -410h-98l-33 412v283l22 94l-88 -23h-268v148h268l88 -23l-22 84v254l22 84l-88 -22h-268z" />
    <glyph glyph-name="bullet" unicode="&#x2022;" horiz-adv-x="925" 
d="M178 634q0 66 22.5 118.5t60.5 90.5t90 58.5t111.5 20.5t112 -19.5t90 -56.5t60.5 -89t23 -120t-23 -120t-60.5 -89t-90 -56.5t-112 -19.5t-111.5 19.5t-90 56.5t-60.5 88.5t-22.5 117.5z" />
    <glyph glyph-name="ellipsis" unicode="&#x2026;" horiz-adv-x="1554" 
d="M1186 95q0 54 32 86t86 32t86.5 -31.5t32.5 -85.5t-32.5 -87.5t-86.5 -33.5t-86 33t-32 87zM666 95q0 54 31.5 86t85.5 32t87 -31.5t33 -85.5t-32.5 -87.5t-86.5 -33.5t-86 33t-32 87zM145 95q0 54 32 86t86 32t87 -31.5t33 -85.5t-33 -87.5t-87 -33.5t-86 33t-32 87z
" />
    <glyph glyph-name="perthousand" unicode="&#x2030;" horiz-adv-x="2349" 
d="M1305 1460l100 -78l-1051 -1407l-102 80zM1921 698q224 0 293 -185q24 -67 24 -163q-1 -268 -191 -330q-58 -18 -126 -18q-149 0 -233 83t-84 262t86 265t231 86zM1755 350q0 -229 166 -229q126 0 155 118q11 43 11 111q0 182 -96 218q-31 11 -70 12q-78 0 -122 -48
t-44 -182zM1190 2q-148 0 -233 84t-85 261t86 264t232 87q224 0 293 -185q25 -67 25 -163q-1 -268 -192 -330q-58 -18 -126 -18zM1024 350q0 -229 166 -229q126 0 155 118q11 43 11 111q0 182 -96 218q-31 11 -70 12q-78 0 -122 -48t-44 -182zM461 1458q223 0 293 -185
q24 -67 24 -163q-1 -268 -191 -330q-58 -18 -126 -18q-147 0 -233 83q-85 83 -85 261q-1 178 85 264q86 88 233 88zM295 1110q0 -229 166 -229q127 0 154 117q11 44 12 112q0 184 -97 218q-31 11 -69 11q-78 0 -122 -48t-44 -181z" />
    <glyph glyph-name="guilsinglleft" unicode="&#x2039;" horiz-adv-x="608" 
d="M80 530l328 471l108 -88l-199 -297l-98 -84l98 -73l211 -291l-108 -90z" />
    <glyph glyph-name="guilsinglright" unicode="&#x203a;" horiz-adv-x="608" 
d="M528 549l-327 -471l-109 88l199 297l98 84l-98 74l-211 290l108 90z" />
    <glyph glyph-name="fraction" unicode="&#x2044;" horiz-adv-x="376" 
d="M635 1460l106 -71l-997 -1414l-106 74z" />
    <glyph glyph-name="uni2081" unicode="&#x2081;" horiz-adv-x="806" 
d="M147 -80h218v520l14 74l-55 -57l-160 -97l-55 101l315 209h84v-750h194v-125h-555v125z" />
    <glyph glyph-name="uni2082" unicode="&#x2082;" horiz-adv-x="806" 
d="M510 410q0 130 -161 129q-79 0 -179 -64l-45 117q113 78 255 78t207.5 -63.5t65.5 -176.5q0 -167 -106.5 -288.5t-161.5 -178.5l-94 -65v-4l117 30h286v-129h-596v68q259 215 335.5 348t76.5 199z" />
    <glyph glyph-name="uni2083" unicode="&#x2083;" horiz-adv-x="806" 
d="M349 -96q95 0 147.5 39t52.5 109q0 152 -199 153h-112v47l198 237l70 56l-100 -13h-267v123h525v-67l-211 -252l-52 -37v-4l48 6q113 -2 178 -67.5t65 -183.5t-91 -193.5t-224 -75.5t-240 39l31 123q86 -39 181 -39z" />
    <glyph glyph-name="uni2084" unicode="&#x2084;" horiz-adv-x="806" 
d="M776 -8h-170v-197h-137v197h-418v76l463 618h92v-573h170v-121zM469 113v262l12 100h-4l-45 -94l-160 -215l-67 -64l102 11h162z" />
    <glyph glyph-name="Euro" unicode="&#x20ac;" 
d="M168 672v52q0 48 2 71h-150l37 135h129q73 399 268 463.5t344.5 64.5t266.5 -49l-43 -149q-96 47 -264 47q-225 0 -302 -138.5t-98 -238.5h578l-35 -135h-561q-2 -23 -2 -27v-51q0 -47 2 -66h520l-35 -135h-471q37 -193 146.5 -291t273.5 -98t270 66l41 -134
q-109 -84 -339 -84t-376.5 133.5t-187.5 407.5h-162l37 135h113q-2 18 -2 21z" />
    <glyph glyph-name="uni20B4" unicode="&#x20b4;" 
d="M160 243q0 122 112 271h-188v135h838v-135h-469q-80 -80 -101.5 -146.5t-21.5 -97.5q0 -74 57 -113.5t198 -39.5t265 63l49 -131q-119 -74 -333 -74t-310 73t-96 195zM846 1202q0 -146 -107 -272h183v-135h-838v135h483q111 115 111 248q0 72 -48 104.5t-166 32.5
t-241 -60l-51 138q135 65 324 65q350 0 350 -256z" />
    <glyph glyph-name="uni20B6" unicode="&#x20b6;" 
d="M499 1450q152 0 243.5 -18.5t205 -97.5t113.5 -317t-146 -344.5t-370 -111.5l-162 -2v-145h340v-127h-340v-287h-170v287h-145v127h145v147h-145v127h145v731q134 31 286 31zM536 1307q-91 0 -153 -13v-594h156q233 0 288.5 107t55.5 199t-26 148t-70 90t-102 48.5
t-149 14.5z" />
    <glyph glyph-name="uni20B7" unicode="&#x20b7;" 
d="M499 1450q152 0 243 -18t162 -68q157 -109 157 -347t-161 -355q-133 -96 -355 -101l-162 -2v-145h340v-127h-340v-287h-170v287h-145v127h145v147h-145v127h145v731q134 31 286 31zM383 700h156q233 0 313 155q31 59 31 187t-87.5 195.5t-263.5 69.5q-95 0 -149 -13v-594
z" />
    <glyph glyph-name="uni20B9" unicode="&#x20b9;" 
d="M499 1450q152 0 243 -18t162 -68q157 -109 157 -347t-161 -355q-133 -96 -355 -101l-162 -2v-145h340v-127h-340v-287h-170v287h-145v127h145v147h-145v127h145v731q134 31 286 31zM383 700h156q233 0 313 155q31 59 31 187t-87.5 195.5t-263.5 69.5q-95 0 -149 -13v-594
z" />
    <glyph glyph-name="uni20BA" unicode="&#x20ba;" 
d="M499 1450q152 0 243 -18t162 -68q157 -109 157 -347t-161 -355q-133 -96 -355 -101l-162 -2v-145h340v-127h-340v-287h-170v287h-145v127h145v147h-145v127h145v731q134 31 286 31zM383 700h156q233 0 313 155q31 59 31 187t-87.5 195.5t-263.5 69.5q-95 0 -149 -13v-594
z" />
    <glyph glyph-name="uni20BB" unicode="&#x20bb;" 
d="M499 1450q152 0 243 -18t162 -68q157 -109 157 -347t-161 -355q-133 -96 -355 -101l-162 -2v-145h340v-127h-340v-287h-170v287h-145v127h145v147h-145v127h145v731q134 31 286 31zM383 700h156q233 0 313 155q31 59 31 187t-87.5 195.5t-263.5 69.5q-95 0 -149 -13v-594
z" />
    <glyph glyph-name="uni20BC" unicode="&#x20bc;" 
d="M499 1450q152 0 243 -18t162 -68q157 -109 157 -347t-161 -355q-133 -96 -355 -101l-162 -2v-145h340v-127h-340v-287h-170v287h-145v127h145v147h-145v127h145v731q134 31 286 31zM383 700h156q233 0 313 155q31 59 31 187t-87.5 195.5t-263.5 69.5q-95 0 -149 -13v-594
z" />
    <glyph glyph-name="uni20BD" unicode="&#x20bd;" 
d="M499 1450q152 0 243 -18t162 -68q157 -109 157 -347t-161 -355q-133 -96 -355 -101l-162 -2v-145h340v-127h-340v-287h-170v287h-145v127h145v147h-145v127h145v731q134 31 286 31zM383 700h156q233 0 313 155q31 59 31 187t-87.5 195.5t-263.5 69.5q-95 0 -149 -13v-594
z" />
    <glyph glyph-name="uni20BE" unicode="&#x20be;" 
d="M499 1450q152 0 243 -18t162 -68q157 -109 157 -347t-161 -355q-133 -96 -355 -101l-162 -2v-145h340v-127h-340v-287h-170v287h-145v127h145v147h-145v127h145v731q134 31 286 31zM383 700h156q233 0 313 155q31 59 31 187t-87.5 195.5t-263.5 69.5q-95 0 -149 -13v-594
z" />
    <glyph glyph-name="uni20BF" unicode="&#x20bf;" 
d="M499 1450q152 0 243 -18t162 -68q157 -109 157 -347t-161 -355q-133 -96 -355 -101l-162 -2v-145h340v-127h-340v-287h-170v287h-145v127h145v147h-145v127h145v731q134 31 286 31zM383 700h156q233 0 313 155q31 59 31 187t-87.5 195.5t-263.5 69.5q-95 0 -149 -13v-594
z" />
    <glyph glyph-name="uni20C0" unicode="&#x20c0;" 
d="M499 1450q152 0 243 -18t162 -68q157 -109 157 -347t-161 -355q-133 -96 -355 -101l-162 -2v-145h340v-127h-340v-287h-170v287h-145v127h145v147h-145v127h145v731q134 31 286 31zM383 700h156q233 0 313 155q31 59 31 187t-87.5 195.5t-263.5 69.5q-95 0 -149 -13v-594
z" />
    <glyph glyph-name="uni20C1" unicode="&#x20c1;" 
d="M499 1450q152 0 243 -18t162 -68q157 -109 157 -347t-161 -355q-133 -96 -355 -101l-162 -2v-145h340v-127h-340v-287h-170v287h-145v127h145v147h-145v127h145v731q134 31 286 31zM383 700h156q233 0 313 155q31 59 31 187t-87.5 195.5t-263.5 69.5q-95 0 -149 -13v-594
z" />
    <glyph glyph-name="uni20C2" unicode="&#x20c2;" 
d="M499 1450q152 0 243 -18t162 -68q157 -109 157 -347t-161 -355q-133 -96 -355 -101l-162 -2v-145h340v-127h-340v-287h-170v287h-145v127h145v147h-145v127h145v731q134 31 286 31zM383 700h156q233 0 313 155q31 59 31 187t-87.5 195.5t-263.5 69.5q-95 0 -149 -13v-594
z" />
    <glyph glyph-name="uni20C3" unicode="&#x20c3;" 
d="M499 1450q152 0 243 -18t162 -68q157 -109 157 -347t-161 -355q-133 -96 -355 -101l-162 -2v-145h340v-127h-340v-287h-170v287h-145v127h145v147h-145v127h145v731q134 31 286 31zM383 700h156q233 0 313 155q31 59 31 187t-87.5 195.5t-263.5 69.5q-95 0 -149 -13v-594
z" />
    <glyph glyph-name="uni20C4" unicode="&#x20c4;" 
d="M499 1450q152 0 243 -18t162 -68q157 -109 157 -347t-161 -355q-133 -96 -355 -101l-162 -2v-145h340v-127h-340v-287h-170v287h-145v127h145v147h-145v127h145v731q134 31 286 31zM383 700h156q233 0 313 155q31 59 31 187t-87.5 195.5t-263.5 69.5q-95 0 -149 -13v-594
z" />
    <glyph glyph-name="uni20C5" unicode="&#x20c5;" 
d="M499 1450q152 0 243 -18t162 -68q157 -109 157 -347t-161 -355q-133 -96 -355 -101l-162 -2v-145h340v-127h-340v-287h-170v287h-145v127h145v147h-145v127h145v731q134 31 286 31zM383 700h156q233 0 313 155q31 59 31 187t-87.5 195.5t-263.5 69.5q-95 0 -149 -13v-594
z" />
    <glyph glyph-name="uni20C6" unicode="&#x20c6;" 
d="M499 1450q152 0 243 -18t162 -68q157 -109 157 -347t-161 -355q-133 -96 -355 -101l-162 -2v-145h340v-127h-340v-287h-170v287h-145v127h145v147h-145v127h145v731q134 31 286 31zM383 700h156q233 0 313 155q31 59 31 187t-87.5 195.5t-263.5 69.5q-95 0 -149 -13v-594
z" />
    <glyph glyph-name="uni20C7" unicode="&#x20c7;" 
d="M499 1450q152 0 243 -18t162 -68q157 -109 157 -347t-161 -355q-133 -96 -355 -101l-162 -2v-145h340v-127h-340v-287h-170v287h-145v127h145v147h-145v127h145v731q134 31 286 31zM383 700h156q233 0 313 155q31 59 31 187t-87.5 195.5t-263.5 69.5q-95 0 -149 -13v-594
z" />
    <glyph glyph-name="uni20C8" unicode="&#x20c8;" 
d="M499 1450q152 0 243 -18t162 -68q157 -109 157 -347t-161 -355q-133 -96 -355 -101l-162 -2v-145h340v-127h-340v-287h-170v287h-145v127h145v147h-145v127h145v731q134 31 286 31zM383 700h156q233 0 313 155q31 59 31 187t-87.5 195.5t-263.5 69.5q-95 0 -149 -13v-594
z" />
    <glyph glyph-name="uni20C9" unicode="&#x20c9;" 
d="M499 1450q152 0 243 -18t162 -68q157 -109 157 -347t-161 -355q-133 -96 -355 -101l-162 -2v-145h340v-127h-340v-287h-170v287h-145v127h145v147h-145v127h145v731q134 31 286 31zM383 700h156q233 0 313 155q31 59 31 187t-87.5 195.5t-263.5 69.5q-95 0 -149 -13v-594
z" />
    <glyph glyph-name="uni20CA" unicode="&#x20ca;" 
d="M499 1450q152 0 243 -18t162 -68q157 -109 157 -347t-161 -355q-133 -96 -355 -101l-162 -2v-145h340v-127h-340v-287h-170v287h-145v127h145v147h-145v127h145v731q134 31 286 31zM383 700h156q233 0 313 155q31 59 31 187t-87.5 195.5t-263.5 69.5q-95 0 -149 -13v-594
z" />
    <glyph glyph-name="uni20CB" unicode="&#x20cb;" 
d="M499 1450q152 0 243 -18t162 -68q157 -109 157 -347t-161 -355q-133 -96 -355 -101l-162 -2v-145h340v-127h-340v-287h-170v287h-145v127h145v147h-145v127h145v731q134 31 286 31zM383 700h156q233 0 313 155q31 59 31 187t-87.5 195.5t-263.5 69.5q-95 0 -149 -13v-594
z" />
    <glyph glyph-name="uni20CC" unicode="&#x20cc;" 
d="M499 1450q152 0 243 -18t162 -68q157 -109 157 -347t-161 -355q-133 -96 -355 -101l-162 -2v-145h340v-127h-340v-287h-170v287h-145v127h145v147h-145v127h145v731q134 31 286 31zM383 700h156q233 0 313 155q31 59 31 187t-87.5 195.5t-263.5 69.5q-95 0 -149 -13v-594
z" />
    <glyph glyph-name="uni20CD" unicode="&#x20cd;" 
d="M499 1450q152 0 243 -18t162 -68q157 -109 157 -347t-161 -355q-133 -96 -355 -101l-162 -2v-145h340v-127h-340v-287h-170v287h-145v127h145v147h-145v127h145v731q134 31 286 31zM383 700h156q233 0 313 155q31 59 31 187t-87.5 195.5t-263.5 69.5q-95 0 -149 -13v-594
z" />
    <glyph glyph-name="uni20CE" unicode="&#x20ce;" 
d="M499 1450q152 0 243 -18t162 -68q157 -109 157 -347t-161 -355q-133 -96 -355 -101l-162 -2v-145h340v-127h-340v-287h-170v287h-145v127h145v147h-145v127h145v731q134 31 286 31zM383 700h156q233 0 313 155q31 59 31 187t-87.5 195.5t-263.5 69.5q-95 0 -149 -13v-594
z" />
    <glyph glyph-name="uni20CF" unicode="&#x20cf;" 
d="M499 1450q152 0 243 -18t162 -68q157 -109 157 -347t-161 -355q-133 -96 -355 -101l-162 -2v-145h340v-127h-340v-287h-170v287h-145v127h145v147h-145v127h145v731q134 31 286 31zM383 700h156q233 0 313 155q31 59 31 187t-87.5 195.5t-263.5 69.5q-95 0 -149 -13v-594
z" />
    <glyph glyph-name="afii61289" unicode="&#x2113;" horiz-adv-x="1024" 
d="M582 98q97 0 215 66l34 -103q-45 -29 -117.5 -57.5t-144.5 -28.5q-129 0 -187 62.5t-58 195.5v213l-103 -90l-71 90l174 152v520q0 256 104 298t160 42q98 0 161.5 -60.5t63.5 -183.5q0 -332 -350 -671v-287q0 -90 34.5 -124t84.5 -34zM682 1204q0 70 -28.5 100.5
t-59.5 30.5q-65 0 -98 -41t-33 -153v-434q219 253 219 497z" />
    <glyph glyph-name="afii61352" unicode="&#x2116;" horiz-adv-x="2095" 
d="M1370 641h569v-152h-569v152zM338 0h-164v1456h90l647 -948l105 -205h10l-22 197v934h163v-1457h-94l-641 953l-110 215h-9l25 -207v-938zM1331 1108q0 94 24.5 159.5t66.5 108.5t100.5 62.5t126 19.5t126 -18.5t100.5 -59.5t66.5 -107.5t24.5 -162.5t-24.5 -162.5
t-66.5 -107.5t-100.5 -59.5t-126 -18.5t-126 18.5t-100.5 59.5t-66.5 107.5t-24.5 160.5zM1483 1110q0 -229 166 -229q124 0 145 80.5t21 179t-42.5 148.5t-122.5 50t-123.5 -48t-43.5 -181z" />
    <glyph glyph-name="trademark" unicode="&#x2122;" horiz-adv-x="1812" 
d="M795 1294h-279v-598h-160v598h-278v140h717v-140zM1026 696h-149v738h159l215 -344l58 -119h2l61 123l199 340h162v-738h-156v342l20 211h-8l-80 -174l-178 -287h-67l-183 285l-73 176h-9l27 -209v-344z" />
    <glyph glyph-name="estimated" unicode="&#x212e;" horiz-adv-x="1228" 
d="M618 -35q-238 0 -383 161t-145 405t147 404.5t385 160.5t378.5 -159.5t148.5 -406.5h-827v-370q127 -121 296 -121q254 0 396 246l71 -43q-181 -277 -467 -277zM918 604v297q-130 123 -304 123t-292 -123v-297h596z" />
    <glyph glyph-name="partialdiff" unicode="&#x2202;" horiz-adv-x="1034" 
d="M564 1044q110 0 151 -15t76 -44h10q-11 173 -135.5 256.5t-282.5 83.5h-17q-16 0 -26 -2l31 135q298 0 449 -139.5t151 -478.5q0 -426 -145.5 -645.5t-391.5 -219.5q-197 0 -295 103.5t-98 294.5q0 264 103.5 408.5t206.5 203.5t213 59zM211 362q0 -243 256 -243
q84 0 209 115.5t125 572.5q-81 94 -228 94t-254.5 -152t-107.5 -387z" />
    <glyph glyph-name="product" unicode="&#x220f;" horiz-adv-x="1388" 
d="M1047 1282h-703v-1692h-170v1844h1043v-1844h-170v1692z" />
    <glyph glyph-name="summation" unicode="&#x2211;" horiz-adv-x="1034" 
d="M956 -258v-152h-927v152l458 709l70 61l-72 66l-456 704v152h927v-152h-774l88 -74l441 -684l-455 -708l-82 -74h782z" />
    <glyph glyph-name="minus" unicode="&#x2212;" horiz-adv-x="1034" 
d="M82 766h868v-148h-868v148z" />
    <glyph glyph-name="uni2215" unicode="&#x2215;" horiz-adv-x="1034" 
d="M963 1460l106 -71l-997 -1414l-107 74z" />
    <glyph glyph-name="radical" unicode="&#x221a;" horiz-adv-x="1034" 
d="M-18 766v147h360l188 -464l48 -234h4l39 238l303 981h153l-463 -1457h-63l-322 789h-247z" />
    <glyph glyph-name="infinity" unicode="&#x221e;" horiz-adv-x="1753" 
d="M447 334q-133 0 -233.5 102.5t-100.5 277.5t100.5 282.5t252.5 107.5t255.5 -64.5t165.5 -165.5q165 230 424 230q147 0 238 -102.5t91 -278.5t-101.5 -282.5t-262.5 -106.5q-252 0 -410 250q-155 -250 -419 -250zM1294 485q70 0 128.5 65.5t58.5 168.5t-53 168t-144 65
q-196 0 -338 -192q85 -187 181.5 -231t166.5 -44zM272 717q0 -100 59.5 -166t175.5 -66t193.5 84t106.5 127q-55 115 -139 185.5t-181 70.5t-156 -67.5t-59 -167.5z" />
    <glyph glyph-name="integral" unicode="&#x222b;" horiz-adv-x="716" 
d="M578 1315q-85 0 -112.5 -47t-27.5 -168v-1219q0 -160 -67.5 -233.5t-203.5 -73.5t-257 49l45 131q97 -37 181 -37t111 49.5t27 170.5v1214q0 160 68 233.5t207 73.5t254 -49l-43 -131q-97 37 -182 37z" />
    <glyph glyph-name="approxequal" unicode="&#x2248;" horiz-adv-x="1034" 
d="M744 578q74 0 157 73l70 -125q-141 -96 -239 -96t-205 56t-191 56t-203 -96l-70 123q159 123 291 121q86 0 201 -56t189 -56zM744 918q74 0 157 73l70 -125q-141 -96 -239 -96t-205 56t-191 56t-203 -96l-70 123q159 123 291 121q86 0 201 -56t189 -56z" />
    <glyph glyph-name="notequal" unicode="&#x2260;" horiz-adv-x="1034" 
d="M82 936h467l125 281h147l-125 -281h254v-148h-317l-86 -192h403v-147h-467l-137 -314h-147l137 314h-254v147h317l86 192h-403v148z" />
    <glyph glyph-name="lessequal" unicode="&#x2264;" horiz-adv-x="1034" 
d="M940 168l-72 -129l-753 430l71 131zM74 872v60l774 473l78 -127l-486 -297l-186 -78l184 -65l498 -295l-78 -123z" />
    <glyph glyph-name="greaterequal" unicode="&#x2265;" horiz-adv-x="1034" 
d="M936 479l-750 -440l-77 127l751 440zM938 952v-59l-774 -473l-78 127l485 297l187 78l-185 65l-497 295l78 123z" />
    <glyph glyph-name="lozenge" unicode="&#x25ca;" horiz-adv-x="1034" 
d="M547 -23h-68l-409 723l409 756h68l416 -745zM584 330l209 360l-224 397l-57 181h-4l-57 -185l-209 -360l223 -397l59 -181h2z" />
    <glyph glyph-name="uni2C67" unicode="&#x2c67;" horiz-adv-x="1447" 
d="M1032 657h-688v-657h-170v1434h170v-625h688v625h170v-1282h189v-416h-119l-31 264h-209v657z" />
    <glyph glyph-name="uni2C68" unicode="&#x2c68;" horiz-adv-x="1185" 
d="M636 1049q188 0 265.5 -92t77.5 -339v-475h151v-403h-110l-31 260h-174v584q0 171 -45.5 246t-157.5 75t-190 -62.5t-100 -160.5v-682h-164v1434h164v-525h8q118 140 306 140z" />
    <glyph glyph-name="uniF401" unicode="&#xf401;" horiz-adv-x="4" 
d="M-252 1782v-43l-334 -199h-141l242 242h233z" />
    <glyph glyph-name="uniF406" unicode="&#xf406;" horiz-adv-x="952" 
d="M486 1638q97 0 165 43t97 103l81 -39q-35 -116 -130 -183t-216 -67q-185 0 -260.5 89t-99.5 151l88 49q35 -70 106.5 -108t168.5 -38z" />
    <glyph glyph-name="uniF407" unicode="&#xf407;" horiz-adv-x="587" 
d="M465 -250q0 -72 -66 -124t-184 -52q-44 0 -92 8l18 80q13 -2 23 -2h20q115 0 126 53q3 14 3 27q0 57 -176 76l99 184h116l-49 -88q86 -16 124 -53t38 -109z" />
    <glyph glyph-name="uniF408" unicode="&#xf408;" horiz-adv-x="901" 
d="M778 1530h-166l-123 100l-34 72l-39 -70l-131 -102h-162v45l272 207h123l260 -209v-43z" />
    <glyph glyph-name="uniF409" unicode="&#xf409;" horiz-adv-x="481" 
d="M232 -112q46 0 86 -36t40 -104q0 -177 -163 -250l-58 66q92 52 90 141q-47 -11 -76 18t-28 70q-1 41 31 68t78 27z" />
    <glyph glyph-name="uniF40A" unicode="&#xf40a;" horiz-adv-x="397" 
d="M82 1352q0 46 30 72t82 26t88 -36t36 -106t-20 -118q-47 -122 -159 -166l-51 70q102 54 100 157q-8 -2 -34 -2t-50 28q-22 29 -22 75z" />
    <glyph glyph-name="uniF40B" unicode="&#xf40b;" horiz-adv-x="503" 
d="M123 1630q0 45 33.5 77t93 32t95.5 -32t36 -77t-36 -75.5t-95.5 -30.5t-93 30.5t-33.5 75.5z" />
    <glyph glyph-name="uniF40C" unicode="&#xf40c;" horiz-adv-x="677" 
d="M123 1572q0 77 50.5 126t158.5 49q222 0 223 -174q0 -74 -54.5 -122t-160.5 -48t-161.5 46t-55.5 123zM248 1575q0 -37 21.5 -60.5t67.5 -23.5t69.5 22.5t23.5 60.5t-22.5 61.5t-68.5 23.5t-68.5 -23.5t-22.5 -60.5z" />
    <glyph glyph-name="uniF40D" unicode="&#xf40d;" horiz-adv-x="897" 
d="M344 1720q63 0 146.5 -33.5t133.5 -33.5t99 43l51 -88q-97 -90 -196 -90q-59 0 -143 33.5t-143 33.5t-120 -61l-49 84q107 112 221 112z" />
    <glyph glyph-name="uniF40E" unicode="&#xf40e;" horiz-adv-x="624" 
d="M391 -283q45 0 88 21l23 -88q-60 -49 -164 -49t-160 49q-55 49 -55 133q0 162 211 237h112q-153 -70 -153 -198q1 -41 27 -73t71 -32z" />
    <glyph glyph-name="uniF486" unicode="&#xf486;" horiz-adv-x="1196" 
d="M870 1782v-43l-333 -199h-142l242 242h233zM503 1450q146 0 229 -13q179 -28 262 -157q44 -68 44 -178t-68 -205t-202 -129v-8q211 -35 287 -207q27 -61 27 -159t-46 -178t-122 -132q-150 -102 -367 -100h-82q-190 0 -291 26v1411q183 29 329 29zM511 131q118 0 179 15
q127 31 183 133q28 49 28 125q0 141 -122 206q-91 49 -257 49h-178v-514q49 -14 167 -14zM344 803h107q101 0 165 8q169 55 223 169q19 42 19 91q0 227 -305 232q-146 0 -209 -13v-487z" />
    <glyph glyph-name="uniF487" unicode="&#xf487;" horiz-adv-x="1105" 
d="M823 1475v-43l-207 -263h-96l121 306h182zM158 1434h164v-510h8q47 59 120 92t158 33q198 -1 298 -127t100 -394t-132 -407t-368 -139q-115 0 -208 24t-140 53v1375zM836 530q0 263 -139 347q-47 28 -117 28q-198 0 -258 -219v-516q76 -45 212 -45t219 98t83 307z" />
    <glyph glyph-name="uniF488" unicode="&#xf488;" horiz-adv-x="1058" 
d="M870 1782v-43l-333 -199h-142l242 242h233zM174 1434h780v-152h-610v-489h569v-152h-569v-641h-170v1434z" />
    <glyph glyph-name="uniF489" unicode="&#xf489;" horiz-adv-x="653" 
d="M823 1782v-43l-334 -199h-141l242 242h233zM369 1053v-29h272v-143h-272v-881h-164v881h-160v143h160v57q0 197 67 281q68 84 210 84t237 -39l-37 -137q-71 30 -146 31t-105 -15t-46 -56t-16 -177z" />
    <glyph glyph-name="uniF49E" unicode="&#xf49e;" horiz-adv-x="1239" 
d="M664 756q-204 0 -320 -94v-662h-170v1071h-180v135h180v228h170v-228h449v-135h-449v-256q163 92 352 92t290 -91t101 -310v-506h-169v475q0 281 -254 281z" />
    <glyph glyph-name="uniF49F" unicode="&#xf49f;" horiz-adv-x="1124" 
d="M639 1049q187 0 265 -91t79 -340v-618h-164v584q0 171 -47.5 246t-157.5 75t-188 -62t-100 -161v-682h-164v1171h-164v123h164v140h164v-140h327v-123h-327v-262h8q118 140 305 140z" />
    <glyph glyph-name="uniF4C6" unicode="&#xf4c6;" horiz-adv-x="1239" 
d="M544 526q-188 0 -289 91t-101 311v506h170v-476q0 -281 254 -280q201 0 317 94v662h170v-1489q0 -190 -68.5 -284.5t-214.5 -94.5q-43 0 -63 4v139q109 0 142.5 65t33.5 226v618q-163 -92 -351 -92z" />
    <glyph glyph-name="uniF4C7" unicode="&#xf4c7;" horiz-adv-x="1003" 
d="M407 360q-159 0 -233 78t-74 275v311h164v-279q0 -122 24.5 -165t59.5 -59.5t92 -16.5q158 0 242 65v455h164v-1079q0 -190 -65.5 -284.5t-209.5 -94.5q-29 0 -61 4v139q107 0 139.5 63t32.5 228v430q-116 -70 -275 -70z" />
    <glyph glyph-name="uniF4CC" unicode="&#xf4cc;" horiz-adv-x="1132" 
d="M893 1782v-43l-334 -199h-141l241 242h234zM242 176q62 -34 129 -34t106 58t68 173l-531 1061h197l367 -756l53 -182h10l41 188l274 750h174l-362 -932q-117 -309 -171 -385t-103 -102t-143 -25t-161 45z" />
    <glyph glyph-name="uniF4CD" unicode="&#xf4cd;" horiz-adv-x="954" 
d="M729 1475v-43l-207 -263h-96l121 306h182zM276 -420q-70 0 -118 21l28 141q27 -10 52 -10q57 0 110 60t88 208l-411 1024h188l246 -664l57 -196h10l45 198l199 662h166l-303 -920q-35 -100 -69 -194t-75 -168t-92 -118t-121 -44z" />
    <glyph glyph-name="uniF4D6" unicode="&#xf4d6;" horiz-adv-x="1181" 
d="M334 1630q0 46 34 77.5t93 31.5t95 -32t36 -77.5t-36 -75.5t-95 -30t-93 30t-34 76zM418 127q305 0 428 281q45 102 53 249h-592v152h590q-20 244 -143 371q-124 127 -320 127t-297 -62l-45 133q140 82 359 80q435 0 569 -401q47 -141 47 -341q0 -378 -198 -572
q-173 -169 -461 -169q-192 0 -316 52l45 149q100 -49 281 -49z" />
    <glyph glyph-name="uniF4D7" unicode="&#xf4d7;" horiz-adv-x="952" 
d="M281 1335q0 47 31 81q32 34 81 34t84 -34t35 -81t-35 -78t-84 -31t-81 31q-31 31 -31 78zM248 449v135h434q-10 145 -85 233t-213 88t-247 -71l-57 124q133 91 336 91q436 0 436 -537q0 -262 -121 -399t-330 -137t-319 61l47 139q99 -57 250 -57q287 -2 305 330h-436z
" />
    <glyph glyph-name="uni0498.alt" unicode="&#xf50a;" horiz-adv-x="1107" 
d="M471 129q140 0 241 74t101 207t-90 193q-112 75 -326 75h-112v143h71q32 0 60 2t54 3q136 6 218 78t82 154t-22 126q-61 120 -265 122t-315 -53l-45 136q41 23 147 47t214 22q326 -2 428 -183q38 -69 38 -170t-67 -195q-68 -93 -203 -134v-8q145 -20 229 -108t84 -236
q0 -197 -132 -313t-324 -131l-29 -347h-107l-39 344q-160 7 -272 52l43 153q108 -53 338 -53z" />
    <glyph glyph-name="uni0499.alt" unicode="&#xf50b;" horiz-adv-x="903" 
d="M639 299q0 158 -264 158h-119v133h143q77 0 139 47t62 120t-55 105t-177 32t-239 -71l-47 127q156 90 342 88q340 0 340 -252q0 -72 -46 -140t-132 -97v-8q121 -23 169 -86t48 -171t-77 -189t-232 -105l-29 -357h-107l-39 351q-129 6 -241 61l47 135q96 -55 258 -55
q256 0 256 174z" />
    <glyph glyph-name="uni04AA.alt02" unicode="&#xf50c;" horiz-adv-x="1169" 
d="M918 -250q0 -72 -66 -124t-184 -52q-43 0 -93 8l19 80q12 -2 22 -2h21q81 0 109 28q20 17 20 52q0 57 -176 76l86 164q-248 17 -405 201q-156 185 -156 547t197 559q171 171 425 171q217 0 334 -49l-41 -149q-98 47 -284 47t-309 -131q-142 -153 -142 -448t134 -448
t345 -153q174 0 277 66l41 -134q-91 -71 -301 -82l-35 -65q86 -16 124 -53t38 -109z" />
    <glyph glyph-name="uni04AB.alt02" unicode="&#xf50d;" horiz-adv-x="923" 
d="M100 521q0 251 115 389t311 138t310 -59l-48 -141q-99 57 -227 57q-291 0 -291 -393q0 -270 161 -359q58 -32 144 -32q136 0 228 72l53 -125q-100 -72 -248 -88l-37 -68q86 -16 124.5 -53t38.5 -109t-66 -124t-185 -52q-44 0 -92 8l19 80q12 -2 22 -2h21q111 0 126 53
q3 14 3 27q0 57 -176 76l86 161q-392 22 -392 544z" />
    <glyph glyph-name="uniF50E" unicode="&#xf50e;" horiz-adv-x="1198" 
d="M283 1726h647v-127h-647v127zM856 397h-528l-144 -397h-168l543 1456h78l545 -1456h-178zM383 545h422l-160 436l-51 217h-2l-51 -221z" />
    <glyph glyph-name="uniF50F" unicode="&#xf50f;" horiz-adv-x="1015" 
d="M207 1317h606v-127h-606v127zM387 -16q-66 0 -122 20q-113 40 -162 150q-23 54 -23 132q2 302 495 302q95 0 123 -4q6 61 7 110q1 113 -45 158t-166 45t-235 -42q-38 -13 -66 -30l-52 123q157 94 375 93t292 -104q56 -76 56 -212l-12 -461q0 -171 29 -268h-121l-43 143
h-10q-64 -103 -203 -141q-51 -14 -117 -14zM582 463q-332 0 -332 -172q0 -72 51 -118t119 -46q163 0 247 106q22 29 31 56v170q-58 4 -116 4z" />
    <glyph glyph-name="uniF510" unicode="&#xf510;" horiz-adv-x="1097" 
d="M231 1726h648v-127h-648v127zM174 1434h780v-152h-610v-469h559v-151h-559v-510h621v-152h-791v1434z" />
    <glyph glyph-name="uniF511" unicode="&#xf511;" horiz-adv-x="1040" 
d="M219 1317h606v-127h-606v127zM100 518q0 256 117 393t334 138q169 0 264 -74q125 -98 125 -330q0 -68 -12 -149h-658q0 -278 177 -352q63 -26 143 -26t150 25t104 58l61 -119q-133 -107 -357 -107q-224 -1 -336 143t-112 400zM547 905q-115 0 -188 -63t-87 -217h508
q0 156 -59 218t-174 62z" />
    <glyph glyph-name="uniF512" unicode="&#xf512;" horiz-adv-x="1097" 
d="M225 1942h647v-127h-647v127zM463 1627q0 -43 -30.5 -69t-78.5 -26t-78 26t-30 68t30 70q31 26 79 26t78 -26t30 -69zM856 1627q0 -43 -31 -69t-79 -26t-78 26t-30 68t30 70q30 26 78 26t79 -26t31 -69zM174 1434h780v-152h-610v-469h559v-151h-559v-510h621v-152h-791
v1434z" />
    <glyph glyph-name="uniF513" unicode="&#xf513;" horiz-adv-x="1040" 
d="M217 1692h647v-127h-647v127zM342 1196q-44 0 -72 28t-28 74t27 74q28 29 72.5 29t72.5 -29q28 -28 28 -74t-28 -74t-72 -28zM838 1298q0 -46 -28 -74t-74 -28t-74 28t-28 74t28 74q28 29 74 29t74 -28.5t28 -74.5zM100 518q0 256 117 393t334 138q169 0 264 -74
q125 -98 125 -330q0 -68 -12 -149h-658q0 -278 177 -352q63 -26 143 -26t150 25t104 58l61 -119q-133 -107 -357 -107q-224 -1 -336 143t-112 400zM547 905q-115 0 -188 -63t-87 -217h508q0 156 -59 218t-174 62z" />
    <glyph glyph-name="uniF514" unicode="&#xf514;" horiz-adv-x="1097" 
d="M559 1876q82 0 130 41t59 115l145 -35q-50 -240 -336 -240q-145 1 -239 57t-109 179l162 41q8 -76 57 -117t131 -41zM463 1627q0 -43 -30.5 -69t-78.5 -26t-78 26t-30 68t30 70q31 26 79 26t78 -26t30 -69zM856 1627q0 -43 -31 -69t-79 -26t-78 26t-30 68t30 70
q30 26 78 26t79 -26t31 -69zM174 1434h780v-152h-610v-469h559v-151h-559v-510h621v-152h-791v1434z" />
    <glyph glyph-name="uniF515" unicode="&#xf515;" horiz-adv-x="1040" 
d="M550 1589q82 0 129.5 41t57.5 115l146 -35q-23 -112 -104 -176t-229 -64q-320 0 -351 236l161 41q8 -76 58 -117t132 -41zM342 1198q-44 0 -72 28t-28 74t27 74q28 29 72.5 29t72.5 -29q28 -28 28 -74t-28 -74t-72 -28zM838 1300q0 -46 -28 -74t-74 -28t-74 28t-28 74
t28 74q28 29 74 29t74 -28.5t28 -74.5zM100 518q0 256 117 393t334 138q169 0 264 -74q125 -98 125 -330q0 -68 -12 -149h-658q0 -278 177 -352q63 -26 143 -26t150 25t104 58l61 -119q-133 -107 -357 -107q-224 -1 -336 143t-112 400zM547 905q-115 0 -188 -63t-87 -217
h508q0 156 -59 218t-174 62z" />
    <glyph glyph-name="uniF516" unicode="&#xf516;" horiz-adv-x="1107" 
d="M168 1782h168l121 -103l35 -69l38 67l129 105h160v-45l-272 -209h-119l-260 211v43zM471 127q141 0 241 76t100.5 208t-89.5 192q-112 75 -326 75h-112v143h71q32 0 60 2t54 3q136 6 218 78t82 154t-22 126q-61 120 -265 122t-315 -53l-45 136q41 23 147 47t214 22
q326 -2 428 -183q38 -69 38 -170t-67 -195q-68 -93 -203 -134v-8q145 -20 229 -108t84 -221q0 -235 -167 -357q-146 -107 -374 -107t-362 54l43 153q112 -55 338 -55z" />
    <glyph glyph-name="uniF517" unicode="&#xf517;" horiz-adv-x="903" 
d="M446 1126h-75l-236 373h160l80 -135l43 -119l45 119l92 135h143zM639 299q0 158 -264 158h-119v133h143q77 0 139 47t62 120t-55 105t-177 32t-239 -71l-47 127q156 90 342 88q340 0 340 -252q0 -72 -46 -140t-132 -97v-8q121 -23 169 -86t48 -149q0 -154 -112.5 -240
t-298.5 -85t-314 64l47 135q96 -55 258 -55q256 0 256 174z" />
    <glyph glyph-name="uniF518" unicode="&#xf518;" horiz-adv-x="1400" 
d="M389 1726h647v-127h-647v127zM706 1458q288 0 438 -204q142 -189 142 -542t-152 -545q-153 -191 -439 -191t-433 196t-147 550t151 545q152 191 440 191zM693 127.5q195 -0.5 304 143.5t109 422t-103 445.5t-298 167.5t-303 -144t-108 -421t102 -445t297 -168.5z" />
    <glyph glyph-name="uniF519" unicode="&#xf519;" horiz-adv-x="1097" 
d="M246 1317h606v-127h-606v127zM100 512q0 260 116 398t333 139q336 0 422 -317q27 -99 26 -220q1 -260 -115 -398t-333 -139q-336 0 -422 317q-27 99 -27 220zM270 512q0 -267 150 -360q53 -33 129 -33q279 -2 278 393q0 271 -149 361q-53 32 -129 32q-279 2 -279 -393z
" />
    <glyph glyph-name="uniF51A" unicode="&#xf51a;" horiz-adv-x="1400" 
d="M702 1624q82 0 131 41q48 41 58 115l145 -35q-50 -240 -336 -240q-316 2 -348 236l162 41q8 -76 57 -117t131 -41zM706 1458q288 0 438 -204q142 -189 142 -542t-152 -545q-153 -191 -439 -191t-433 196t-147 550t151 545q152 191 440 191zM693 127.5q195 -0.5 304 143.5
t109 422t-103 445.5t-298 167.5t-303 -144t-108 -421t102 -445t297 -168.5z" />
    <glyph glyph-name="uniF51B" unicode="&#xf51b;" horiz-adv-x="1097" 
d="M557 1270q66 0 117 39t69 127l123 -39q-18 -119 -105 -183t-208 -63q-191 0 -281 131q-31 45 -41 107l140 49q36 -168 186 -168zM100 512q0 260 116 398t333 139q336 0 422 -317q27 -99 26 -220q1 -260 -115 -398t-333 -139q-336 0 -422 317q-27 99 -27 220zM270 512
q0 -267 150 -360q53 -33 129 -33q279 -2 278 393q0 271 -149 361q-53 32 -129 32q-279 2 -279 -393z" />
    <glyph glyph-name="uniF51C" unicode="&#xf51c;" horiz-adv-x="1400" 
d="M700 1624q82 0 130 41t59 115l145 -35q-50 -240 -336 -240q-316 2 -348 236l162 41q8 -76 57 -117t131 -41zM706 1458q288 0 438 -204q142 -189 142 -542t-152 -545q-153 -191 -439 -191t-433 196t-147 550t151 545q152 191 440 191zM698 1307q-260 0 -359 -267
q-36 -96 -44 -237h811q-16 244 -128 374t-280 130zM698 127q269 0 366 270q36 100 42 254h-811q16 -264 128 -394t275 -130z" />
    <glyph glyph-name="uniF51D" unicode="&#xf51d;" horiz-adv-x="1097" 
d="M557 1270q66 0 117 39t69 127l123 -39q-18 -119 -105 -183t-208 -63q-191 0 -281 131q-31 45 -41 107l140 49q36 -168 186 -168zM100 512q0 260 116 398t333 139q336 0 422 -317q27 -99 26 -220q1 -260 -115 -398t-333 -139q-336 0 -422 317q-27 99 -27 220zM549 905
q-185 0 -250 -174q-25 -63 -29 -156h557q-16 174 -89 252t-189 78zM549 119q181 0 248 169q25 62 30 156h-557q10 -160 88 -242t191 -83z" />
    <glyph glyph-name="uniF51E" unicode="&#xf51e;" horiz-adv-x="1400" 
d="M704 1876q82 0 131 41q48 41 58 115l145 -35q-50 -240 -336 -240q-316 2 -348 236l162 41q8 -76 57 -117t131 -41zM504 1532q-48 0 -78.5 26t-30.5 68t31 70q31 26 78.5 26t77.5 -26t30 -69t-30 -69t-78 -26zM1006 1627q0 -43 -31 -69t-79 -26t-78 26t-30 68t30 70
q30 26 78 26t79 -26t31 -69zM706 1458q288 0 438 -204q142 -189 142 -542t-152 -545q-153 -191 -439 -191t-433 196t-147 550t151 545q152 191 440 191zM698 1307q-260 0 -359 -267q-36 -96 -44 -237h811q-16 244 -128 374t-280 130zM698 127q269 0 366 270q36 100 42 254
h-811q16 -264 128 -394t275 -130z" />
    <glyph glyph-name="uniF51F" unicode="&#xf51f;" horiz-adv-x="1097" 
d="M571 1589q82 0 130 41t59 115l145 -35q-50 -240 -336 -240q-316 0 -348 236l162 41q8 -76 57 -117t131 -41zM346 1198q-44 0 -72 28t-28 74t27 74q28 29 72.5 29t72.5 -29q28 -28 28 -74t-28 -74t-72 -28zM842 1300q0 -46 -28 -74t-74 -28t-74 28t-28 74t28 74
q28 29 74 29t74 -28.5t28 -74.5zM100 512q0 260 116 398t333 139q336 0 422 -317q27 -99 26 -220q1 -260 -115 -398t-333 -139q-336 0 -422 317q-27 99 -27 220zM549 905q-185 0 -250 -174q-25 -63 -29 -156h557q-16 174 -89 252t-189 78zM549 119q181 0 248 169
q25 62 30 156h-557q10 -160 88 -242t191 -83z" />
    <glyph glyph-name="uniF520" unicode="&#xf520;" horiz-adv-x="1574" 
d="M434 1726h647v-127h-647v127zM1231 1434h170v-1434h-170v1434zM174 1434h170v-557q33 7 67 9l59 5q118 9 224 -14t174 -72q154 -109 154 -345q0 -351 -318 -448q-98 -28 -256 -28t-274 30v1420zM488 745q-75 0 -144 -18v-584q56 -12 158 -12q147 0 243 80t97 240
q0 294 -354 294z" />
    <glyph glyph-name="uniF521" unicode="&#xf521;" horiz-adv-x="1351" 
d="M358 1317h607v-127h-607v127zM484 512q-114 0 -162 -14v-355q76 -12 145 -12q129 -1 180 49t51 138t-50 141t-164 53zM507 647q361 0 361 -305q0 -186 -103 -270t-335 -84q-131 0 -272 12v1024h164v-391q86 14 185 14zM1030 1024h164v-1024h-164v1024z" />
    <glyph glyph-name="uniF522" unicode="&#xf522;" horiz-adv-x="1181" 
d="M176 1726h647v-127h-647v127zM418 127q305 0 428 281q45 102 53 249h-592v152h590q-20 244 -143 371q-124 127 -320 127t-297 -62l-45 133q140 82 359 80q435 0 569 -401q47 -141 47 -341q0 -378 -198 -572q-173 -169 -461 -169q-192 0 -316 52l45 149q100 -49 281 -49z
" />
    <glyph glyph-name="uniF523" unicode="&#xf523;" horiz-adv-x="952" 
d="M121 1317h606v-127h-606v127zM248 449v135h434q-10 145 -85 233t-213 88t-247 -71l-57 124q133 91 336 91q436 0 436 -537q0 -262 -121 -399t-330 -137t-319 61l47 139q99 -57 250 -57q287 -2 305 330h-436z" />
    <glyph glyph-name="uniF524" unicode="&#xf524;" horiz-adv-x="1181" 
d="M494 1624q82 0 130 41t58 115l145 -35q-50 -240 -335 -240q-144 1 -238 57t-111 179l162 41q7 -76 57 -117t132 -41zM418 127q305 0 428 281q45 102 53 249h-592v152h590q-20 244 -143 371q-124 127 -320 127t-297 -62l-45 133q140 82 359 80q435 0 569 -401
q47 -141 47 -341q0 -378 -198 -572q-173 -169 -461 -169q-192 0 -316 52l45 149q100 -49 281 -49z" />
    <glyph glyph-name="uniF525" unicode="&#xf525;" horiz-adv-x="952" 
d="M442 1270q66 0 117 39t70 127l123 -39q-18 -119 -106 -183t-208 -63q-193 0 -280 131q-31 45 -41 107l139 49q36 -168 186 -168zM248 449v135h434q-10 145 -85 233t-213 88t-247 -71l-57 124q133 91 336 91q436 0 436 -537q0 -262 -121 -399t-330 -137t-319 61l47 139
q99 -57 250 -57q287 -2 305 330h-436z" />
    <glyph glyph-name="uniF526" unicode="&#xf526;" horiz-adv-x="1193" 
d="M592 1627q0 -43 -30 -69t-78 -26t-78 26t-30 68t30 70q30 26 78 26t78 -26t30 -69zM984.5 1627q0.5 -43 -30 -69t-78.5 -26t-78 26t-30 68t30 70q30 26 78 26t78 -26t30.5 -69zM115 717q0 370 202 570q173 171 415 171t362 -49l-41 -152q-98 48 -283 49t-306 -109
q-140 -125 -167 -382h627v-151h-629q11 -257 151 -397t333 -140t292 66l43 -134q-106 -82 -374 -83t-438 178q-187 193 -187 563z" />
    <glyph glyph-name="uniF527" unicode="&#xf527;" horiz-adv-x="966" 
d="M338 1198q-44 0 -72 28t-28 74t27 74q28 29 72.5 29t72.5 -29q28 -28 28 -74t-28 -74t-72 -28zM834 1300q0 -46 -28 -74t-74 -28t-74 28t-28 74t28 74q28 29 74 29t74 -28.5t28 -74.5zM100 514q0 250 130 392t332 143q202 0 317 -60l-48 -141q-99 57 -239 58t-224.5 -80
t-101.5 -240h484v-135h-486q13 -144 100 -239t235 -94t245 75l53 -125q-126 -92 -343 -92t-336 144q-118 144 -118 394z" />
    <glyph glyph-name="uniF528" unicode="&#xf528;" horiz-adv-x="1165" 
d="M324 1726h647v-127h-647v127zM156 1188q0 262 568 262q145 0 267 -31v-1419h-170v625l-211 -45l-356 -580h-201l320 510l125 88q-240 52 -317 258q-25 70 -25 332zM685 1303q-245 0 -320 -148q-29 -55 -29 -136q0 -147 96 -221t250 -75h139v567q-63 13 -136 13z" />
    <glyph glyph-name="uniF529" unicode="&#xf529;" horiz-adv-x="972" 
d="M186 1317h607v-127h-607v127zM831 0h-163v424l-158 -25l-270 -399h-199l246 350l82 76q-106 16 -182 86q-75 70 -74 188q0 345 448 349q97 0 270 -33v-1016zM551 905q-270 0 -268 -196q0 -92 72 -143q73 -50 192 -50h25q14 0 96 4v365q-54 20 -117 20z" />
    <glyph glyph-name="uniF52A" unicode="&#xf52a;" horiz-adv-x="1165" 
d="M632 1624q82 0 129.5 41t57.5 115l146 -35q-23 -111 -104 -175t-229 -65q-320 0 -351 236l161 41q8 -76 58 -117t132 -41zM156 1188q0 262 568 262q145 0 267 -31v-1419h-170v625l-211 -45l-356 -580h-201l320 510l125 88q-240 52 -317 258q-25 70 -25 332zM685 1303
q-245 0 -320 -148q-29 -55 -29 -136q0 -147 96 -221t250 -75h139v567q-63 13 -136 13z" />
    <glyph glyph-name="uniF52B" unicode="&#xf52b;" horiz-adv-x="972" 
d="M504 1270q66 0 117 39t69 127l123 -39q-18 -119 -105 -183t-208 -63q-191 0 -281 131q-31 45 -41 107l139 49q36 -168 187 -168zM831 0h-163v424l-158 -25l-270 -399h-199l246 350l82 76q-106 16 -182 86q-75 70 -74 188q0 345 448 349q97 0 270 -33v-1016zM551 905
q-270 0 -268 -196q0 -92 72 -143q73 -50 192 -50h25q14 0 96 4v365q-54 20 -117 20z" />
    <glyph glyph-name="uniF52C" unicode="&#xf52c;" horiz-adv-x="1828" 
d="M608 1726h647v-127h-647v127zM1159 1458q555 0 555 -741q0 -357 -137 -549t-415 -192t-416 178t-150 503h-252v-657h-170v1434h170v-625h254q16 313 158 481t403 168zM1159 127q375 0 375 429t-81 573q-96 176 -294 178q-383 0 -383 -590q0 -408 204 -542q73 -48 179 -48
z" />
    <glyph glyph-name="uniF52D" unicode="&#xf52d;" horiz-adv-x="1472" 
d="M424 1317h606v-127h-606v127zM952 -25q-313 0 -394 282q-26 89 -32 196h-204v-453h-164v1024h164v-428h206q33 453 428 453q420 0 418 -537t-422 -537zM688 512q0 -393 268 -393q131 0 189 95q57 95 57 298q0 281 -127 362q-47 31 -121 31q-142 0 -204 -95t-62 -298z" />
    <glyph glyph-name="uniF52E" unicode="&#xf52e;" horiz-adv-x="1828" 
d="M884 1624q82 0 129.5 41t57.5 115l146 -35q-23 -111 -104 -175t-229 -65q-319 0 -352 236l162 41q8 -76 58 -117t132 -41zM1159 1458q555 0 555 -741q0 -357 -137 -549t-415 -192t-416 178t-150 503h-252v-657h-170v1434h170v-625h254q16 313 158 481t403 168zM1159 127
q375 0 375 429t-81 573q-96 176 -294 178q-383 0 -383 -590q0 -408 204 -542q73 -48 179 -48z" />
    <glyph glyph-name="uniF52F" unicode="&#xf52f;" horiz-adv-x="1472" 
d="M725 1270q66 0 117 39t69 127l123 -39q-18 -119 -105 -183t-208 -63q-191 0 -281 131q-31 45 -41 107l140 49q36 -168 186 -168zM952 -25q-313 0 -394 282q-26 89 -32 196h-204v-453h-164v1024h164v-428h206q33 453 428 453q420 0 418 -537t-422 -537zM688 512
q0 -393 268 -393q131 0 189 95q57 95 57 298q0 281 -127 362q-47 31 -121 31q-142 0 -204 -95t-62 -298z" />
    <glyph glyph-name="uniF530" unicode="&#xf530;" horiz-adv-x="1345" 
d="M934 1282h-428q-20 -410 -65.5 -773t-152 -441t-175.5 -78t-117 20l22 148q20 -6 49 -6q208 0 240.5 509.5t38.5 772.5h758v-1282h188v-416h-118l-31 264h-209v1282z" />
    <glyph glyph-name="uniF531" unicode="&#xf531;" horiz-adv-x="1071" 
d="M709 881h-297q-6 -86 -12.5 -185.5t-43 -401.5t-247.5 -302q-79 0 -119 18l24 137q25 -8 60 -8q82 0 129.5 187t58.5 698h610v-881h152v-403h-111l-30 260h-174v881z" />
    <glyph glyph-name="uniF532" unicode="&#xf532;" horiz-adv-x="1394" 
d="M940 -434q-39 0 -63 4v139q110 0 142 64.5t32 226.5v971l12 164h-8l-88 -168l-693 -967h-100v1434h170v-983l-14 -162h8l90 168l692 977h101v-1489q0 -190 -67 -284.5t-214 -94.5zM717 1624q82 0 130 41t58 115l146 -35q-23 -111 -104 -175.5t-229 -64.5q-320 0 -351 236
l161 41q8 -76 57.5 -117t131.5 -41z" />
    <glyph glyph-name="uniF533" unicode="&#xf533;" horiz-adv-x="1118" 
d="M686 -434q-29 0 -61 4v139q108 0 140 64.5t32 226.5v606l6 127h-6l-84 -131l-461 -602h-94v1024h164v-625l-7 -120h9l79 127l461 618h97v-1079q0 -190 -66 -284.5t-209 -94.5zM575 1151q-190 0 -250.5 88t-70.5 150l139 49q36 -168 144 -168t159.5 39t69.5 127l123 -39
q-18 -119 -105.5 -182.5t-208.5 -63.5z" />
    <glyph glyph-name="uniF534" unicode="&#xf534;" horiz-adv-x="1400" 
d="M696 1739q60 0 96 -32t36 -77.5t-36 -75.5t-96 -30t-94 30t-33 76q0 46 33.5 77.5t93.5 31.5zM706 1458q288 0 438 -204q142 -189 142 -542t-152 -545q-153 -191 -439 -191t-433 196t-147 550t151 545q152 191 440 191zM693 127.5q195 -0.5 304 143.5t109 422t-103 445.5
t-298 167.5t-303 -144t-108 -421t102 -445t297 -168.5z" />
    <glyph glyph-name="uniF535" unicode="&#xf535;" horiz-adv-x="1097" 
d="M438 1335q0 47 32 81t81 34t84 -34t35 -81t-35 -78t-84 -31t-81 31t-32 78zM100 512q0 260 116 398t333 139q336 0 422 -317q27 -99 26 -220q1 -260 -115 -398t-333 -139q-336 0 -422 317q-27 99 -27 220zM270 512q0 -267 150 -360q53 -33 129 -33q279 -2 278 393
q0 271 -149 361q-53 32 -129 32q-279 2 -279 -393z" />
    <glyph glyph-name="uniF536" unicode="&#xf536;" horiz-adv-x="1574" 
d="M800 1624q82 0 129.5 41t57.5 115l146 -35q-23 -111 -104 -175t-229 -65q-320 0 -351 236l161 41q8 -76 58 -117t132 -41zM1231 1434h170v-1434h-170v1434zM174 1434h170v-557q33 7 67 9l59 5q118 9 224 -14t174 -72q154 -109 154 -345q0 -351 -318 -448
q-98 -28 -256 -28t-274 30v1420zM488 745q-75 0 -144 -18v-584q56 -12 158 -12q147 0 243 80t97 240q0 294 -354 294z" />
    <glyph glyph-name="uniF537" unicode="&#xf537;" horiz-adv-x="1351" 
d="M671 1270q150 0 187 166l123 -39q-18 -119 -105 -183t-208 -63q-191 0 -281 131q-31 45 -41 107l139 49q36 -168 186 -168zM484 512q-114 0 -162 -14v-355q76 -12 145 -12q129 -1 180 49t51 138t-50 141t-164 53zM507 647q361 0 361 -305q0 -186 -103 -270t-335 -84
q-131 0 -272 12v1024h164v-391q86 14 185 14zM1030 1024h164v-1024h-164v1024z" />
    <glyph glyph-name="uniF538" unicode="&#xf538;" horiz-adv-x="1105" 
d="M414 1532q-48 0 -78.5 26t-30.5 68t31 70q31 26 78.5 26t77.5 -26t30 -69t-30 -69t-78 -26zM806 1532q-48 0 -78 26t-30 68t30 70q30 26 78 26t79 -26t31 -69t-31 -69t-79 -26zM356 1096q0 -112 85 -182t179 -81q94 -12 189 -12h33v-143h-113q-416 0 -416 -264
q1 -147 99 -217t262 -70q86 0 166 19t123 49l53 -129q-141 -91 -374 -91t-371 107t-138 321q0 150 80 243t225 116v8q-126 37 -193 131t-68 196q-2 185 136 277q123 84 312 84t315 -48q37 -13 59 -28l-49 -137q-132 59 -281 61t-231 -48t-82 -162z" />
    <glyph glyph-name="uniF539" unicode="&#xf539;" horiz-adv-x="903" 
d="M291 1198q-45 0 -73 28t-28 74t28 74.5t73 28.5t73 -28.5t28 -74.5t-28 -74t-73 -28zM685 1198q-45 0 -73 28t-28 74t27 74q28 29 73.5 29t73.5 -29q28 -28 28 -74t-28 -74t-73 -28zM303 755.5q0 -73.5 62 -119.5t139 -46h143v-133h-119q-262 0 -264 -158q0 -78 66 -126
t205 -48t243 65l47 -133q-135 -77 -297 -75q-217 0 -322 82t-106 223q0 103 50 163t167 91v8q-86 29 -132 90t-46 145q0 126 92 190q93 64 229 64t218 -26t143 -62l-47 -127q-116 72 -238 72t-177.5 -33t-55.5 -106.5z" />
    <glyph glyph-name="afii10055.alt" unicode="&#xf53a;" horiz-adv-x="595" 
d="M172 1630q0 46 34 77.5t93 31.5t95 -32t36 -77.5t-36 -75.5t-95 -30t-93 30t-34 76zM213 1434h170v-1434h-170v1434z" />
    <glyph glyph-name="afii10103.alt" unicode="&#xf53b;" horiz-adv-x="548" 
d="M193 1024h163v-1024h-163v1024z" />
    </font>
</defs>
</svg>
